<?xml version="1.0" encoding="UTF-8" standalone="no"?>
<!DOCTYPE svg PUBLIC "-//W3C//DTD SVG 1.1//EN"
 "http://www.w3.org/Graphics/SVG/1.1/DTD/svg11.dtd">
<!-- Generated by graphviz version 2.38.0 (20140413.2041)
 -->
<!-- Title: G Pages: 1 -->
<svg width="727pt" height="2156pt"
 viewBox="0.00 0.00 727.00 2156.00" xmlns="http://www.w3.org/2000/svg" xmlns:xlink="http://www.w3.org/1999/xlink">
<g id="graph0" class="graph" transform="scale(1 1) rotate(0) translate(4 2152)">
<title>G</title>
<polygon fill="white" stroke="none" points="-4,4 -4,-2152 723,-2152 723,4 -4,4"/>
<g id="clust1" class="cluster"><title>cluster_Global</title>
<path fill="none" stroke="gray" d="M20,-98C20,-98 699,-98 699,-98 705,-98 711,-104 711,-110 711,-110 711,-2128 711,-2128 711,-2134 705,-2140 699,-2140 699,-2140 20,-2140 20,-2140 14,-2140 8,-2134 8,-2128 8,-2128 8,-110 8,-110 8,-104 14,-98 20,-98"/>
<text text-anchor="middle" x="359.5" y="-2127.2" font-family="Times,serif" font-size="11.00" fill="gray">Global</text>
</g>
<g id="clust2" class="cluster"><title>cluster_\LinHUniX</title>
<path fill="none" stroke="gray" d="M28,-150C28,-150 691,-150 691,-150 697,-150 703,-156 703,-162 703,-162 703,-2100 703,-2100 703,-2106 697,-2112 691,-2112 691,-2112 28,-2112 28,-2112 22,-2112 16,-2106 16,-2100 16,-2100 16,-162 16,-162 16,-156 22,-150 28,-150"/>
<text text-anchor="middle" x="359.5" y="-2099.2" font-family="Times,serif" font-size="11.00" fill="gray">LinHUniX</text>
</g>
<g id="clust3" class="cluster"><title>cluster_\LinHUniX\Mcp</title>
<path fill="none" stroke="gray" d="M36,-516C36,-516 683,-516 683,-516 689,-516 695,-522 695,-528 695,-528 695,-1412 695,-1412 695,-1418 689,-1424 683,-1424 683,-1424 36,-1424 36,-1424 30,-1424 24,-1418 24,-1412 24,-1412 24,-528 24,-528 24,-522 30,-516 36,-516"/>
<text text-anchor="middle" x="359.5" y="-1411.2" font-family="Times,serif" font-size="11.00" fill="gray">Mcp</text>
</g>
<g id="clust4" class="cluster"><title>cluster_\LinHUniX\Mcp\Provider</title>
<path fill="none" stroke="gray" d="M525,-1270C525,-1270 675,-1270 675,-1270 681,-1270 687,-1276 687,-1282 687,-1282 687,-1384 687,-1384 687,-1390 681,-1396 675,-1396 675,-1396 525,-1396 525,-1396 519,-1396 513,-1390 513,-1384 513,-1384 513,-1282 513,-1282 513,-1276 519,-1270 525,-1270"/>
<text text-anchor="middle" x="600" y="-1383.2" font-family="Times,serif" font-size="11.00" fill="gray">Provider</text>
</g>
<g id="clust5" class="cluster"><title>cluster_\LinHUniX\Mcp\Model</title>
<path fill="none" stroke="gray" d="M44,-1108C44,-1108 445,-1108 445,-1108 451,-1108 457,-1114 457,-1120 457,-1120 457,-1384 457,-1384 457,-1390 451,-1396 445,-1396 445,-1396 44,-1396 44,-1396 38,-1396 32,-1390 32,-1384 32,-1384 32,-1120 32,-1120 32,-1114 38,-1108 44,-1108"/>
<text text-anchor="middle" x="244.5" y="-1383.2" font-family="Times,serif" font-size="11.00" fill="gray">Model</text>
</g>
<g id="clust6" class="cluster"><title>cluster_\LinHUniX\Mcp\Component</title>
<path fill="none" stroke="gray" d="M541.5,-758C541.5,-758 658.5,-758 658.5,-758 664.5,-758 670.5,-764 670.5,-770 670.5,-770 670.5,-1250 670.5,-1250 670.5,-1256 664.5,-1262 658.5,-1262 658.5,-1262 541.5,-1262 541.5,-1262 535.5,-1262 529.5,-1256 529.5,-1250 529.5,-1250 529.5,-770 529.5,-770 529.5,-764 535.5,-758 541.5,-758"/>
<text text-anchor="middle" x="600" y="-1249.2" font-family="Times,serif" font-size="11.00" fill="gray">Component</text>
</g>
<g id="clust7" class="cluster"><title>cluster_\LinHUniX\Mcp\Tools</title>
<path fill="none" stroke="gray" d="M555,-570C555,-570 645,-570 645,-570 651,-570 657,-576 657,-582 657,-582 657,-738 657,-738 657,-744 651,-750 645,-750 645,-750 555,-750 555,-750 549,-750 543,-744 543,-738 543,-738 543,-582 543,-582 543,-576 549,-570 555,-570"/>
<text text-anchor="middle" x="600" y="-737.2" font-family="Times,serif" font-size="11.00" fill="gray">Tools</text>
</g>
<g id="clust8" class="cluster"><title>cluster_\LinHUniX\Pdo</title>
<path fill="none" stroke="gray" d="M273,-1762C273,-1762 653,-1762 653,-1762 659,-1762 665,-1768 665,-1774 665,-1774 665,-2072 665,-2072 665,-2078 659,-2084 653,-2084 653,-2084 273,-2084 273,-2084 267,-2084 261,-2078 261,-2072 261,-2072 261,-1774 261,-1774 261,-1768 267,-1762 273,-1762"/>
<text text-anchor="middle" x="463" y="-2071.2" font-family="Times,serif" font-size="11.00" fill="gray">Pdo</text>
</g>
<g id="clust9" class="cluster"><title>cluster_\LinHUniX\Pdo\Service</title>
<path fill="none" stroke="gray" d="M562,-1770C562,-1770 638,-1770 638,-1770 644,-1770 650,-1776 650,-1782 650,-1782 650,-1830 650,-1830 650,-1836 644,-1842 638,-1842 638,-1842 562,-1842 562,-1842 556,-1842 550,-1836 550,-1830 550,-1830 550,-1782 550,-1782 550,-1776 556,-1770 562,-1770"/>
<text text-anchor="middle" x="600" y="-1829.2" font-family="Times,serif" font-size="11.00" fill="gray">Service</text>
</g>
<g id="clust10" class="cluster"><title>cluster_\LinHUniX\Pdo\Driver</title>
<path fill="none" stroke="gray" d="M311.5,-1930C311.5,-1930 645,-1930 645,-1930 651,-1930 657,-1936 657,-1942 657,-1942 657,-2044 657,-2044 657,-2050 651,-2056 645,-2056 645,-2056 311.5,-2056 311.5,-2056 305.5,-2056 299.5,-2050 299.5,-2044 299.5,-2044 299.5,-1942 299.5,-1942 299.5,-1936 305.5,-1930 311.5,-1930"/>
<text text-anchor="middle" x="478.25" y="-2043.2" font-family="Times,serif" font-size="11.00" fill="gray">Driver</text>
</g>
<g id="clust11" class="cluster"><title>cluster_\LinHUniX\Pdo\Model</title>
<path fill="none" stroke="gray" d="M281,-1810C281,-1810 411,-1810 411,-1810 417,-1810 423,-1816 423,-1822 423,-1822 423,-1870 423,-1870 423,-1876 417,-1882 411,-1882 411,-1882 281,-1882 281,-1882 275,-1882 269,-1876 269,-1870 269,-1870 269,-1822 269,-1822 269,-1816 275,-1810 281,-1810"/>
<text text-anchor="middle" x="346" y="-1869.2" font-family="Times,serif" font-size="11.00" fill="gray">Model</text>
</g>
<g id="clust12" class="cluster"><title>cluster_\LinHUniX\Pdo\Query</title>
<path fill="none" stroke="gray" d="M565.5,-1850C565.5,-1850 634.5,-1850 634.5,-1850 640.5,-1850 646.5,-1856 646.5,-1862 646.5,-1862 646.5,-1910 646.5,-1910 646.5,-1916 640.5,-1922 634.5,-1922 634.5,-1922 565.5,-1922 565.5,-1922 559.5,-1922 553.5,-1916 553.5,-1910 553.5,-1910 553.5,-1862 553.5,-1862 553.5,-1856 559.5,-1850 565.5,-1850"/>
<text text-anchor="middle" x="600" y="-1909.2" font-family="Times,serif" font-size="11.00" fill="gray">Query</text>
</g>
<g id="clust13" class="cluster"><title>cluster_\LinHUniX\Gfx</title>
<path fill="none" stroke="gray" d="M533.5,-1432C533.5,-1432 666.5,-1432 666.5,-1432 672.5,-1432 678.5,-1438 678.5,-1444 678.5,-1444 678.5,-1742 678.5,-1742 678.5,-1748 672.5,-1754 666.5,-1754 666.5,-1754 533.5,-1754 533.5,-1754 527.5,-1754 521.5,-1748 521.5,-1742 521.5,-1742 521.5,-1444 521.5,-1444 521.5,-1438 527.5,-1432 533.5,-1432"/>
<text text-anchor="middle" x="600" y="-1741.2" font-family="Times,serif" font-size="11.00" fill="gray">Gfx</text>
</g>
<g id="clust14" class="cluster"><title>cluster_\LinHUniX\Gfx\Service</title>
<path fill="none" stroke="gray" d="M562,-1654C562,-1654 638,-1654 638,-1654 644,-1654 650,-1660 650,-1666 650,-1666 650,-1714 650,-1714 650,-1720 644,-1726 638,-1726 638,-1726 562,-1726 562,-1726 556,-1726 550,-1720 550,-1714 550,-1714 550,-1666 550,-1666 550,-1660 556,-1654 562,-1654"/>
<text text-anchor="middle" x="600" y="-1713.2" font-family="Times,serif" font-size="11.00" fill="gray">Service</text>
</g>
<g id="clust15" class="cluster"><title>cluster_\LinHUniX\Gfx\Component</title>
<path fill="none" stroke="gray" d="M558.5,-1520C558.5,-1520 641.5,-1520 641.5,-1520 647.5,-1520 653.5,-1526 653.5,-1532 653.5,-1532 653.5,-1634 653.5,-1634 653.5,-1640 647.5,-1646 641.5,-1646 641.5,-1646 558.5,-1646 558.5,-1646 552.5,-1646 546.5,-1640 546.5,-1634 546.5,-1634 546.5,-1532 546.5,-1532 546.5,-1526 552.5,-1520 558.5,-1520"/>
<text text-anchor="middle" x="600" y="-1633.2" font-family="Times,serif" font-size="11.00" fill="gray">Component</text>
</g>
<g id="clust16" class="cluster"><title>cluster_\LinHUniX\Gfx\Controller</title>
<path fill="none" stroke="gray" d="M541.5,-1440C541.5,-1440 658.5,-1440 658.5,-1440 664.5,-1440 670.5,-1446 670.5,-1452 670.5,-1452 670.5,-1500 670.5,-1500 670.5,-1506 664.5,-1512 658.5,-1512 658.5,-1512 541.5,-1512 541.5,-1512 535.5,-1512 529.5,-1506 529.5,-1500 529.5,-1500 529.5,-1452 529.5,-1452 529.5,-1446 535.5,-1440 541.5,-1440"/>
<text text-anchor="middle" x="600" y="-1499.2" font-family="Times,serif" font-size="11.00" fill="gray">Controller</text>
</g>
<g id="clust17" class="cluster"><title>cluster_\LinHUniX\Mail</title>
<path fill="none" stroke="gray" d="M273,-158C273,-158 419,-158 419,-158 425,-158 431,-164 431,-170 431,-170 431,-496 431,-496 431,-502 425,-508 419,-508 419,-508 273,-508 273,-508 267,-508 261,-502 261,-496 261,-496 261,-170 261,-170 261,-164 267,-158 273,-158"/>
<text text-anchor="middle" x="346" y="-495.2" font-family="Times,serif" font-size="11.00" fill="gray">Mail</text>
</g>
<g id="clust18" class="cluster"><title>cluster_\LinHUniX\Mail\Component</title>
<path fill="none" stroke="gray" d="M281,-166C281,-166 411,-166 411,-166 417,-166 423,-172 423,-178 423,-178 423,-388 423,-388 423,-394 417,-400 411,-400 411,-400 281,-400 281,-400 275,-400 269,-394 269,-388 269,-388 269,-178 269,-178 269,-172 275,-166 281,-166"/>
<text text-anchor="middle" x="346" y="-387.2" font-family="Times,serif" font-size="11.00" fill="gray">Component</text>
</g>
<g id="clust19" class="cluster"><title>cluster_\LinHUniX\Mail\Service</title>
<path fill="none" stroke="gray" d="M304.5,-408C304.5,-408 387.5,-408 387.5,-408 393.5,-408 399.5,-414 399.5,-420 399.5,-420 399.5,-468 399.5,-468 399.5,-474 393.5,-480 387.5,-480 387.5,-480 304.5,-480 304.5,-480 298.5,-480 292.5,-474 292.5,-468 292.5,-468 292.5,-420 292.5,-420 292.5,-414 298.5,-408 304.5,-408"/>
<text text-anchor="middle" x="346" y="-467.2" font-family="Times,serif" font-size="11.00" fill="gray">Service</text>
</g>
<g id="clust20" class="cluster"><title>cluster_\LinHUniX\ln4</title>
<path fill="none" stroke="gray" d="M544,-400C544,-400 656,-400 656,-400 662,-400 668,-406 668,-412 668,-412 668,-496 668,-496 668,-502 662,-508 656,-508 656,-508 544,-508 544,-508 538,-508 532,-502 532,-496 532,-496 532,-412 532,-412 532,-406 538,-400 544,-400"/>
<text text-anchor="middle" x="600" y="-495.2" font-family="Times,serif" font-size="11.00" fill="gray">ln4</text>
</g>
<g id="clust21" class="cluster"><title>cluster_\LinHUniX\ln4\Controller</title>
<path fill="none" stroke="gray" d="M552,-408C552,-408 648,-408 648,-408 654,-408 660,-414 660,-420 660,-420 660,-468 660,-468 660,-474 654,-480 648,-480 648,-480 552,-480 552,-480 546,-480 540,-474 540,-468 540,-468 540,-420 540,-420 540,-414 546,-408 552,-408"/>
<text text-anchor="middle" x="600" y="-467.2" font-family="Times,serif" font-size="11.00" fill="gray">Controller</text>
</g>
<!-- \\LinHUniX\\Mcp\\Provider\\loggerProviderModel -->
<g id="node1" class="node"><title>\\LinHUniX\\Mcp\\Provider\\loggerProviderModel</title>
<polygon fill="none" stroke="black" points="672.5,-1368 527.5,-1368 527.5,-1332 672.5,-1332 672.5,-1368"/>
<text text-anchor="middle" x="600" y="-1347.2" font-family="Courier,monospace" font-size="11.00">loggerProviderModel</text>
</g>
<!-- \\LinHUniX\\Mcp\\Model\\mcpServiceProviderModelClass -->
<g id="node8" class="node"><title>\\LinHUniX\\Mcp\\Model\\mcpServiceProviderModelClass</title>
<polygon fill="none" stroke="black" points="449,-1368 243,-1368 243,-1332 449,-1332 449,-1368"/>
<text text-anchor="middle" x="346" y="-1347.2" font-family="Courier,monospace" font-size="11.00">mcpServiceProviderModelClass</text>
</g>
<!-- \\LinHUniX\\Mcp\\Provider\\loggerProviderModel&#45;&gt;\\LinHUniX\\Mcp\\Model\\mcpServiceProviderModelClass -->
<g id="edge1" class="edge"><title>\\LinHUniX\\Mcp\\Provider\\loggerProviderModel&#45;&gt;\\LinHUniX\\Mcp\\Model\\mcpServiceProviderModelClass</title>
<path fill="none" stroke="black" stroke-dasharray="1,5" d="M527.461,-1350C506.293,-1350 482.585,-1350 459.49,-1350"/>
<polygon fill="none" stroke="black" points="459.288,-1346.5 449.288,-1350 459.288,-1353.5 459.288,-1346.5"/>
</g>
<!-- \\LinHUniX\\Mcp\\Provider\\settingsProviderModel -->
<g id="node2" class="node"><title>\\LinHUniX\\Mcp\\Provider\\settingsProviderModel</title>
<polygon fill="none" stroke="black" points="679,-1314 521,-1314 521,-1278 679,-1278 679,-1314"/>
<text text-anchor="middle" x="600" y="-1293.2" font-family="Courier,monospace" font-size="11.00">settingsProviderModel</text>
</g>
<!-- \\LinHUniX\\Mcp\\Provider\\settingsProviderModel&#45;&gt;\\LinHUniX\\Mcp\\Model\\mcpServiceProviderModelClass -->
<g id="edge13" class="edge"><title>\\LinHUniX\\Mcp\\Provider\\settingsProviderModel&#45;&gt;\\LinHUniX\\Mcp\\Model\\mcpServiceProviderModelClass</title>
<path fill="none" stroke="black" stroke-dasharray="1,5" d="M520.991,-1312.72C495.741,-1318.13 467.467,-1324.19 441.172,-1329.82"/>
<polygon fill="none" stroke="black" points="440.246,-1326.44 431.202,-1331.96 441.713,-1333.28 440.246,-1326.44"/>
</g>
<!-- \\LinHUniX\\Mcp\\Model\\mcpRemoteObjectModelClass -->
<g id="node3" class="node"><title>\\LinHUniX\\Mcp\\Model\\mcpRemoteObjectModelClass</title>
<polygon fill="none" stroke="black" points="438.5,-1314 253.5,-1314 253.5,-1278 438.5,-1278 438.5,-1314"/>
<text text-anchor="middle" x="346" y="-1293.2" font-family="Courier,monospace" font-size="11.00">mcpRemoteObjectModelClass</text>
</g>
<!-- \\LinHUniX\\Mcp\\Model\\mcpBaseModelClass -->
<g id="node4" class="node"><title>\\LinHUniX\\Mcp\\Model\\mcpBaseModelClass</title>
<polygon fill="none" stroke="black" points="171,-1341 40,-1341 40,-1305 171,-1305 171,-1341"/>
<text text-anchor="middle" x="105.5" y="-1320.2" font-family="Courier,monospace" font-size="11.00">mcpBaseModelClass</text>
</g>
<!-- \\LinHUniX\\Mcp\\Model\\mcpRemoteObjectModelClass&#45;&gt;\\LinHUniX\\Mcp\\Model\\mcpBaseModelClass -->
<g id="edge2" class="edge"><title>\\LinHUniX\\Mcp\\Model\\mcpRemoteObjectModelClass&#45;&gt;\\LinHUniX\\Mcp\\Model\\mcpBaseModelClass</title>
<path fill="none" stroke="black" d="M253.472,-1306.36C229.556,-1309.07 204.065,-1311.95 181.143,-1314.55"/>
<polygon fill="none" stroke="black" points="180.692,-1311.08 171.15,-1315.68 181.48,-1318.03 180.692,-1311.08"/>
</g>
<!-- \\LinHUniX\\Mcp\\Model\\mcpConfigArrayModelClass -->
<g id="node5" class="node"><title>\\LinHUniX\\Mcp\\Model\\mcpConfigArrayModelClass</title>
<polygon fill="none" stroke="black" points="435.5,-1152 256.5,-1152 256.5,-1116 435.5,-1116 435.5,-1152"/>
<text text-anchor="middle" x="346" y="-1131.2" font-family="Courier,monospace" font-size="11.00">mcpConfigArrayModelClass</text>
</g>
<!-- \\ArrayAccess -->
<g id="node39" class="node"><title>\\ArrayAccess</title>
<ellipse fill="none" stroke="black" cx="105.5" cy="-72" rx="61.99" ry="18"/>
<text text-anchor="middle" x="105.5" y="-68.3" font-family="Times,serif" font-size="14.00" fill="gray">\ArrayAccess</text>
</g>
<!-- \\LinHUniX\\Mcp\\Model\\mcpConfigArrayModelClass&#45;&gt;\\ArrayAccess -->
<g id="edge4" class="edge"><title>\\LinHUniX\\Mcp\\Model\\mcpConfigArrayModelClass&#45;&gt;\\ArrayAccess</title>
<path fill="none" stroke="black" stroke-dasharray="1,5" d="M340.86,-1115.57C312.53,-989.416 147.347,-253.884 112.824,-100.159"/>
<polygon fill="none" stroke="black" points="116.174,-99.1022 110.568,-90.1122 109.344,-100.636 116.174,-99.1022"/>
</g>
<!-- \\LinHUniX\\Mcp\\Model\\mcpRemoteApiModelClass -->
<g id="node6" class="node"><title>\\LinHUniX\\Mcp\\Model\\mcpRemoteApiModelClass</title>
<polygon fill="none" stroke="black" points="428.5,-1260 263.5,-1260 263.5,-1224 428.5,-1224 428.5,-1260"/>
<text text-anchor="middle" x="346" y="-1239.2" font-family="Courier,monospace" font-size="11.00">mcpRemoteApiModelClass</text>
</g>
<!-- \\LinHUniX\\Mcp\\Model\\mcpRemoteApiModelClass&#45;&gt;\\LinHUniX\\Mcp\\Model\\mcpBaseModelClass -->
<g id="edge12" class="edge"><title>\\LinHUniX\\Mcp\\Model\\mcpRemoteApiModelClass&#45;&gt;\\LinHUniX\\Mcp\\Model\\mcpBaseModelClass</title>
<path fill="none" stroke="black" d="M272.527,-1260.05C262.552,-1262.87 252.484,-1265.88 243,-1269 214.449,-1278.39 183.235,-1290.59 157.871,-1301.02"/>
<polygon fill="none" stroke="black" points="156.354,-1297.86 148.454,-1304.92 159.032,-1304.32 156.354,-1297.86"/>
</g>
<!-- \\LinHUniX\\Mcp\\Model\\mcpDebugModelClass -->
<g id="node7" class="node"><title>\\LinHUniX\\Mcp\\Model\\mcpDebugModelClass</title>
<polygon fill="none" stroke="black" points="415,-1206 277,-1206 277,-1170 415,-1170 415,-1206"/>
<text text-anchor="middle" x="346" y="-1185.2" font-family="Courier,monospace" font-size="11.00">mcpDebugModelClass</text>
</g>
<!-- \\LinHUniX\\Mcp\\Component\\mcpDebugClass -->
<g id="node9" class="node"><title>\\LinHUniX\\Mcp\\Component\\mcpDebugClass</title>
<polygon fill="none" stroke="black" points="652,-1234 548,-1234 548,-1198 652,-1198 652,-1234"/>
<text text-anchor="middle" x="600" y="-1213.2" font-family="Courier,monospace" font-size="11.00">mcpDebugClass</text>
</g>
<!-- \\LinHUniX\\Mcp\\Component\\mcpMenuClass -->
<g id="node10" class="node"><title>\\LinHUniX\\Mcp\\Component\\mcpMenuClass</title>
<polygon fill="none" stroke="black" points="649,-1180 551,-1180 551,-1144 649,-1144 649,-1180"/>
<text text-anchor="middle" x="600" y="-1159.2" font-family="Courier,monospace" font-size="11.00">mcpMenuClass</text>
</g>
<!-- \\LinHUniX\\Mcp\\Component\\mcpMailClass -->
<g id="node11" class="node"><title>\\LinHUniX\\Mcp\\Component\\mcpMailClass</title>
<polygon fill="none" stroke="black" points="649,-1126 551,-1126 551,-1090 649,-1090 649,-1126"/>
<text text-anchor="middle" x="600" y="-1105.2" font-family="Courier,monospace" font-size="11.00">mcpMailClass</text>
</g>
<!-- \\LinHUniX\\Mcp\\Component\\mcpToolsClass -->
<g id="node12" class="node"><title>\\LinHUniX\\Mcp\\Component\\mcpToolsClass</title>
<polygon fill="none" stroke="black" points="652,-1072 548,-1072 548,-1036 652,-1036 652,-1072"/>
<text text-anchor="middle" x="600" y="-1051.2" font-family="Courier,monospace" font-size="11.00">mcpToolsClass</text>
</g>
<!-- \\LinHUniX\\Mcp\\Component\\mcpTemplateClass -->
<g id="node13" class="node"><title>\\LinHUniX\\Mcp\\Component\\mcpTemplateClass</title>
<polygon fill="none" stroke="black" points="662.5,-1018 537.5,-1018 537.5,-982 662.5,-982 662.5,-1018"/>
<text text-anchor="middle" x="600" y="-997.2" font-family="Courier,monospace" font-size="11.00">mcpTemplateClass</text>
</g>
<!-- \\LinHUniX\\Mcp\\Component\\mcpCoreClass -->
<g id="node14" class="node"><title>\\LinHUniX\\Mcp\\Component\\mcpCoreClass</title>
<polygon fill="none" stroke="black" points="649,-964 551,-964 551,-928 649,-928 649,-964"/>
<text text-anchor="middle" x="600" y="-943.2" font-family="Courier,monospace" font-size="11.00">mcpCoreClass</text>
</g>
<!-- \\LinHUniX\\Mcp\\Component\\mcpLanguageClass -->
<g id="node15" class="node"><title>\\LinHUniX\\Mcp\\Component\\mcpLanguageClass</title>
<polygon fill="none" stroke="black" points="662.5,-910 537.5,-910 537.5,-874 662.5,-874 662.5,-910"/>
<text text-anchor="middle" x="600" y="-889.2" font-family="Courier,monospace" font-size="11.00">mcpLanguageClass</text>
</g>
<!-- \\LinHUniX\\Mcp\\Component\\mcpProxyClass -->
<g id="node16" class="node"><title>\\LinHUniX\\Mcp\\Component\\mcpProxyClass</title>
<polygon fill="none" stroke="black" points="652,-856 548,-856 548,-820 652,-820 652,-856"/>
<text text-anchor="middle" x="600" y="-835.2" font-family="Courier,monospace" font-size="11.00">mcpProxyClass</text>
</g>
<!-- \\LinHUniX\\Mcp\\Component\\mcpApiClass -->
<g id="node17" class="node"><title>\\LinHUniX\\Mcp\\Component\\mcpApiClass</title>
<polygon fill="none" stroke="black" points="645.5,-802 554.5,-802 554.5,-766 645.5,-766 645.5,-802"/>
<text text-anchor="middle" x="600" y="-781.2" font-family="Courier,monospace" font-size="11.00">mcpApiClass</text>
</g>
<!-- \\LinHUniX\\Mcp\\Tools\\pharizeShell -->
<g id="node18" class="node"><title>\\LinHUniX\\Mcp\\Tools\\pharizeShell</title>
<polygon fill="none" stroke="black" points="649,-722 551,-722 551,-686 649,-686 649,-722"/>
<text text-anchor="middle" x="600" y="-701.2" font-family="Courier,monospace" font-size="11.00">pharizeShell</text>
</g>
<!-- \\LinHUniX\\Mcp\\Tools\\browserData -->
<g id="node19" class="node"><title>\\LinHUniX\\Mcp\\Tools\\browserData</title>
<polygon fill="none" stroke="black" points="645.5,-668 554.5,-668 554.5,-632 645.5,-632 645.5,-668"/>
<text text-anchor="middle" x="600" y="-647.2" font-family="Courier,monospace" font-size="11.00">browserData</text>
</g>
<!-- \\LinHUniX\\Mcp\\Tools\\pharizeBase -->
<g id="node20" class="node"><title>\\LinHUniX\\Mcp\\Tools\\pharizeBase</title>
<polygon fill="none" stroke="black" points="645.5,-614 554.5,-614 554.5,-578 645.5,-578 645.5,-614"/>
<text text-anchor="middle" x="600" y="-593.2" font-family="Courier,monospace" font-size="11.00">pharizeBase</text>
</g>
<!-- \\LinHUniX\\Mcp\\masterControlProgram -->
<g id="node21" class="node"><title>\\LinHUniX\\Mcp\\masterControlProgram</title>
<polygon fill="none" stroke="black" points="676,-560 524,-560 524,-524 676,-524 676,-560"/>
<text text-anchor="middle" x="600" y="-539.2" font-family="Courier,monospace" font-size="11.00">masterControlProgram</text>
</g>
<!-- \\LinHUniX\\Pdo\\Service\\pdoService -->
<g id="node22" class="node"><title>\\LinHUniX\\Pdo\\Service\\pdoService</title>
<polygon fill="none" stroke="black" points="642,-1814 558,-1814 558,-1778 642,-1778 642,-1814"/>
<text text-anchor="middle" x="600" y="-1793.2" font-family="Courier,monospace" font-size="11.00">pdoService</text>
</g>
<!-- \\LinHUniX\\Pdo\\Service\\pdoService&#45;&gt;\\LinHUniX\\Mcp\\Model\\mcpBaseModelClass -->
<g id="edge3" class="edge"><title>\\LinHUniX\\Pdo\\Service\\pdoService&#45;&gt;\\LinHUniX\\Mcp\\Model\\mcpBaseModelClass</title>
<path fill="none" stroke="black" d="M557.551,-1789.31C505.346,-1779.5 414.337,-1757.66 347,-1716"/>
</g>
<!-- \\LinHUniX\\Pdo\\Driver\\pdoDriver -->
<g id="node23" class="node"><title>\\LinHUniX\\Pdo\\Driver\\pdoDriver</title>
<polygon fill="none" stroke="black" points="384.5,-1974 307.5,-1974 307.5,-1938 384.5,-1938 384.5,-1974"/>
<text text-anchor="middle" x="346" y="-1953.2" font-family="Courier,monospace" font-size="11.00">pdoDriver</text>
</g>
<!-- \\LinHUniX\\Pdo\\Driver\\pdoDriver&#45;&gt;\\LinHUniX\\Mcp\\Model\\mcpBaseModelClass -->
<g id="edge6" class="edge"><title>\\LinHUniX\\Pdo\\Driver\\pdoDriver&#45;&gt;\\LinHUniX\\Mcp\\Model\\mcpBaseModelClass</title>
<path fill="none" stroke="black" d="M307.466,-1938.93C285.506,-1927.09 259.031,-1909.25 243,-1886 121.875,-1710.31 107.764,-1439.11 106.482,-1351.4"/>
<polygon fill="none" stroke="black" points="109.98,-1351.14 106.381,-1341.18 102.98,-1351.21 109.98,-1351.14"/>
</g>
<!-- \\LinHUniX\\Pdo\\Driver\\sqliteDriver -->
<g id="node24" class="node"><title>\\LinHUniX\\Pdo\\Driver\\sqliteDriver</title>
<polygon fill="none" stroke="black" points="649,-2028 551,-2028 551,-1992 649,-1992 649,-2028"/>
<text text-anchor="middle" x="600" y="-2007.2" font-family="Courier,monospace" font-size="11.00">sqliteDriver</text>
</g>
<!-- \\LinHUniX\\Pdo\\Driver\\sqliteDriver&#45;&gt;\\LinHUniX\\Pdo\\Driver\\pdoDriver -->
<g id="edge8" class="edge"><title>\\LinHUniX\\Pdo\\Driver\\sqliteDriver&#45;&gt;\\LinHUniX\\Pdo\\Driver\\pdoDriver</title>
<path fill="none" stroke="black" d="M550.71,-1999.65C505.896,-1990.05 439.564,-1975.84 394.881,-1966.26"/>
<polygon fill="none" stroke="black" points="395.365,-1962.78 384.854,-1964.11 393.898,-1969.63 395.365,-1962.78"/>
</g>
<!-- \\LinHUniX\\Pdo\\Driver\\mysqlDriver -->
<g id="node25" class="node"><title>\\LinHUniX\\Pdo\\Driver\\mysqlDriver</title>
<polygon fill="none" stroke="black" points="645.5,-1974 554.5,-1974 554.5,-1938 645.5,-1938 645.5,-1974"/>
<text text-anchor="middle" x="600" y="-1953.2" font-family="Courier,monospace" font-size="11.00">mysqlDriver</text>
</g>
<!-- \\LinHUniX\\Pdo\\Driver\\mysqlDriver&#45;&gt;\\LinHUniX\\Pdo\\Driver\\pdoDriver -->
<g id="edge9" class="edge"><title>\\LinHUniX\\Pdo\\Driver\\mysqlDriver&#45;&gt;\\LinHUniX\\Pdo\\Driver\\pdoDriver</title>
<path fill="none" stroke="black" d="M554.238,-1956C509.494,-1956 440.923,-1956 395.053,-1956"/>
<polygon fill="none" stroke="black" points="394.769,-1952.5 384.769,-1956 394.769,-1959.5 394.769,-1952.5"/>
</g>
<!-- \\LinHUniX\\Pdo\\Model\\mcpQueryModelClass -->
<g id="node26" class="node"><title>\\LinHUniX\\Pdo\\Model\\mcpQueryModelClass</title>
<polygon fill="none" stroke="black" points="415,-1854 277,-1854 277,-1818 415,-1818 415,-1854"/>
<text text-anchor="middle" x="346" y="-1833.2" font-family="Courier,monospace" font-size="11.00">mcpQueryModelClass</text>
</g>
<!-- \\LinHUniX\\Pdo\\Model\\mcpQueryModelClass&#45;&gt;\\LinHUniX\\Mcp\\Model\\mcpBaseModelClass -->
<g id="edge7" class="edge"><title>\\LinHUniX\\Pdo\\Model\\mcpQueryModelClass&#45;&gt;\\LinHUniX\\Mcp\\Model\\mcpBaseModelClass</title>
<path fill="none" stroke="black" d="M324.728,-1817.93C302.018,-1796.71 265.452,-1759.5 243,-1721 168.42,-1593.12 126.378,-1418.29 112.095,-1350.98"/>
<polygon fill="none" stroke="black" points="115.508,-1350.2 110.041,-1341.13 108.655,-1351.63 115.508,-1350.2"/>
</g>
<!-- \\LinHUniX\\Pdo\\Query\\JsonQuery -->
<g id="node27" class="node"><title>\\LinHUniX\\Pdo\\Query\\JsonQuery</title>
<polygon fill="none" stroke="black" points="638.5,-1894 561.5,-1894 561.5,-1858 638.5,-1858 638.5,-1894"/>
<text text-anchor="middle" x="600" y="-1873.2" font-family="Courier,monospace" font-size="11.00">JsonQuery</text>
</g>
<!-- \\LinHUniX\\Pdo\\Query\\JsonQuery&#45;&gt;\\LinHUniX\\Pdo\\Model\\mcpQueryModelClass -->
<g id="edge11" class="edge"><title>\\LinHUniX\\Pdo\\Query\\JsonQuery&#45;&gt;\\LinHUniX\\Pdo\\Model\\mcpQueryModelClass</title>
<path fill="none" stroke="black" d="M561.273,-1870.01C525.467,-1864.33 470.549,-1855.61 425.277,-1848.42"/>
<polygon fill="none" stroke="black" points="425.608,-1844.93 415.183,-1846.82 424.51,-1851.85 425.608,-1844.93"/>
</g>
<!-- \\LinHUniX\\Gfx\\Service\\gfxService -->
<g id="node28" class="node"><title>\\LinHUniX\\Gfx\\Service\\gfxService</title>
<polygon fill="none" stroke="black" points="642,-1698 558,-1698 558,-1662 642,-1662 642,-1698"/>
<text text-anchor="middle" x="600" y="-1677.2" font-family="Courier,monospace" font-size="11.00">gfxService</text>
</g>
<!-- \\LinHUniX\\Gfx\\Service\\gfxService&#45;&gt;\\LinHUniX\\Mcp\\Model\\mcpBaseModelClass -->
<g id="edge5" class="edge"><title>\\LinHUniX\\Gfx\\Service\\gfxService&#45;&gt;\\LinHUniX\\Mcp\\Model\\mcpBaseModelClass</title>
<path fill="none" stroke="black" d="M564.727,-1698.09C513.373,-1722.47 415.214,-1758.2 347,-1716"/>
<path fill="none" stroke="black" d="M345,-1716C204.621,-1629.16 135.395,-1426.11 113.98,-1351.32"/>
<polygon fill="none" stroke="black" points="117.227,-1349.93 111.165,-1341.24 110.485,-1351.81 117.227,-1349.93"/>
</g>
<!-- \\LinHUniX\\Gfx\\Component\\zebra_image -->
<g id="node29" class="node"><title>\\LinHUniX\\Gfx\\Component\\zebra_image</title>
<polygon fill="none" stroke="black" points="645.5,-1618 554.5,-1618 554.5,-1582 645.5,-1582 645.5,-1618"/>
<text text-anchor="middle" x="600" y="-1597.2" font-family="Courier,monospace" font-size="11.00">zebra_image</text>
</g>
<!-- \\LinHUniX\\Gfx\\Component\\html2text -->
<g id="node30" class="node"><title>\\LinHUniX\\Gfx\\Component\\html2text</title>
<polygon fill="none" stroke="black" points="638.5,-1564 561.5,-1564 561.5,-1528 638.5,-1528 638.5,-1564"/>
<text text-anchor="middle" x="600" y="-1543.2" font-family="Courier,monospace" font-size="11.00">html2text</text>
</g>
<!-- \\LinHUniX\\Gfx\\Controller\\uploadController -->
<g id="node31" class="node"><title>\\LinHUniX\\Gfx\\Controller\\uploadController</title>
<polygon fill="none" stroke="black" points="662.5,-1484 537.5,-1484 537.5,-1448 662.5,-1448 662.5,-1484"/>
<text text-anchor="middle" x="600" y="-1463.2" font-family="Courier,monospace" font-size="11.00">uploadController</text>
</g>
<!-- \\LinHUniX\\Gfx\\Controller\\uploadController&#45;&gt;\\LinHUniX\\Mcp\\Model\\mcpRemoteApiModelClass -->
<g id="edge10" class="edge"><title>\\LinHUniX\\Gfx\\Controller\\uploadController&#45;&gt;\\LinHUniX\\Mcp\\Model\\mcpRemoteApiModelClass</title>
<path fill="none" stroke="black" d="M567.911,-1447.82C549.946,-1436.04 528.003,-1419.33 513,-1400 474.173,-1349.98 505.275,-1309.97 457,-1269 451.331,-1264.19 444.937,-1260.21 438.156,-1256.92"/>
<polygon fill="none" stroke="black" points="439.269,-1253.59 428.7,-1252.85 436.503,-1260.02 439.269,-1253.59"/>
</g>
<!-- \\LinHUniX\\Mail\\Component\\SMTP -->
<g id="node32" class="node"><title>\\LinHUniX\\Mail\\Component\\SMTP</title>
<polygon fill="none" stroke="black" points="373,-372 319,-372 319,-336 373,-336 373,-372"/>
<text text-anchor="middle" x="346" y="-351.2" font-family="Courier,monospace" font-size="11.00">SMTP</text>
</g>
<!-- \\LinHUniX\\Mail\\Component\\PHPMailer -->
<g id="node33" class="node"><title>\\LinHUniX\\Mail\\Component\\PHPMailer</title>
<polygon fill="none" stroke="black" points="384.5,-318 307.5,-318 307.5,-282 384.5,-282 384.5,-318"/>
<text text-anchor="middle" x="346" y="-297.2" font-family="Courier,monospace" font-size="11.00">PHPMailer</text>
</g>
<!-- \\LinHUniX\\Mail\\Component\\phpmailerException -->
<g id="node34" class="node"><title>\\LinHUniX\\Mail\\Component\\phpmailerException</title>
<polygon fill="none" stroke="black" points="415,-264 277,-264 277,-228 415,-228 415,-264"/>
<text text-anchor="middle" x="346" y="-243.2" font-family="Courier,monospace" font-size="11.00">phpmailerException</text>
</g>
<!-- \\Exception -->
<g id="node40" class="node"><title>\\Exception</title>
<ellipse fill="none" stroke="black" cx="105.5" cy="-18" rx="50.8918" ry="18"/>
<text text-anchor="middle" x="105.5" y="-14.3" font-family="Times,serif" font-size="14.00" fill="gray">\Exception</text>
</g>
<!-- \\LinHUniX\\Mail\\Component\\phpmailerException&#45;&gt;\\Exception -->
<g id="edge15" class="edge"><title>\\LinHUniX\\Mail\\Component\\phpmailerException&#45;&gt;\\Exception</title>
<path fill="none" stroke="black" d="M276.994,-237.321C264.652,-233.286 252.652,-227.442 243,-219 180.003,-163.902 230.058,-104.301 171,-45 166.446,-40.4278 161.003,-36.5902 155.236,-33.3794"/>
<polygon fill="none" stroke="black" points="156.506,-30.1037 145.987,-28.8341 153.418,-36.386 156.506,-30.1037"/>
</g>
<!-- \\LinHUniX\\Mail\\Component\\POP3 -->
<g id="node35" class="node"><title>\\LinHUniX\\Mail\\Component\\POP3</title>
<polygon fill="none" stroke="black" points="373,-210 319,-210 319,-174 373,-174 373,-210"/>
<text text-anchor="middle" x="346" y="-189.2" font-family="Courier,monospace" font-size="11.00">POP3</text>
</g>
<!-- \\LinHUniX\\Mail\\Service\\mailService -->
<g id="node36" class="node"><title>\\LinHUniX\\Mail\\Service\\mailService</title>
<polygon fill="none" stroke="black" points="391.5,-452 300.5,-452 300.5,-416 391.5,-416 391.5,-452"/>
<text text-anchor="middle" x="346" y="-431.2" font-family="Courier,monospace" font-size="11.00">mailService</text>
</g>
<!-- \\LinHUniX\\Mail\\Service\\mailService&#45;&gt;\\LinHUniX\\Mcp\\Model\\mcpBaseModelClass -->
<g id="edge16" class="edge"><title>\\LinHUniX\\Mail\\Service\\mailService&#45;&gt;\\LinHUniX\\Mcp\\Model\\mcpBaseModelClass</title>
<path fill="none" stroke="black" d="M340.128,-452.161C310.125,-563.996 150.53,-1158.88 113.967,-1295.17"/>
<polygon fill="none" stroke="black" points="110.575,-1294.3 111.364,-1304.87 117.336,-1296.12 110.575,-1294.3"/>
</g>
<!-- \\LinHUniX\\ln4\\Controller\\ln4Controller -->
<g id="node37" class="node"><title>\\LinHUniX\\ln4\\Controller\\ln4Controller</title>
<polygon fill="none" stroke="black" points="652,-452 548,-452 548,-416 652,-416 652,-452"/>
<text text-anchor="middle" x="600" y="-431.2" font-family="Courier,monospace" font-size="11.00">ln4Controller</text>
</g>
<!-- \\LinHUniX\\ln4\\Controller\\ln4Controller&#45;&gt;\\LinHUniX\\Mcp\\Model\\mcpRemoteApiModelClass -->
<g id="edge14" class="edge"><title>\\LinHUniX\\ln4\\Controller\\ln4Controller&#45;&gt;\\LinHUniX\\Mcp\\Model\\mcpRemoteApiModelClass</title>
<path fill="none" stroke="black" d="M569.274,-452.228C549.651,-466.02 525.359,-486.855 513,-512 443.873,-652.648 558.534,-1095.62 457,-1215 451.67,-1221.27 445.145,-1226.21 437.956,-1230.08"/>
<polygon fill="none" stroke="black" points="436.138,-1227.07 428.537,-1234.45 439.082,-1233.42 436.138,-1227.07"/>
</g>
<!-- \\mcpAutoload -->
<g id="node38" class="node"><title>\\mcpAutoload</title>
<polygon fill="none" stroke="black" points="645.5,-142 554.5,-142 554.5,-106 645.5,-106 645.5,-142"/>
<text text-anchor="middle" x="600" y="-121.2" font-family="Courier,monospace" font-size="11.00">mcpAutoload</text>
</g>
</g>
</svg>
