<?xml version="1.0" encoding="UTF-8" standalone="no"?>
<!DOCTYPE svg PUBLIC "-//W3C//DTD SVG 1.1//EN"
 "http://www.w3.org/Graphics/SVG/1.1/DTD/svg11.dtd">
<!-- Generated by graphviz version 2.38.0 (20140413.2041)
 -->
<!-- Title: G Pages: 1 -->
<svg width="727pt" height="2102pt"
 viewBox="0.00 0.00 727.00 2102.00" xmlns="http://www.w3.org/2000/svg" xmlns:xlink="http://www.w3.org/1999/xlink">
<g id="graph0" class="graph" transform="scale(1 1) rotate(0) translate(4 2098)">
<title>G</title>
<polygon fill="white" stroke="none" points="-4,4 -4,-2098 723,-2098 723,4 -4,4"/>
<g id="clust1" class="cluster"><title>cluster_Global</title>
<path fill="none" stroke="gray" d="M20,-98C20,-98 699,-98 699,-98 705,-98 711,-104 711,-110 711,-110 711,-2074 711,-2074 711,-2080 705,-2086 699,-2086 699,-2086 20,-2086 20,-2086 14,-2086 8,-2080 8,-2074 8,-2074 8,-110 8,-110 8,-104 14,-98 20,-98"/>
<text text-anchor="middle" x="359.5" y="-2073.2" font-family="Times,serif" font-size="11.00" fill="gray">Global</text>
</g>
<g id="clust2" class="cluster"><title>cluster_\LinHUniX</title>
<path fill="none" stroke="gray" d="M28,-150C28,-150 691,-150 691,-150 697,-150 703,-156 703,-162 703,-162 703,-2046 703,-2046 703,-2052 697,-2058 691,-2058 691,-2058 28,-2058 28,-2058 22,-2058 16,-2052 16,-2046 16,-2046 16,-162 16,-162 16,-156 22,-150 28,-150"/>
<text text-anchor="middle" x="359.5" y="-2045.2" font-family="Times,serif" font-size="11.00" fill="gray">LinHUniX</text>
</g>
<g id="clust3" class="cluster"><title>cluster_\LinHUniX\Mcp</title>
<path fill="none" stroke="gray" d="M36,-516C36,-516 683,-516 683,-516 689,-516 695,-522 695,-528 695,-528 695,-1358 695,-1358 695,-1364 689,-1370 683,-1370 683,-1370 36,-1370 36,-1370 30,-1370 24,-1364 24,-1358 24,-1358 24,-528 24,-528 24,-522 30,-516 36,-516"/>
<text text-anchor="middle" x="359.5" y="-1357.2" font-family="Times,serif" font-size="11.00" fill="gray">Mcp</text>
</g>
<g id="clust4" class="cluster"><title>cluster_\LinHUniX\Mcp\Provider</title>
<path fill="none" stroke="gray" d="M525,-1216C525,-1216 675,-1216 675,-1216 681,-1216 687,-1222 687,-1228 687,-1228 687,-1330 687,-1330 687,-1336 681,-1342 675,-1342 675,-1342 525,-1342 525,-1342 519,-1342 513,-1336 513,-1330 513,-1330 513,-1228 513,-1228 513,-1222 519,-1216 525,-1216"/>
<text text-anchor="middle" x="600" y="-1329.2" font-family="Times,serif" font-size="11.00" fill="gray">Provider</text>
</g>
<g id="clust5" class="cluster"><title>cluster_\LinHUniX\Mcp\Model</title>
<path fill="none" stroke="gray" d="M44,-1054C44,-1054 445,-1054 445,-1054 451,-1054 457,-1060 457,-1066 457,-1066 457,-1330 457,-1330 457,-1336 451,-1342 445,-1342 445,-1342 44,-1342 44,-1342 38,-1342 32,-1336 32,-1330 32,-1330 32,-1066 32,-1066 32,-1060 38,-1054 44,-1054"/>
<text text-anchor="middle" x="244.5" y="-1329.2" font-family="Times,serif" font-size="11.00" fill="gray">Model</text>
</g>
<g id="clust6" class="cluster"><title>cluster_\LinHUniX\Mcp\Component</title>
<path fill="none" stroke="gray" d="M541.5,-758C541.5,-758 658.5,-758 658.5,-758 664.5,-758 670.5,-764 670.5,-770 670.5,-770 670.5,-1196 670.5,-1196 670.5,-1202 664.5,-1208 658.5,-1208 658.5,-1208 541.5,-1208 541.5,-1208 535.5,-1208 529.5,-1202 529.5,-1196 529.5,-1196 529.5,-770 529.5,-770 529.5,-764 535.5,-758 541.5,-758"/>
<text text-anchor="middle" x="600" y="-1195.2" font-family="Times,serif" font-size="11.00" fill="gray">Component</text>
</g>
<g id="clust7" class="cluster"><title>cluster_\LinHUniX\Mcp\Tools</title>
<path fill="none" stroke="gray" d="M555,-570C555,-570 645,-570 645,-570 651,-570 657,-576 657,-582 657,-582 657,-738 657,-738 657,-744 651,-750 645,-750 645,-750 555,-750 555,-750 549,-750 543,-744 543,-738 543,-738 543,-582 543,-582 543,-576 549,-570 555,-570"/>
<text text-anchor="middle" x="600" y="-737.2" font-family="Times,serif" font-size="11.00" fill="gray">Tools</text>
</g>
<g id="clust8" class="cluster"><title>cluster_\LinHUniX\Pdo</title>
<path fill="none" stroke="gray" d="M273,-1708C273,-1708 653,-1708 653,-1708 659,-1708 665,-1714 665,-1720 665,-1720 665,-2018 665,-2018 665,-2024 659,-2030 653,-2030 653,-2030 273,-2030 273,-2030 267,-2030 261,-2024 261,-2018 261,-2018 261,-1720 261,-1720 261,-1714 267,-1708 273,-1708"/>
<text text-anchor="middle" x="463" y="-2017.2" font-family="Times,serif" font-size="11.00" fill="gray">Pdo</text>
</g>
<g id="clust9" class="cluster"><title>cluster_\LinHUniX\Pdo\Service</title>
<path fill="none" stroke="gray" d="M562,-1716C562,-1716 638,-1716 638,-1716 644,-1716 650,-1722 650,-1728 650,-1728 650,-1776 650,-1776 650,-1782 644,-1788 638,-1788 638,-1788 562,-1788 562,-1788 556,-1788 550,-1782 550,-1776 550,-1776 550,-1728 550,-1728 550,-1722 556,-1716 562,-1716"/>
<text text-anchor="middle" x="600" y="-1775.2" font-family="Times,serif" font-size="11.00" fill="gray">Service</text>
</g>
<g id="clust10" class="cluster"><title>cluster_\LinHUniX\Pdo\Driver</title>
<path fill="none" stroke="gray" d="M311.5,-1876C311.5,-1876 645,-1876 645,-1876 651,-1876 657,-1882 657,-1888 657,-1888 657,-1990 657,-1990 657,-1996 651,-2002 645,-2002 645,-2002 311.5,-2002 311.5,-2002 305.5,-2002 299.5,-1996 299.5,-1990 299.5,-1990 299.5,-1888 299.5,-1888 299.5,-1882 305.5,-1876 311.5,-1876"/>
<text text-anchor="middle" x="478.25" y="-1989.2" font-family="Times,serif" font-size="11.00" fill="gray">Driver</text>
</g>
<g id="clust11" class="cluster"><title>cluster_\LinHUniX\Pdo\Model</title>
<path fill="none" stroke="gray" d="M281,-1756C281,-1756 411,-1756 411,-1756 417,-1756 423,-1762 423,-1768 423,-1768 423,-1816 423,-1816 423,-1822 417,-1828 411,-1828 411,-1828 281,-1828 281,-1828 275,-1828 269,-1822 269,-1816 269,-1816 269,-1768 269,-1768 269,-1762 275,-1756 281,-1756"/>
<text text-anchor="middle" x="346" y="-1815.2" font-family="Times,serif" font-size="11.00" fill="gray">Model</text>
</g>
<g id="clust12" class="cluster"><title>cluster_\LinHUniX\Pdo\Query</title>
<path fill="none" stroke="gray" d="M565.5,-1796C565.5,-1796 634.5,-1796 634.5,-1796 640.5,-1796 646.5,-1802 646.5,-1808 646.5,-1808 646.5,-1856 646.5,-1856 646.5,-1862 640.5,-1868 634.5,-1868 634.5,-1868 565.5,-1868 565.5,-1868 559.5,-1868 553.5,-1862 553.5,-1856 553.5,-1856 553.5,-1808 553.5,-1808 553.5,-1802 559.5,-1796 565.5,-1796"/>
<text text-anchor="middle" x="600" y="-1855.2" font-family="Times,serif" font-size="11.00" fill="gray">Query</text>
</g>
<g id="clust13" class="cluster"><title>cluster_\LinHUniX\Gfx</title>
<path fill="none" stroke="gray" d="M533.5,-1378C533.5,-1378 666.5,-1378 666.5,-1378 672.5,-1378 678.5,-1384 678.5,-1390 678.5,-1390 678.5,-1688 678.5,-1688 678.5,-1694 672.5,-1700 666.5,-1700 666.5,-1700 533.5,-1700 533.5,-1700 527.5,-1700 521.5,-1694 521.5,-1688 521.5,-1688 521.5,-1390 521.5,-1390 521.5,-1384 527.5,-1378 533.5,-1378"/>
<text text-anchor="middle" x="600" y="-1687.2" font-family="Times,serif" font-size="11.00" fill="gray">Gfx</text>
</g>
<g id="clust14" class="cluster"><title>cluster_\LinHUniX\Gfx\Service</title>
<path fill="none" stroke="gray" d="M562,-1600C562,-1600 638,-1600 638,-1600 644,-1600 650,-1606 650,-1612 650,-1612 650,-1660 650,-1660 650,-1666 644,-1672 638,-1672 638,-1672 562,-1672 562,-1672 556,-1672 550,-1666 550,-1660 550,-1660 550,-1612 550,-1612 550,-1606 556,-1600 562,-1600"/>
<text text-anchor="middle" x="600" y="-1659.2" font-family="Times,serif" font-size="11.00" fill="gray">Service</text>
</g>
<g id="clust15" class="cluster"><title>cluster_\LinHUniX\Gfx\Component</title>
<path fill="none" stroke="gray" d="M558.5,-1466C558.5,-1466 641.5,-1466 641.5,-1466 647.5,-1466 653.5,-1472 653.5,-1478 653.5,-1478 653.5,-1580 653.5,-1580 653.5,-1586 647.5,-1592 641.5,-1592 641.5,-1592 558.5,-1592 558.5,-1592 552.5,-1592 546.5,-1586 546.5,-1580 546.5,-1580 546.5,-1478 546.5,-1478 546.5,-1472 552.5,-1466 558.5,-1466"/>
<text text-anchor="middle" x="600" y="-1579.2" font-family="Times,serif" font-size="11.00" fill="gray">Component</text>
</g>
<g id="clust16" class="cluster"><title>cluster_\LinHUniX\Gfx\Controller</title>
<path fill="none" stroke="gray" d="M541.5,-1386C541.5,-1386 658.5,-1386 658.5,-1386 664.5,-1386 670.5,-1392 670.5,-1398 670.5,-1398 670.5,-1446 670.5,-1446 670.5,-1452 664.5,-1458 658.5,-1458 658.5,-1458 541.5,-1458 541.5,-1458 535.5,-1458 529.5,-1452 529.5,-1446 529.5,-1446 529.5,-1398 529.5,-1398 529.5,-1392 535.5,-1386 541.5,-1386"/>
<text text-anchor="middle" x="600" y="-1445.2" font-family="Times,serif" font-size="11.00" fill="gray">Controller</text>
</g>
<g id="clust17" class="cluster"><title>cluster_\LinHUniX\Mail</title>
<path fill="none" stroke="gray" d="M273,-158C273,-158 419,-158 419,-158 425,-158 431,-164 431,-170 431,-170 431,-496 431,-496 431,-502 425,-508 419,-508 419,-508 273,-508 273,-508 267,-508 261,-502 261,-496 261,-496 261,-170 261,-170 261,-164 267,-158 273,-158"/>
<text text-anchor="middle" x="346" y="-495.2" font-family="Times,serif" font-size="11.00" fill="gray">Mail</text>
</g>
<g id="clust18" class="cluster"><title>cluster_\LinHUniX\Mail\Component</title>
<path fill="none" stroke="gray" d="M281,-166C281,-166 411,-166 411,-166 417,-166 423,-172 423,-178 423,-178 423,-388 423,-388 423,-394 417,-400 411,-400 411,-400 281,-400 281,-400 275,-400 269,-394 269,-388 269,-388 269,-178 269,-178 269,-172 275,-166 281,-166"/>
<text text-anchor="middle" x="346" y="-387.2" font-family="Times,serif" font-size="11.00" fill="gray">Component</text>
</g>
<g id="clust19" class="cluster"><title>cluster_\LinHUniX\Mail\Service</title>
<path fill="none" stroke="gray" d="M304.5,-408C304.5,-408 387.5,-408 387.5,-408 393.5,-408 399.5,-414 399.5,-420 399.5,-420 399.5,-468 399.5,-468 399.5,-474 393.5,-480 387.5,-480 387.5,-480 304.5,-480 304.5,-480 298.5,-480 292.5,-474 292.5,-468 292.5,-468 292.5,-420 292.5,-420 292.5,-414 298.5,-408 304.5,-408"/>
<text text-anchor="middle" x="346" y="-467.2" font-family="Times,serif" font-size="11.00" fill="gray">Service</text>
</g>
<g id="clust20" class="cluster"><title>cluster_\LinHUniX\ln4</title>
<path fill="none" stroke="gray" d="M544,-400C544,-400 656,-400 656,-400 662,-400 668,-406 668,-412 668,-412 668,-496 668,-496 668,-502 662,-508 656,-508 656,-508 544,-508 544,-508 538,-508 532,-502 532,-496 532,-496 532,-412 532,-412 532,-406 538,-400 544,-400"/>
<text text-anchor="middle" x="600" y="-495.2" font-family="Times,serif" font-size="11.00" fill="gray">ln4</text>
</g>
<g id="clust21" class="cluster"><title>cluster_\LinHUniX\ln4\Controller</title>
<path fill="none" stroke="gray" d="M552,-408C552,-408 648,-408 648,-408 654,-408 660,-414 660,-420 660,-420 660,-468 660,-468 660,-474 654,-480 648,-480 648,-480 552,-480 552,-480 546,-480 540,-474 540,-468 540,-468 540,-420 540,-420 540,-414 546,-408 552,-408"/>
<text text-anchor="middle" x="600" y="-467.2" font-family="Times,serif" font-size="11.00" fill="gray">Controller</text>
</g>
<!-- \\LinHUniX\\Mcp\\Provider\\loggerProviderModel -->
<g id="node1" class="node"><title>\\LinHUniX\\Mcp\\Provider\\loggerProviderModel</title>
<polygon fill="none" stroke="black" points="672.5,-1314 527.5,-1314 527.5,-1278 672.5,-1278 672.5,-1314"/>
<text text-anchor="middle" x="600" y="-1293.2" font-family="Courier,monospace" font-size="11.00">loggerProviderModel</text>
</g>
<!-- \\LinHUniX\\Mcp\\Model\\mcpServiceProviderModelClass -->
<g id="node8" class="node"><title>\\LinHUniX\\Mcp\\Model\\mcpServiceProviderModelClass</title>
<polygon fill="none" stroke="black" points="449,-1314 243,-1314 243,-1278 449,-1278 449,-1314"/>
<text text-anchor="middle" x="346" y="-1293.2" font-family="Courier,monospace" font-size="11.00">mcpServiceProviderModelClass</text>
</g>
<!-- \\LinHUniX\\Mcp\\Provider\\loggerProviderModel&#45;&gt;\\LinHUniX\\Mcp\\Model\\mcpServiceProviderModelClass -->
<g id="edge1" class="edge"><title>\\LinHUniX\\Mcp\\Provider\\loggerProviderModel&#45;&gt;\\LinHUniX\\Mcp\\Model\\mcpServiceProviderModelClass</title>
<path fill="none" stroke="black" stroke-dasharray="1,5" d="M527.461,-1296C506.293,-1296 482.585,-1296 459.49,-1296"/>
<polygon fill="none" stroke="black" points="459.288,-1292.5 449.288,-1296 459.288,-1299.5 459.288,-1292.5"/>
</g>
<!-- \\LinHUniX\\Mcp\\Provider\\settingsProviderModel -->
<g id="node2" class="node"><title>\\LinHUniX\\Mcp\\Provider\\settingsProviderModel</title>
<polygon fill="none" stroke="black" points="679,-1260 521,-1260 521,-1224 679,-1224 679,-1260"/>
<text text-anchor="middle" x="600" y="-1239.2" font-family="Courier,monospace" font-size="11.00">settingsProviderModel</text>
</g>
<!-- \\LinHUniX\\Mcp\\Provider\\settingsProviderModel&#45;&gt;\\LinHUniX\\Mcp\\Model\\mcpServiceProviderModelClass -->
<g id="edge12" class="edge"><title>\\LinHUniX\\Mcp\\Provider\\settingsProviderModel&#45;&gt;\\LinHUniX\\Mcp\\Model\\mcpServiceProviderModelClass</title>
<path fill="none" stroke="black" stroke-dasharray="1,5" d="M520.991,-1258.72C495.741,-1264.13 467.467,-1270.19 441.172,-1275.82"/>
<polygon fill="none" stroke="black" points="440.246,-1272.44 431.202,-1277.96 441.713,-1279.28 440.246,-1272.44"/>
</g>
<!-- \\LinHUniX\\Mcp\\Model\\mcpRemoteObjectModelClass -->
<g id="node3" class="node"><title>\\LinHUniX\\Mcp\\Model\\mcpRemoteObjectModelClass</title>
<polygon fill="none" stroke="black" points="438.5,-1260 253.5,-1260 253.5,-1224 438.5,-1224 438.5,-1260"/>
<text text-anchor="middle" x="346" y="-1239.2" font-family="Courier,monospace" font-size="11.00">mcpRemoteObjectModelClass</text>
</g>
<!-- \\LinHUniX\\Mcp\\Model\\mcpBaseModelClass -->
<g id="node4" class="node"><title>\\LinHUniX\\Mcp\\Model\\mcpBaseModelClass</title>
<polygon fill="none" stroke="black" points="171,-1287 40,-1287 40,-1251 171,-1251 171,-1287"/>
<text text-anchor="middle" x="105.5" y="-1266.2" font-family="Courier,monospace" font-size="11.00">mcpBaseModelClass</text>
</g>
<!-- \\LinHUniX\\Mcp\\Model\\mcpRemoteObjectModelClass&#45;&gt;\\LinHUniX\\Mcp\\Model\\mcpBaseModelClass -->
<g id="edge2" class="edge"><title>\\LinHUniX\\Mcp\\Model\\mcpRemoteObjectModelClass&#45;&gt;\\LinHUniX\\Mcp\\Model\\mcpBaseModelClass</title>
<path fill="none" stroke="black" d="M253.472,-1252.36C229.556,-1255.07 204.065,-1257.95 181.143,-1260.55"/>
<polygon fill="none" stroke="black" points="180.692,-1257.08 171.15,-1261.68 181.48,-1264.03 180.692,-1257.08"/>
</g>
<!-- \\LinHUniX\\Mcp\\Model\\mcpConfigArrayModelClass -->
<g id="node5" class="node"><title>\\LinHUniX\\Mcp\\Model\\mcpConfigArrayModelClass</title>
<polygon fill="none" stroke="black" points="435.5,-1098 256.5,-1098 256.5,-1062 435.5,-1062 435.5,-1098"/>
<text text-anchor="middle" x="346" y="-1077.2" font-family="Courier,monospace" font-size="11.00">mcpConfigArrayModelClass</text>
</g>
<!-- \\ArrayAccess -->
<g id="node38" class="node"><title>\\ArrayAccess</title>
<ellipse fill="none" stroke="black" cx="105.5" cy="-72" rx="61.99" ry="18"/>
<text text-anchor="middle" x="105.5" y="-68.3" font-family="Times,serif" font-size="14.00" fill="gray">\ArrayAccess</text>
</g>
<!-- \\LinHUniX\\Mcp\\Model\\mcpConfigArrayModelClass&#45;&gt;\\ArrayAccess -->
<g id="edge4" class="edge"><title>\\LinHUniX\\Mcp\\Model\\mcpConfigArrayModelClass&#45;&gt;\\ArrayAccess</title>
<path fill="none" stroke="black" stroke-dasharray="1,5" d="M340.657,-1061.64C311.862,-939.946 148.561,-249.768 113.238,-100.476"/>
<polygon fill="none" stroke="black" points="116.539,-99.2264 110.83,-90.301 109.727,-100.838 116.539,-99.2264"/>
</g>
<!-- \\LinHUniX\\Mcp\\Model\\mcpRemoteApiModelClass -->
<g id="node6" class="node"><title>\\LinHUniX\\Mcp\\Model\\mcpRemoteApiModelClass</title>
<polygon fill="none" stroke="black" points="428.5,-1206 263.5,-1206 263.5,-1170 428.5,-1170 428.5,-1206"/>
<text text-anchor="middle" x="346" y="-1185.2" font-family="Courier,monospace" font-size="11.00">mcpRemoteApiModelClass</text>
</g>
<!-- \\LinHUniX\\Mcp\\Model\\mcpRemoteApiModelClass&#45;&gt;\\LinHUniX\\Mcp\\Model\\mcpBaseModelClass -->
<g id="edge11" class="edge"><title>\\LinHUniX\\Mcp\\Model\\mcpRemoteApiModelClass&#45;&gt;\\LinHUniX\\Mcp\\Model\\mcpBaseModelClass</title>
<path fill="none" stroke="black" d="M272.527,-1206.05C262.552,-1208.87 252.484,-1211.88 243,-1215 214.449,-1224.39 183.235,-1236.59 157.871,-1247.02"/>
<polygon fill="none" stroke="black" points="156.354,-1243.86 148.454,-1250.92 159.032,-1250.32 156.354,-1243.86"/>
</g>
<!-- \\LinHUniX\\Mcp\\Model\\mcpDebugModelClass -->
<g id="node7" class="node"><title>\\LinHUniX\\Mcp\\Model\\mcpDebugModelClass</title>
<polygon fill="none" stroke="black" points="415,-1152 277,-1152 277,-1116 415,-1116 415,-1152"/>
<text text-anchor="middle" x="346" y="-1131.2" font-family="Courier,monospace" font-size="11.00">mcpDebugModelClass</text>
</g>
<!-- \\LinHUniX\\Mcp\\Component\\mcpDebugClass -->
<g id="node9" class="node"><title>\\LinHUniX\\Mcp\\Component\\mcpDebugClass</title>
<polygon fill="none" stroke="black" points="652,-1180 548,-1180 548,-1144 652,-1144 652,-1180"/>
<text text-anchor="middle" x="600" y="-1159.2" font-family="Courier,monospace" font-size="11.00">mcpDebugClass</text>
</g>
<!-- \\LinHUniX\\Mcp\\Component\\mcpMenuClass -->
<g id="node10" class="node"><title>\\LinHUniX\\Mcp\\Component\\mcpMenuClass</title>
<polygon fill="none" stroke="black" points="649,-1126 551,-1126 551,-1090 649,-1090 649,-1126"/>
<text text-anchor="middle" x="600" y="-1105.2" font-family="Courier,monospace" font-size="11.00">mcpMenuClass</text>
</g>
<!-- \\LinHUniX\\Mcp\\Component\\mcpMailClass -->
<g id="node11" class="node"><title>\\LinHUniX\\Mcp\\Component\\mcpMailClass</title>
<polygon fill="none" stroke="black" points="649,-1072 551,-1072 551,-1036 649,-1036 649,-1072"/>
<text text-anchor="middle" x="600" y="-1051.2" font-family="Courier,monospace" font-size="11.00">mcpMailClass</text>
</g>
<!-- \\LinHUniX\\Mcp\\Component\\mcpToolsClass -->
<g id="node12" class="node"><title>\\LinHUniX\\Mcp\\Component\\mcpToolsClass</title>
<polygon fill="none" stroke="black" points="652,-1018 548,-1018 548,-982 652,-982 652,-1018"/>
<text text-anchor="middle" x="600" y="-997.2" font-family="Courier,monospace" font-size="11.00">mcpToolsClass</text>
</g>
<!-- \\LinHUniX\\Mcp\\Component\\mcpTemplateClass -->
<g id="node13" class="node"><title>\\LinHUniX\\Mcp\\Component\\mcpTemplateClass</title>
<polygon fill="none" stroke="black" points="662.5,-964 537.5,-964 537.5,-928 662.5,-928 662.5,-964"/>
<text text-anchor="middle" x="600" y="-943.2" font-family="Courier,monospace" font-size="11.00">mcpTemplateClass</text>
</g>
<!-- \\LinHUniX\\Mcp\\Component\\mcpCoreClass -->
<g id="node14" class="node"><title>\\LinHUniX\\Mcp\\Component\\mcpCoreClass</title>
<polygon fill="none" stroke="black" points="649,-910 551,-910 551,-874 649,-874 649,-910"/>
<text text-anchor="middle" x="600" y="-889.2" font-family="Courier,monospace" font-size="11.00">mcpCoreClass</text>
</g>
<!-- \\LinHUniX\\Mcp\\Component\\mcpLanguageClass -->
<g id="node15" class="node"><title>\\LinHUniX\\Mcp\\Component\\mcpLanguageClass</title>
<polygon fill="none" stroke="black" points="662.5,-856 537.5,-856 537.5,-820 662.5,-820 662.5,-856"/>
<text text-anchor="middle" x="600" y="-835.2" font-family="Courier,monospace" font-size="11.00">mcpLanguageClass</text>
</g>
<!-- \\LinHUniX\\Mcp\\Component\\mcpProxyClass -->
<g id="node16" class="node"><title>\\LinHUniX\\Mcp\\Component\\mcpProxyClass</title>
<polygon fill="none" stroke="black" points="652,-802 548,-802 548,-766 652,-766 652,-802"/>
<text text-anchor="middle" x="600" y="-781.2" font-family="Courier,monospace" font-size="11.00">mcpProxyClass</text>
</g>
<!-- \\LinHUniX\\Mcp\\Tools\\pharizeShell -->
<g id="node17" class="node"><title>\\LinHUniX\\Mcp\\Tools\\pharizeShell</title>
<polygon fill="none" stroke="black" points="649,-722 551,-722 551,-686 649,-686 649,-722"/>
<text text-anchor="middle" x="600" y="-701.2" font-family="Courier,monospace" font-size="11.00">pharizeShell</text>
</g>
<!-- \\LinHUniX\\Mcp\\Tools\\browserData -->
<g id="node18" class="node"><title>\\LinHUniX\\Mcp\\Tools\\browserData</title>
<polygon fill="none" stroke="black" points="645.5,-668 554.5,-668 554.5,-632 645.5,-632 645.5,-668"/>
<text text-anchor="middle" x="600" y="-647.2" font-family="Courier,monospace" font-size="11.00">browserData</text>
</g>
<!-- \\LinHUniX\\Mcp\\Tools\\pharizeBase -->
<g id="node19" class="node"><title>\\LinHUniX\\Mcp\\Tools\\pharizeBase</title>
<polygon fill="none" stroke="black" points="645.5,-614 554.5,-614 554.5,-578 645.5,-578 645.5,-614"/>
<text text-anchor="middle" x="600" y="-593.2" font-family="Courier,monospace" font-size="11.00">pharizeBase</text>
</g>
<!-- \\LinHUniX\\Mcp\\masterControlProgram -->
<g id="node20" class="node"><title>\\LinHUniX\\Mcp\\masterControlProgram</title>
<polygon fill="none" stroke="black" points="676,-560 524,-560 524,-524 676,-524 676,-560"/>
<text text-anchor="middle" x="600" y="-539.2" font-family="Courier,monospace" font-size="11.00">masterControlProgram</text>
</g>
<!-- \\LinHUniX\\Pdo\\Service\\pdoService -->
<g id="node21" class="node"><title>\\LinHUniX\\Pdo\\Service\\pdoService</title>
<polygon fill="none" stroke="black" points="642,-1760 558,-1760 558,-1724 642,-1724 642,-1760"/>
<text text-anchor="middle" x="600" y="-1739.2" font-family="Courier,monospace" font-size="11.00">pdoService</text>
</g>
<!-- \\LinHUniX\\Pdo\\Service\\pdoService&#45;&gt;\\LinHUniX\\Mcp\\Model\\mcpBaseModelClass -->
<g id="edge3" class="edge"><title>\\LinHUniX\\Pdo\\Service\\pdoService&#45;&gt;\\LinHUniX\\Mcp\\Model\\mcpBaseModelClass</title>
<path fill="none" stroke="black" d="M557.551,-1735.31C505.346,-1725.5 414.337,-1703.66 347,-1662"/>
</g>
<!-- \\LinHUniX\\Pdo\\Driver\\pdoDriver -->
<g id="node22" class="node"><title>\\LinHUniX\\Pdo\\Driver\\pdoDriver</title>
<polygon fill="none" stroke="black" points="384.5,-1920 307.5,-1920 307.5,-1884 384.5,-1884 384.5,-1920"/>
<text text-anchor="middle" x="346" y="-1899.2" font-family="Courier,monospace" font-size="11.00">pdoDriver</text>
</g>
<!-- \\LinHUniX\\Pdo\\Driver\\pdoDriver&#45;&gt;\\LinHUniX\\Mcp\\Model\\mcpBaseModelClass -->
<g id="edge6" class="edge"><title>\\LinHUniX\\Pdo\\Driver\\pdoDriver&#45;&gt;\\LinHUniX\\Mcp\\Model\\mcpBaseModelClass</title>
<path fill="none" stroke="black" d="M307.466,-1884.93C285.506,-1873.09 259.031,-1855.25 243,-1832 121.875,-1656.31 107.764,-1385.11 106.482,-1297.4"/>
<polygon fill="none" stroke="black" points="109.98,-1297.14 106.381,-1287.18 102.98,-1297.21 109.98,-1297.14"/>
</g>
<!-- \\LinHUniX\\Pdo\\Driver\\sqliteDriver -->
<g id="node23" class="node"><title>\\LinHUniX\\Pdo\\Driver\\sqliteDriver</title>
<polygon fill="none" stroke="black" points="649,-1974 551,-1974 551,-1938 649,-1938 649,-1974"/>
<text text-anchor="middle" x="600" y="-1953.2" font-family="Courier,monospace" font-size="11.00">sqliteDriver</text>
</g>
<!-- \\LinHUniX\\Pdo\\Driver\\sqliteDriver&#45;&gt;\\LinHUniX\\Pdo\\Driver\\pdoDriver -->
<g id="edge8" class="edge"><title>\\LinHUniX\\Pdo\\Driver\\sqliteDriver&#45;&gt;\\LinHUniX\\Pdo\\Driver\\pdoDriver</title>
<path fill="none" stroke="black" d="M550.71,-1945.65C505.896,-1936.05 439.564,-1921.84 394.881,-1912.26"/>
<polygon fill="none" stroke="black" points="395.365,-1908.78 384.854,-1910.11 393.898,-1915.63 395.365,-1908.78"/>
</g>
<!-- \\LinHUniX\\Pdo\\Driver\\mysqlDriver -->
<g id="node24" class="node"><title>\\LinHUniX\\Pdo\\Driver\\mysqlDriver</title>
<polygon fill="none" stroke="black" points="645.5,-1920 554.5,-1920 554.5,-1884 645.5,-1884 645.5,-1920"/>
<text text-anchor="middle" x="600" y="-1899.2" font-family="Courier,monospace" font-size="11.00">mysqlDriver</text>
</g>
<!-- \\LinHUniX\\Pdo\\Driver\\mysqlDriver&#45;&gt;\\LinHUniX\\Pdo\\Driver\\pdoDriver -->
<g id="edge9" class="edge"><title>\\LinHUniX\\Pdo\\Driver\\mysqlDriver&#45;&gt;\\LinHUniX\\Pdo\\Driver\\pdoDriver</title>
<path fill="none" stroke="black" d="M554.238,-1902C509.494,-1902 440.923,-1902 395.053,-1902"/>
<polygon fill="none" stroke="black" points="394.769,-1898.5 384.769,-1902 394.769,-1905.5 394.769,-1898.5"/>
</g>
<!-- \\LinHUniX\\Pdo\\Model\\mcpQueryModelClass -->
<g id="node25" class="node"><title>\\LinHUniX\\Pdo\\Model\\mcpQueryModelClass</title>
<polygon fill="none" stroke="black" points="415,-1800 277,-1800 277,-1764 415,-1764 415,-1800"/>
<text text-anchor="middle" x="346" y="-1779.2" font-family="Courier,monospace" font-size="11.00">mcpQueryModelClass</text>
</g>
<!-- \\LinHUniX\\Pdo\\Model\\mcpQueryModelClass&#45;&gt;\\LinHUniX\\Mcp\\Model\\mcpBaseModelClass -->
<g id="edge7" class="edge"><title>\\LinHUniX\\Pdo\\Model\\mcpQueryModelClass&#45;&gt;\\LinHUniX\\Mcp\\Model\\mcpBaseModelClass</title>
<path fill="none" stroke="black" d="M324.728,-1763.93C302.018,-1742.71 265.452,-1705.5 243,-1667 168.42,-1539.12 126.378,-1364.29 112.095,-1296.98"/>
<polygon fill="none" stroke="black" points="115.508,-1296.2 110.041,-1287.13 108.655,-1297.63 115.508,-1296.2"/>
</g>
<!-- \\LinHUniX\\Pdo\\Query\\JsonQuery -->
<g id="node26" class="node"><title>\\LinHUniX\\Pdo\\Query\\JsonQuery</title>
<polygon fill="none" stroke="black" points="638.5,-1840 561.5,-1840 561.5,-1804 638.5,-1804 638.5,-1840"/>
<text text-anchor="middle" x="600" y="-1819.2" font-family="Courier,monospace" font-size="11.00">JsonQuery</text>
</g>
<!-- \\LinHUniX\\Pdo\\Query\\JsonQuery&#45;&gt;\\LinHUniX\\Pdo\\Model\\mcpQueryModelClass -->
<g id="edge10" class="edge"><title>\\LinHUniX\\Pdo\\Query\\JsonQuery&#45;&gt;\\LinHUniX\\Pdo\\Model\\mcpQueryModelClass</title>
<path fill="none" stroke="black" d="M561.273,-1816.01C525.467,-1810.33 470.549,-1801.61 425.277,-1794.42"/>
<polygon fill="none" stroke="black" points="425.608,-1790.93 415.183,-1792.82 424.51,-1797.85 425.608,-1790.93"/>
</g>
<!-- \\LinHUniX\\Gfx\\Service\\gfxService -->
<g id="node27" class="node"><title>\\LinHUniX\\Gfx\\Service\\gfxService</title>
<polygon fill="none" stroke="black" points="642,-1644 558,-1644 558,-1608 642,-1608 642,-1644"/>
<text text-anchor="middle" x="600" y="-1623.2" font-family="Courier,monospace" font-size="11.00">gfxService</text>
</g>
<!-- \\LinHUniX\\Gfx\\Service\\gfxService&#45;&gt;\\LinHUniX\\Mcp\\Model\\mcpBaseModelClass -->
<g id="edge5" class="edge"><title>\\LinHUniX\\Gfx\\Service\\gfxService&#45;&gt;\\LinHUniX\\Mcp\\Model\\mcpBaseModelClass</title>
<path fill="none" stroke="black" d="M564.727,-1644.09C513.373,-1668.47 415.214,-1704.2 347,-1662"/>
<path fill="none" stroke="black" d="M345,-1662C204.621,-1575.16 135.395,-1372.11 113.98,-1297.32"/>
<polygon fill="none" stroke="black" points="117.227,-1295.93 111.165,-1287.24 110.485,-1297.81 117.227,-1295.93"/>
</g>
<!-- \\LinHUniX\\Gfx\\Component\\zebra_image -->
<g id="node28" class="node"><title>\\LinHUniX\\Gfx\\Component\\zebra_image</title>
<polygon fill="none" stroke="black" points="645.5,-1564 554.5,-1564 554.5,-1528 645.5,-1528 645.5,-1564"/>
<text text-anchor="middle" x="600" y="-1543.2" font-family="Courier,monospace" font-size="11.00">zebra_image</text>
</g>
<!-- \\LinHUniX\\Gfx\\Component\\html2text -->
<g id="node29" class="node"><title>\\LinHUniX\\Gfx\\Component\\html2text</title>
<polygon fill="none" stroke="black" points="638.5,-1510 561.5,-1510 561.5,-1474 638.5,-1474 638.5,-1510"/>
<text text-anchor="middle" x="600" y="-1489.2" font-family="Courier,monospace" font-size="11.00">html2text</text>
</g>
<!-- \\LinHUniX\\Gfx\\Controller\\uploadController -->
<g id="node30" class="node"><title>\\LinHUniX\\Gfx\\Controller\\uploadController</title>
<polygon fill="none" stroke="black" points="662.5,-1430 537.5,-1430 537.5,-1394 662.5,-1394 662.5,-1430"/>
<text text-anchor="middle" x="600" y="-1409.2" font-family="Courier,monospace" font-size="11.00">uploadController</text>
</g>
<!-- \\LinHUniX\\Gfx\\Controller\\uploadController&#45;&gt;\\LinHUniX\\Mcp\\Model\\mcpRemoteApiModelClass -->
<g id="edge16" class="edge"><title>\\LinHUniX\\Gfx\\Controller\\uploadController&#45;&gt;\\LinHUniX\\Mcp\\Model\\mcpRemoteApiModelClass</title>
<path fill="none" stroke="black" d="M567.911,-1393.82C549.946,-1382.04 528.003,-1365.33 513,-1346 474.173,-1295.98 505.275,-1255.97 457,-1215 451.331,-1210.19 444.937,-1206.21 438.156,-1202.92"/>
<polygon fill="none" stroke="black" points="439.269,-1199.59 428.7,-1198.85 436.503,-1206.02 439.269,-1199.59"/>
</g>
<!-- \\LinHUniX\\Mail\\Component\\SMTP -->
<g id="node31" class="node"><title>\\LinHUniX\\Mail\\Component\\SMTP</title>
<polygon fill="none" stroke="black" points="373,-372 319,-372 319,-336 373,-336 373,-372"/>
<text text-anchor="middle" x="346" y="-351.2" font-family="Courier,monospace" font-size="11.00">SMTP</text>
</g>
<!-- \\LinHUniX\\Mail\\Component\\PHPMailer -->
<g id="node32" class="node"><title>\\LinHUniX\\Mail\\Component\\PHPMailer</title>
<polygon fill="none" stroke="black" points="384.5,-318 307.5,-318 307.5,-282 384.5,-282 384.5,-318"/>
<text text-anchor="middle" x="346" y="-297.2" font-family="Courier,monospace" font-size="11.00">PHPMailer</text>
</g>
<!-- \\LinHUniX\\Mail\\Component\\phpmailerException -->
<g id="node33" class="node"><title>\\LinHUniX\\Mail\\Component\\phpmailerException</title>
<polygon fill="none" stroke="black" points="415,-264 277,-264 277,-228 415,-228 415,-264"/>
<text text-anchor="middle" x="346" y="-243.2" font-family="Courier,monospace" font-size="11.00">phpmailerException</text>
</g>
<!-- \\Exception -->
<g id="node39" class="node"><title>\\Exception</title>
<ellipse fill="none" stroke="black" cx="105.5" cy="-18" rx="50.8918" ry="18"/>
<text text-anchor="middle" x="105.5" y="-14.3" font-family="Times,serif" font-size="14.00" fill="gray">\Exception</text>
</g>
<!-- \\LinHUniX\\Mail\\Component\\phpmailerException&#45;&gt;\\Exception -->
<g id="edge14" class="edge"><title>\\LinHUniX\\Mail\\Component\\phpmailerException&#45;&gt;\\Exception</title>
<path fill="none" stroke="black" d="M276.994,-237.321C264.652,-233.286 252.652,-227.442 243,-219 180.003,-163.902 230.058,-104.301 171,-45 166.446,-40.4278 161.003,-36.5902 155.236,-33.3794"/>
<polygon fill="none" stroke="black" points="156.506,-30.1037 145.987,-28.8341 153.418,-36.386 156.506,-30.1037"/>
</g>
<!-- \\LinHUniX\\Mail\\Component\\POP3 -->
<g id="node34" class="node"><title>\\LinHUniX\\Mail\\Component\\POP3</title>
<polygon fill="none" stroke="black" points="373,-210 319,-210 319,-174 373,-174 373,-210"/>
<text text-anchor="middle" x="346" y="-189.2" font-family="Courier,monospace" font-size="11.00">POP3</text>
</g>
<!-- \\LinHUniX\\Mail\\Service\\mailService -->
<g id="node35" class="node"><title>\\LinHUniX\\Mail\\Service\\mailService</title>
<polygon fill="none" stroke="black" points="391.5,-452 300.5,-452 300.5,-416 391.5,-416 391.5,-452"/>
<text text-anchor="middle" x="346" y="-431.2" font-family="Courier,monospace" font-size="11.00">mailService</text>
</g>
<!-- \\LinHUniX\\Mail\\Service\\mailService&#45;&gt;\\LinHUniX\\Mcp\\Model\\mcpBaseModelClass -->
<g id="edge15" class="edge"><title>\\LinHUniX\\Mail\\Service\\mailService&#45;&gt;\\LinHUniX\\Mcp\\Model\\mcpBaseModelClass</title>
<path fill="none" stroke="black" d="M339.797,-452.217C309.121,-559.613 151.943,-1109.9 114.51,-1240.96"/>
<polygon fill="none" stroke="black" points="111.118,-1240.09 111.737,-1250.67 117.849,-1242.01 111.118,-1240.09"/>
</g>
<!-- \\LinHUniX\\ln4\\Controller\\ln4Controller -->
<g id="node36" class="node"><title>\\LinHUniX\\ln4\\Controller\\ln4Controller</title>
<polygon fill="none" stroke="black" points="652,-452 548,-452 548,-416 652,-416 652,-452"/>
<text text-anchor="middle" x="600" y="-431.2" font-family="Courier,monospace" font-size="11.00">ln4Controller</text>
</g>
<!-- \\LinHUniX\\ln4\\Controller\\ln4Controller&#45;&gt;\\LinHUniX\\Mcp\\Model\\mcpRemoteApiModelClass -->
<g id="edge13" class="edge"><title>\\LinHUniX\\ln4\\Controller\\ln4Controller&#45;&gt;\\LinHUniX\\Mcp\\Model\\mcpRemoteApiModelClass</title>
<path fill="none" stroke="black" d="M569.325,-452.254C549.726,-466.058 525.441,-486.896 513,-512 448.721,-641.704 551.148,-1051.04 457,-1161 451.694,-1167.2 445.22,-1172.09 438.094,-1175.95"/>
<polygon fill="none" stroke="black" points="436.347,-1172.9 428.76,-1180.3 439.303,-1179.25 436.347,-1172.9"/>
</g>
<!-- \\mcpAutoload -->
<g id="node37" class="node"><title>\\mcpAutoload</title>
<polygon fill="none" stroke="black" points="645.5,-142 554.5,-142 554.5,-106 645.5,-106 645.5,-142"/>
<text text-anchor="middle" x="600" y="-121.2" font-family="Courier,monospace" font-size="11.00">mcpAutoload</text>
</g>
</g>
</svg>
