<?xml version="1.0" encoding="UTF-8" standalone="no"?>
<!DOCTYPE svg PUBLIC "-//W3C//DTD SVG 1.1//EN"
 "http://www.w3.org/Graphics/SVG/1.1/DTD/svg11.dtd">
<!-- Generated by graphviz version 2.40.1 (20161225.0304)
 -->
<!-- Title: G Pages: 1 -->
<svg width="727pt" height="1672pt"
 viewBox="0.00 0.00 727.00 1672.00" xmlns="http://www.w3.org/2000/svg" xmlns:xlink="http://www.w3.org/1999/xlink">
<g id="graph0" class="graph" transform="scale(1 1) rotate(0) translate(4 1668)">
<title>G</title>
<polygon fill="#ffffff" stroke="transparent" points="-4,4 -4,-1668 723,-1668 723,4 -4,4"/>
<g id="clust1" class="cluster">
<title>cluster_Global</title>
<path fill="none" stroke="#c0c0c0" d="M20,-98C20,-98 699,-98 699,-98 705,-98 711,-104 711,-110 711,-110 711,-1644 711,-1644 711,-1650 705,-1656 699,-1656 699,-1656 20,-1656 20,-1656 14,-1656 8,-1650 8,-1644 8,-1644 8,-110 8,-110 8,-104 14,-98 20,-98"/>
<text text-anchor="middle" x="359.5" y="-1643.2" font-family="Times,serif" font-size="11.00" fill="#c0c0c0">Global</text>
</g>
<g id="clust2" class="cluster">
<title>cluster_\LinHUniX</title>
<path fill="none" stroke="#c0c0c0" d="M28,-204C28,-204 691,-204 691,-204 697,-204 703,-210 703,-216 703,-216 703,-1616 703,-1616 703,-1622 697,-1628 691,-1628 691,-1628 28,-1628 28,-1628 22,-1628 16,-1622 16,-1616 16,-1616 16,-216 16,-216 16,-210 22,-204 28,-204"/>
<text text-anchor="middle" x="359.5" y="-1615.2" font-family="Times,serif" font-size="11.00" fill="#c0c0c0">LinHUniX</text>
</g>
<g id="clust3" class="cluster">
<title>cluster_\LinHUniX\Mcp</title>
<path fill="none" stroke="#c0c0c0" d="M36,-570C36,-570 683,-570 683,-570 689,-570 695,-576 695,-582 695,-582 695,-1196 695,-1196 695,-1202 689,-1208 683,-1208 683,-1208 36,-1208 36,-1208 30,-1208 24,-1202 24,-1196 24,-1196 24,-582 24,-582 24,-576 30,-570 36,-570"/>
<text text-anchor="middle" x="359.5" y="-1195.2" font-family="Times,serif" font-size="11.00" fill="#c0c0c0">Mcp</text>
</g>
<g id="clust4" class="cluster">
<title>cluster_\LinHUniX\Mcp\Model</title>
<path fill="none" stroke="#c0c0c0" d="M44,-812C44,-812 445,-812 445,-812 451,-812 457,-818 457,-824 457,-824 457,-1088 457,-1088 457,-1094 451,-1100 445,-1100 445,-1100 44,-1100 44,-1100 38,-1100 32,-1094 32,-1088 32,-1088 32,-824 32,-824 32,-818 38,-812 44,-812"/>
<text text-anchor="middle" x="244.5" y="-1087.2" font-family="Times,serif" font-size="11.00" fill="#c0c0c0">Model</text>
</g>
<g id="clust5" class="cluster">
<title>cluster_\LinHUniX\Mcp\Component</title>
<path fill="none" stroke="#c0c0c0" d="M552,-892C552,-892 648,-892 648,-892 654,-892 660,-898 660,-904 660,-904 660,-1168 660,-1168 660,-1174 654,-1180 648,-1180 648,-1180 552,-1180 552,-1180 546,-1180 540,-1174 540,-1168 540,-1168 540,-904 540,-904 540,-898 546,-892 552,-892"/>
<text text-anchor="middle" x="600" y="-1167.2" font-family="Times,serif" font-size="11.00" fill="#c0c0c0">Component</text>
</g>
<g id="clust6" class="cluster">
<title>cluster_\LinHUniX\Mcp\Provider</title>
<path fill="none" stroke="#c0c0c0" d="M525,-758C525,-758 675,-758 675,-758 681,-758 687,-764 687,-770 687,-770 687,-872 687,-872 687,-878 681,-884 675,-884 675,-884 525,-884 525,-884 519,-884 513,-878 513,-872 513,-872 513,-770 513,-770 513,-764 519,-758 525,-758"/>
<text text-anchor="middle" x="600" y="-871.2" font-family="Times,serif" font-size="11.00" fill="#c0c0c0">Provider</text>
</g>
<g id="clust7" class="cluster">
<title>cluster_\LinHUniX\Mcp\Tools</title>
<path fill="none" stroke="#c0c0c0" d="M555,-624C555,-624 645,-624 645,-624 651,-624 657,-630 657,-636 657,-636 657,-738 657,-738 657,-744 651,-750 645,-750 645,-750 555,-750 555,-750 549,-750 543,-744 543,-738 543,-738 543,-636 543,-636 543,-630 549,-624 555,-624"/>
<text text-anchor="middle" x="600" y="-737.2" font-family="Times,serif" font-size="11.00" fill="#c0c0c0">Tools</text>
</g>
<g id="clust8" class="cluster">
<title>cluster_\LinHUniX\Mail</title>
<path fill="none" stroke="#c0c0c0" d="M273,-212C273,-212 419,-212 419,-212 425,-212 431,-218 431,-224 431,-224 431,-550 431,-550 431,-556 425,-562 419,-562 419,-562 273,-562 273,-562 267,-562 261,-556 261,-550 261,-550 261,-224 261,-224 261,-218 267,-212 273,-212"/>
<text text-anchor="middle" x="346" y="-549.2" font-family="Times,serif" font-size="11.00" fill="#c0c0c0">Mail</text>
</g>
<g id="clust9" class="cluster">
<title>cluster_\LinHUniX\Mail\Service</title>
<path fill="none" stroke="#c0c0c0" d="M304.5,-462C304.5,-462 387.5,-462 387.5,-462 393.5,-462 399.5,-468 399.5,-474 399.5,-474 399.5,-522 399.5,-522 399.5,-528 393.5,-534 387.5,-534 387.5,-534 304.5,-534 304.5,-534 298.5,-534 292.5,-528 292.5,-522 292.5,-522 292.5,-474 292.5,-474 292.5,-468 298.5,-462 304.5,-462"/>
<text text-anchor="middle" x="346" y="-521.2" font-family="Times,serif" font-size="11.00" fill="#c0c0c0">Service</text>
</g>
<g id="clust10" class="cluster">
<title>cluster_\LinHUniX\Mail\Component</title>
<path fill="none" stroke="#c0c0c0" d="M281,-220C281,-220 411,-220 411,-220 417,-220 423,-226 423,-232 423,-232 423,-442 423,-442 423,-448 417,-454 411,-454 411,-454 281,-454 281,-454 275,-454 269,-448 269,-442 269,-442 269,-232 269,-232 269,-226 275,-220 281,-220"/>
<text text-anchor="middle" x="346" y="-441.2" font-family="Times,serif" font-size="11.00" fill="#c0c0c0">Component</text>
</g>
<g id="clust11" class="cluster">
<title>cluster_\LinHUniX\Pdo</title>
<path fill="none" stroke="#c0c0c0" d="M273,-1332C273,-1332 649.5,-1332 649.5,-1332 655.5,-1332 661.5,-1338 661.5,-1344 661.5,-1344 661.5,-1588 661.5,-1588 661.5,-1594 655.5,-1600 649.5,-1600 649.5,-1600 273,-1600 273,-1600 267,-1600 261,-1594 261,-1588 261,-1588 261,-1344 261,-1344 261,-1338 267,-1332 273,-1332"/>
<text text-anchor="middle" x="461.25" y="-1587.2" font-family="Times,serif" font-size="11.00" fill="#c0c0c0">Pdo</text>
</g>
<g id="clust12" class="cluster">
<title>cluster_\LinHUniX\Pdo\Service</title>
<path fill="none" stroke="#c0c0c0" d="M562,-1420C562,-1420 638,-1420 638,-1420 644,-1420 650,-1426 650,-1432 650,-1432 650,-1480 650,-1480 650,-1486 644,-1492 638,-1492 638,-1492 562,-1492 562,-1492 556,-1492 550,-1486 550,-1480 550,-1480 550,-1432 550,-1432 550,-1426 556,-1420 562,-1420"/>
<text text-anchor="middle" x="600" y="-1479.2" font-family="Times,serif" font-size="11.00" fill="#c0c0c0">Service</text>
</g>
<g id="clust13" class="cluster">
<title>cluster_\LinHUniX\Pdo\Model</title>
<path fill="none" stroke="#c0c0c0" d="M281,-1340C281,-1340 411,-1340 411,-1340 417,-1340 423,-1346 423,-1352 423,-1352 423,-1400 423,-1400 423,-1406 417,-1412 411,-1412 411,-1412 281,-1412 281,-1412 275,-1412 269,-1406 269,-1400 269,-1400 269,-1352 269,-1352 269,-1346 275,-1340 281,-1340"/>
<text text-anchor="middle" x="346" y="-1399.2" font-family="Times,serif" font-size="11.00" fill="#c0c0c0">Model</text>
</g>
<g id="clust14" class="cluster">
<title>cluster_\LinHUniX\Pdo\Driver</title>
<path fill="none" stroke="#c0c0c0" d="M558.5,-1500C558.5,-1500 641.5,-1500 641.5,-1500 647.5,-1500 653.5,-1506 653.5,-1512 653.5,-1512 653.5,-1560 653.5,-1560 653.5,-1566 647.5,-1572 641.5,-1572 641.5,-1572 558.5,-1572 558.5,-1572 552.5,-1572 546.5,-1566 546.5,-1560 546.5,-1560 546.5,-1512 546.5,-1512 546.5,-1506 552.5,-1500 558.5,-1500"/>
<text text-anchor="middle" x="600" y="-1559.2" font-family="Times,serif" font-size="11.00" fill="#c0c0c0">Driver</text>
</g>
<g id="clust15" class="cluster">
<title>cluster_\LinHUniX\Pdo\Query</title>
<path fill="none" stroke="#c0c0c0" d="M565.5,-1340C565.5,-1340 634.5,-1340 634.5,-1340 640.5,-1340 646.5,-1346 646.5,-1352 646.5,-1352 646.5,-1400 646.5,-1400 646.5,-1406 640.5,-1412 634.5,-1412 634.5,-1412 565.5,-1412 565.5,-1412 559.5,-1412 553.5,-1406 553.5,-1400 553.5,-1400 553.5,-1352 553.5,-1352 553.5,-1346 559.5,-1340 565.5,-1340"/>
<text text-anchor="middle" x="600" y="-1399.2" font-family="Times,serif" font-size="11.00" fill="#c0c0c0">Query</text>
</g>
<g id="clust16" class="cluster">
<title>cluster_\LinHUniX\Gfx</title>
<path fill="none" stroke="#c0c0c0" d="M300,-1216C300,-1216 392,-1216 392,-1216 398,-1216 404,-1222 404,-1228 404,-1228 404,-1312 404,-1312 404,-1318 398,-1324 392,-1324 392,-1324 300,-1324 300,-1324 294,-1324 288,-1318 288,-1312 288,-1312 288,-1228 288,-1228 288,-1222 294,-1216 300,-1216"/>
<text text-anchor="middle" x="346" y="-1311.2" font-family="Times,serif" font-size="11.00" fill="#c0c0c0">Gfx</text>
</g>
<g id="clust17" class="cluster">
<title>cluster_\LinHUniX\Gfx\Service</title>
<path fill="none" stroke="#c0c0c0" d="M308,-1224C308,-1224 384,-1224 384,-1224 390,-1224 396,-1230 396,-1236 396,-1236 396,-1284 396,-1284 396,-1290 390,-1296 384,-1296 384,-1296 308,-1296 308,-1296 302,-1296 296,-1290 296,-1284 296,-1284 296,-1236 296,-1236 296,-1230 302,-1224 308,-1224"/>
<text text-anchor="middle" x="346" y="-1283.2" font-family="Times,serif" font-size="11.00" fill="#c0c0c0">Service</text>
</g>
<!-- \\LinHUniX\\Mcp\\Model\\mcpRemoteObjectModelClass -->
<g id="node1" class="node">
<title>\\LinHUniX\\Mcp\\Model\\mcpRemoteObjectModelClass</title>
<polygon fill="none" stroke="#000000" points="438.5,-1072 253.5,-1072 253.5,-1036 438.5,-1036 438.5,-1072"/>
<text text-anchor="middle" x="346" y="-1051.2" font-family="Courier,monospace" font-size="11.00" fill="#000000">mcpRemoteObjectModelClass</text>
</g>
<!-- \\LinHUniX\\Mcp\\Model\\mcpBaseModelClass -->
<g id="node4" class="node">
<title>\\LinHUniX\\Mcp\\Model\\mcpBaseModelClass</title>
<polygon fill="none" stroke="#000000" points="171,-1072 40,-1072 40,-1036 171,-1036 171,-1072"/>
<text text-anchor="middle" x="105.5" y="-1051.2" font-family="Courier,monospace" font-size="11.00" fill="#000000">mcpBaseModelClass</text>
</g>
<!-- \\LinHUniX\\Mcp\\Model\\mcpRemoteObjectModelClass&#45;&gt;\\LinHUniX\\Mcp\\Model\\mcpBaseModelClass -->
<g id="edge4" class="edge">
<title>\\LinHUniX\\Mcp\\Model\\mcpRemoteObjectModelClass&#45;&gt;\\LinHUniX\\Mcp\\Model\\mcpBaseModelClass</title>
<path fill="none" stroke="#000000" d="M253.3604,-1054C229.6073,-1054 204.3347,-1054 181.5279,-1054"/>
<polygon fill="none" stroke="#000000" points="181.237,-1050.5001 171.2369,-1054 181.2369,-1057.5001 181.237,-1050.5001"/>
</g>
<!-- \\LinHUniX\\Mcp\\Model\\mcpRemoteApiModelClass -->
<g id="node2" class="node">
<title>\\LinHUniX\\Mcp\\Model\\mcpRemoteApiModelClass</title>
<polygon fill="none" stroke="#000000" points="428.5,-1018 263.5,-1018 263.5,-982 428.5,-982 428.5,-1018"/>
<text text-anchor="middle" x="346" y="-997.2" font-family="Courier,monospace" font-size="11.00" fill="#000000">mcpRemoteApiModelClass</text>
</g>
<!-- \\LinHUniX\\Mcp\\Model\\mcpRemoteApiModelClass&#45;&gt;\\LinHUniX\\Mcp\\Model\\mcpBaseModelClass -->
<g id="edge5" class="edge">
<title>\\LinHUniX\\Mcp\\Model\\mcpRemoteApiModelClass&#45;&gt;\\LinHUniX\\Mcp\\Model\\mcpBaseModelClass</title>
<path fill="none" stroke="#000000" d="M265.5826,-1018.0563C238.3387,-1024.1734 208.0196,-1030.981 181.1587,-1037.0122"/>
<polygon fill="none" stroke="#000000" points="180.0373,-1033.6768 171.047,-1039.2826 181.5709,-1040.5067 180.0373,-1033.6768"/>
</g>
<!-- \\LinHUniX\\Mcp\\Model\\mcpDebugModelClass -->
<g id="node3" class="node">
<title>\\LinHUniX\\Mcp\\Model\\mcpDebugModelClass</title>
<polygon fill="none" stroke="#000000" points="415,-964 277,-964 277,-928 415,-928 415,-964"/>
<text text-anchor="middle" x="346" y="-943.2" font-family="Courier,monospace" font-size="11.00" fill="#000000">mcpDebugModelClass</text>
</g>
<!-- \\LinHUniX\\Mcp\\Model\\mcpConfigArrayModelClass -->
<g id="node5" class="node">
<title>\\LinHUniX\\Mcp\\Model\\mcpConfigArrayModelClass</title>
<polygon fill="none" stroke="#000000" points="435.5,-910 256.5,-910 256.5,-874 435.5,-874 435.5,-910"/>
<text text-anchor="middle" x="346" y="-889.2" font-family="Courier,monospace" font-size="11.00" fill="#000000">mcpConfigArrayModelClass</text>
</g>
<!-- \\ArrayAccess -->
<g id="node30" class="node">
<title>\\ArrayAccess</title>
<ellipse fill="none" stroke="#000000" cx="105.5" cy="-72" rx="59.5901" ry="18"/>
<text text-anchor="middle" x="105.5" y="-68.3" font-family="Times,serif" font-size="14.00" fill="#c0c0c0">\ArrayAccess</text>
</g>
<!-- \\LinHUniX\\Mcp\\Model\\mcpConfigArrayModelClass&#45;&gt;\\ArrayAccess -->
<g id="edge12" class="edge">
<title>\\LinHUniX\\Mcp\\Model\\mcpConfigArrayModelClass&#45;&gt;\\ArrayAccess</title>
<path fill="none" stroke="#000000" stroke-dasharray="1,5" d="M256.1501,-875.8717C251.3255,-872.8141 246.8771,-869.2201 243,-865 137.0227,-749.6457 111.2081,-228.0481 106.4315,-100.3035"/>
<polygon fill="none" stroke="#000000" points="109.9238,-100.0248 106.066,-90.1573 102.9283,-100.2769 109.9238,-100.0248"/>
</g>
<!-- \\LinHUniX\\Mcp\\Model\\mcpServiceProviderModelClass -->
<g id="node6" class="node">
<title>\\LinHUniX\\Mcp\\Model\\mcpServiceProviderModelClass</title>
<polygon fill="none" stroke="#000000" points="449,-856 243,-856 243,-820 449,-820 449,-856"/>
<text text-anchor="middle" x="346" y="-835.2" font-family="Courier,monospace" font-size="11.00" fill="#000000">mcpServiceProviderModelClass</text>
</g>
<!-- \\LinHUniX\\Mcp\\Component\\mcpDebugClass -->
<g id="node7" class="node">
<title>\\LinHUniX\\Mcp\\Component\\mcpDebugClass</title>
<polygon fill="none" stroke="#000000" points="652,-1152 548,-1152 548,-1116 652,-1116 652,-1152"/>
<text text-anchor="middle" x="600" y="-1131.2" font-family="Courier,monospace" font-size="11.00" fill="#000000">mcpDebugClass</text>
</g>
<!-- \\LinHUniX\\Mcp\\Component\\mcpProxyClass -->
<g id="node8" class="node">
<title>\\LinHUniX\\Mcp\\Component\\mcpProxyClass</title>
<polygon fill="none" stroke="#000000" points="652,-1098 548,-1098 548,-1062 652,-1062 652,-1098"/>
<text text-anchor="middle" x="600" y="-1077.2" font-family="Courier,monospace" font-size="11.00" fill="#000000">mcpProxyClass</text>
</g>
<!-- \\LinHUniX\\Mcp\\Component\\mcpMenuClass -->
<g id="node9" class="node">
<title>\\LinHUniX\\Mcp\\Component\\mcpMenuClass</title>
<polygon fill="none" stroke="#000000" points="649,-1044 551,-1044 551,-1008 649,-1008 649,-1044"/>
<text text-anchor="middle" x="600" y="-1023.2" font-family="Courier,monospace" font-size="11.00" fill="#000000">mcpMenuClass</text>
</g>
<!-- \\LinHUniX\\Mcp\\Component\\mcpToolsClass -->
<g id="node10" class="node">
<title>\\LinHUniX\\Mcp\\Component\\mcpToolsClass</title>
<polygon fill="none" stroke="#000000" points="652,-990 548,-990 548,-954 652,-954 652,-990"/>
<text text-anchor="middle" x="600" y="-969.2" font-family="Courier,monospace" font-size="11.00" fill="#000000">mcpToolsClass</text>
</g>
<!-- \\LinHUniX\\Mcp\\Component\\mcpCoreClass -->
<g id="node11" class="node">
<title>\\LinHUniX\\Mcp\\Component\\mcpCoreClass</title>
<polygon fill="none" stroke="#000000" points="649,-936 551,-936 551,-900 649,-900 649,-936"/>
<text text-anchor="middle" x="600" y="-915.2" font-family="Courier,monospace" font-size="11.00" fill="#000000">mcpCoreClass</text>
</g>
<!-- \\LinHUniX\\Mcp\\Provider\\settingsProviderModel -->
<g id="node12" class="node">
<title>\\LinHUniX\\Mcp\\Provider\\settingsProviderModel</title>
<polygon fill="none" stroke="#000000" points="679,-856 521,-856 521,-820 679,-820 679,-856"/>
<text text-anchor="middle" x="600" y="-835.2" font-family="Courier,monospace" font-size="11.00" fill="#000000">settingsProviderModel</text>
</g>
<!-- \\LinHUniX\\Mcp\\Provider\\settingsProviderModel&#45;&gt;\\LinHUniX\\Mcp\\Model\\mcpServiceProviderModelClass -->
<g id="edge2" class="edge">
<title>\\LinHUniX\\Mcp\\Provider\\settingsProviderModel&#45;&gt;\\LinHUniX\\Mcp\\Model\\mcpServiceProviderModelClass</title>
<path fill="none" stroke="#000000" stroke-dasharray="1,5" d="M520.6776,-838C501.2886,-838 480.1652,-838 459.5223,-838"/>
<polygon fill="none" stroke="#000000" points="459.4368,-834.5001 449.4367,-838 459.4367,-841.5001 459.4368,-834.5001"/>
</g>
<!-- \\LinHUniX\\Mcp\\Provider\\loggerProviderModel -->
<g id="node13" class="node">
<title>\\LinHUniX\\Mcp\\Provider\\loggerProviderModel</title>
<polygon fill="none" stroke="#000000" points="672.5,-802 527.5,-802 527.5,-766 672.5,-766 672.5,-802"/>
<text text-anchor="middle" x="600" y="-781.2" font-family="Courier,monospace" font-size="11.00" fill="#000000">loggerProviderModel</text>
</g>
<!-- \\LinHUniX\\Mcp\\Provider\\loggerProviderModel&#45;&gt;\\LinHUniX\\Mcp\\Model\\mcpServiceProviderModelClass -->
<g id="edge9" class="edge">
<title>\\LinHUniX\\Mcp\\Provider\\loggerProviderModel&#45;&gt;\\LinHUniX\\Mcp\\Model\\mcpServiceProviderModelClass</title>
<path fill="none" stroke="#000000" stroke-dasharray="1,5" d="M527.2138,-799.4742C500.3314,-805.1894 469.4594,-811.7527 440.9041,-817.8235"/>
<polygon fill="none" stroke="#000000" points="439.9643,-814.445 430.9108,-819.9481 441.42,-821.292 439.9643,-814.445"/>
</g>
<!-- \\LinHUniX\\Mcp\\Tools\\pharizeShell -->
<g id="node14" class="node">
<title>\\LinHUniX\\Mcp\\Tools\\pharizeShell</title>
<polygon fill="none" stroke="#000000" points="649,-722 551,-722 551,-686 649,-686 649,-722"/>
<text text-anchor="middle" x="600" y="-701.2" font-family="Courier,monospace" font-size="11.00" fill="#000000">pharizeShell</text>
</g>
<!-- \\LinHUniX\\Mcp\\Tools\\pharizeBase -->
<g id="node15" class="node">
<title>\\LinHUniX\\Mcp\\Tools\\pharizeBase</title>
<polygon fill="none" stroke="#000000" points="645.5,-668 554.5,-668 554.5,-632 645.5,-632 645.5,-668"/>
<text text-anchor="middle" x="600" y="-647.2" font-family="Courier,monospace" font-size="11.00" fill="#000000">pharizeBase</text>
</g>
<!-- \\LinHUniX\\Mcp\\masterControlProgram -->
<g id="node16" class="node">
<title>\\LinHUniX\\Mcp\\masterControlProgram</title>
<polygon fill="none" stroke="#000000" points="676,-614 524,-614 524,-578 676,-578 676,-614"/>
<text text-anchor="middle" x="600" y="-593.2" font-family="Courier,monospace" font-size="11.00" fill="#000000">masterControlProgram</text>
</g>
<!-- \\LinHUniX\\Mail\\Service\\mailService -->
<g id="node17" class="node">
<title>\\LinHUniX\\Mail\\Service\\mailService</title>
<polygon fill="none" stroke="#000000" points="391.5,-506 300.5,-506 300.5,-470 391.5,-470 391.5,-506"/>
<text text-anchor="middle" x="346" y="-485.2" font-family="Courier,monospace" font-size="11.00" fill="#000000">mailService</text>
</g>
<!-- \\LinHUniX\\Mail\\Service\\mailService&#45;&gt;\\LinHUniX\\Mcp\\Model\\mcpBaseModelClass -->
<g id="edge1" class="edge">
<title>\\LinHUniX\\Mail\\Service\\mailService&#45;&gt;\\LinHUniX\\Mcp\\Model\\mcpBaseModelClass</title>
<path fill="none" stroke="#000000" d="M338.2705,-506.1908C303.2526,-588.603 159.3708,-927.2188 117.1794,-1026.5134"/>
<polygon fill="none" stroke="#000000" points="113.8903,-1025.3045 113.2007,-1035.8769 120.3328,-1028.042 113.8903,-1025.3045"/>
</g>
<!-- \\LinHUniX\\Mail\\Component\\POP3 -->
<g id="node18" class="node">
<title>\\LinHUniX\\Mail\\Component\\POP3</title>
<polygon fill="none" stroke="#000000" points="373,-426 319,-426 319,-390 373,-390 373,-426"/>
<text text-anchor="middle" x="346" y="-405.2" font-family="Courier,monospace" font-size="11.00" fill="#000000">POP3</text>
</g>
<!-- \\LinHUniX\\Mail\\Component\\PHPMailer -->
<g id="node19" class="node">
<title>\\LinHUniX\\Mail\\Component\\PHPMailer</title>
<polygon fill="none" stroke="#000000" points="384.5,-372 307.5,-372 307.5,-336 384.5,-336 384.5,-372"/>
<text text-anchor="middle" x="346" y="-351.2" font-family="Courier,monospace" font-size="11.00" fill="#000000">PHPMailer</text>
</g>
<!-- \\LinHUniX\\Mail\\Component\\phpmailerException -->
<g id="node20" class="node">
<title>\\LinHUniX\\Mail\\Component\\phpmailerException</title>
<polygon fill="none" stroke="#000000" points="415,-318 277,-318 277,-282 415,-282 415,-318"/>
<text text-anchor="middle" x="346" y="-297.2" font-family="Courier,monospace" font-size="11.00" fill="#000000">phpmailerException</text>
</g>
<!-- \\Exception -->
<g id="node29" class="node">
<title>\\Exception</title>
<ellipse fill="none" stroke="#000000" cx="105.5" cy="-18" rx="51.1914" ry="18"/>
<text text-anchor="middle" x="105.5" y="-14.3" font-family="Times,serif" font-size="14.00" fill="#c0c0c0">\Exception</text>
</g>
<!-- \\LinHUniX\\Mail\\Component\\phpmailerException&#45;&gt;\\Exception -->
<g id="edge6" class="edge">
<title>\\LinHUniX\\Mail\\Component\\phpmailerException&#45;&gt;\\Exception</title>
<path fill="none" stroke="#000000" d="M276.737,-292.08C264.3225,-287.9819 252.3739,-281.9209 243,-273 166.0217,-199.7417 242.8766,-123.2701 171,-45 166.7415,-40.3627 161.5673,-36.5004 156.0138,-33.2886"/>
<polygon fill="none" stroke="#000000" points="157.5554,-30.1462 147.0518,-28.759 154.3978,-36.3936 157.5554,-30.1462"/>
</g>
<!-- \\LinHUniX\\Mail\\Component\\SMTP -->
<g id="node21" class="node">
<title>\\LinHUniX\\Mail\\Component\\SMTP</title>
<polygon fill="none" stroke="#000000" points="373,-264 319,-264 319,-228 373,-228 373,-264"/>
<text text-anchor="middle" x="346" y="-243.2" font-family="Courier,monospace" font-size="11.00" fill="#000000">SMTP</text>
</g>
<!-- \\LinHUniX\\Pdo\\Service\\pdoService -->
<g id="node22" class="node">
<title>\\LinHUniX\\Pdo\\Service\\pdoService</title>
<polygon fill="none" stroke="#000000" points="642,-1464 558,-1464 558,-1428 642,-1428 642,-1464"/>
<text text-anchor="middle" x="600" y="-1443.2" font-family="Courier,monospace" font-size="11.00" fill="#000000">pdoService</text>
</g>
<!-- \\LinHUniX\\Pdo\\Service\\pdoService&#45;&gt;\\LinHUniX\\Mcp\\Model\\mcpBaseModelClass -->
<g id="edge3" class="edge">
<title>\\LinHUniX\\Pdo\\Service\\pdoService&#45;&gt;\\LinHUniX\\Mcp\\Model\\mcpBaseModelClass</title>
<path fill="none" stroke="#000000" d="M566.9978,-1464.0013C515.9596,-1489.1694 416.4266,-1527.3974 346,-1486"/>
<path fill="none" stroke="#000000" d="M346,-1486C298.2839,-1457.9521 277.3034,-1459.4371 243,-1416 159.1295,-1309.7978 122.1417,-1146.7947 110.1635,-1081.9784"/>
<polygon fill="none" stroke="#000000" points="113.6011,-1081.3187 108.3918,-1072.0931 106.7109,-1082.5537 113.6011,-1081.3187"/>
</g>
<!-- \\LinHUniX\\Pdo\\Model\\mcpQueryModelClass -->
<g id="node23" class="node">
<title>\\LinHUniX\\Pdo\\Model\\mcpQueryModelClass</title>
<polygon fill="none" stroke="#000000" points="415,-1384 277,-1384 277,-1348 415,-1348 415,-1384"/>
<text text-anchor="middle" x="346" y="-1363.2" font-family="Courier,monospace" font-size="11.00" fill="#000000">mcpQueryModelClass</text>
</g>
<!-- \\LinHUniX\\Pdo\\Model\\mcpQueryModelClass&#45;&gt;\\LinHUniX\\Mcp\\Model\\mcpBaseModelClass -->
<g id="edge7" class="edge">
<title>\\LinHUniX\\Pdo\\Model\\mcpQueryModelClass&#45;&gt;\\LinHUniX\\Mcp\\Model\\mcpBaseModelClass</title>
<path fill="none" stroke="#000000" d="M308.4766,-1347.8441C287.3855,-1336.2922 261.6355,-1319.7922 243,-1300 179.5915,-1232.656 134.8483,-1130.618 115.7829,-1081.8551"/>
<polygon fill="none" stroke="#000000" points="118.9613,-1080.3687 112.1068,-1072.2899 112.4272,-1082.8799 118.9613,-1080.3687"/>
</g>
<!-- \\LinHUniX\\Pdo\\Driver\\mysqlDriver -->
<g id="node24" class="node">
<title>\\LinHUniX\\Pdo\\Driver\\mysqlDriver</title>
<polygon fill="none" stroke="#000000" points="645.5,-1544 554.5,-1544 554.5,-1508 645.5,-1508 645.5,-1544"/>
<text text-anchor="middle" x="600" y="-1523.2" font-family="Courier,monospace" font-size="11.00" fill="#000000">mysqlDriver</text>
</g>
<!-- \\LinHUniX\\Pdo\\Driver\\mysqlDriver&#45;&gt;\\LinHUniX\\Mcp\\Model\\mcpBaseModelClass -->
<g id="edge8" class="edge">
<title>\\LinHUniX\\Pdo\\Driver\\mysqlDriver&#45;&gt;\\LinHUniX\\Mcp\\Model\\mcpBaseModelClass</title>
<path fill="none" stroke="#000000" d="M554.4674,-1528.5268C500.9009,-1529.417 411.0388,-1524.2304 346,-1486"/>
</g>
<!-- \\LinHUniX\\Pdo\\Query\\JsonQuery -->
<g id="node25" class="node">
<title>\\LinHUniX\\Pdo\\Query\\JsonQuery</title>
<polygon fill="none" stroke="#000000" points="638.5,-1384 561.5,-1384 561.5,-1348 638.5,-1348 638.5,-1384"/>
<text text-anchor="middle" x="600" y="-1363.2" font-family="Courier,monospace" font-size="11.00" fill="#000000">JsonQuery</text>
</g>
<!-- \\LinHUniX\\Pdo\\Query\\JsonQuery&#45;&gt;\\LinHUniX\\Pdo\\Model\\mcpQueryModelClass -->
<g id="edge10" class="edge">
<title>\\LinHUniX\\Pdo\\Query\\JsonQuery&#45;&gt;\\LinHUniX\\Pdo\\Model\\mcpQueryModelClass</title>
<path fill="none" stroke="#000000" d="M561.4229,-1366C525.4255,-1366 470.6128,-1366 425.2874,-1366"/>
<polygon fill="none" stroke="#000000" points="425.1786,-1362.5001 415.1785,-1366 425.1785,-1369.5001 425.1786,-1362.5001"/>
</g>
<!-- \\LinHUniX\\Gfx\\Service\\gfxService -->
<g id="node26" class="node">
<title>\\LinHUniX\\Gfx\\Service\\gfxService</title>
<polygon fill="none" stroke="#000000" points="388,-1268 304,-1268 304,-1232 388,-1232 388,-1268"/>
<text text-anchor="middle" x="346" y="-1247.2" font-family="Courier,monospace" font-size="11.00" fill="#000000">gfxService</text>
</g>
<!-- \\LinHUniX\\Gfx\\Service\\gfxService&#45;&gt;\\LinHUniX\\Mcp\\Model\\mcpBaseModelClass -->
<g id="edge11" class="edge">
<title>\\LinHUniX\\Gfx\\Service\\gfxService&#45;&gt;\\LinHUniX\\Mcp\\Model\\mcpBaseModelClass</title>
<path fill="none" stroke="#000000" d="M323.8054,-1231.9121C280.4948,-1196.6153 184.6737,-1118.5241 135.6585,-1078.5783"/>
<polygon fill="none" stroke="#000000" points="137.6038,-1075.6485 127.6409,-1072.0442 133.1816,-1081.0748 137.6038,-1075.6485"/>
</g>
<!-- \\html2text -->
<g id="node27" class="node">
<title>\\html2text</title>
<polygon fill="none" stroke="#000000" points="638.5,-196 561.5,-196 561.5,-160 638.5,-160 638.5,-196"/>
<text text-anchor="middle" x="600" y="-175.2" font-family="Courier,monospace" font-size="11.00" fill="#000000">html2text</text>
</g>
<!-- \\mcpAutoload -->
<g id="node28" class="node">
<title>\\mcpAutoload</title>
<polygon fill="none" stroke="#000000" points="645.5,-142 554.5,-142 554.5,-106 645.5,-106 645.5,-142"/>
<text text-anchor="middle" x="600" y="-121.2" font-family="Courier,monospace" font-size="11.00" fill="#000000">mcpAutoload</text>
</g>
</g>
</svg>
