<?xml version="1.0" encoding="UTF-8" standalone="no"?>
<!DOCTYPE svg PUBLIC "-//W3C//DTD SVG 1.1//EN"
 "http://www.w3.org/Graphics/SVG/1.1/DTD/svg11.dtd">
<!-- Generated by graphviz version 2.38.0 (20140413.2041)
 -->
<!-- Title: G Pages: 1 -->
<svg width="984pt" height="2388pt"
 viewBox="0.00 0.00 984.00 2388.00" xmlns="http://www.w3.org/2000/svg" xmlns:xlink="http://www.w3.org/1999/xlink">
<g id="graph0" class="graph" transform="scale(1 1) rotate(0) translate(4 2384)">
<title>G</title>
<polygon fill="white" stroke="none" points="-4,4 -4,-2384 980,-2384 980,4 -4,4"/>
<g id="clust1" class="cluster"><title>cluster_Global</title>
<path fill="none" stroke="gray" d="M20,-44C20,-44 956,-44 956,-44 962,-44 968,-50 968,-56 968,-56 968,-2360 968,-2360 968,-2366 962,-2372 956,-2372 956,-2372 20,-2372 20,-2372 14,-2372 8,-2366 8,-2360 8,-2360 8,-56 8,-56 8,-50 14,-44 20,-44"/>
<text text-anchor="middle" x="488" y="-2359.2" font-family="Times,serif" font-size="11.00" fill="gray">Global</text>
</g>
<g id="clust2" class="cluster"><title>cluster_\LinHUniX</title>
<path fill="none" stroke="gray" d="M28,-96C28,-96 948,-96 948,-96 954,-96 960,-102 960,-108 960,-108 960,-2332 960,-2332 960,-2338 954,-2344 948,-2344 948,-2344 28,-2344 28,-2344 22,-2344 16,-2338 16,-2332 16,-2332 16,-108 16,-108 16,-102 22,-96 28,-96"/>
<text text-anchor="middle" x="488" y="-2331.2" font-family="Times,serif" font-size="11.00" fill="gray">LinHUniX</text>
</g>
<g id="clust3" class="cluster"><title>cluster_\LinHUniX\Mcp</title>
<path fill="none" stroke="gray" d="M36,-462C36,-462 940,-462 940,-462 946,-462 952,-468 952,-474 952,-474 952,-1358 952,-1358 952,-1364 946,-1370 940,-1370 940,-1370 36,-1370 36,-1370 30,-1370 24,-1364 24,-1358 24,-1358 24,-474 24,-474 24,-468 30,-462 36,-462"/>
<text text-anchor="middle" x="488" y="-1357.2" font-family="Times,serif" font-size="11.00" fill="gray">Mcp</text>
</g>
<g id="clust4" class="cluster"><title>cluster_\LinHUniX\Mcp\Provider</title>
<path fill="none" stroke="gray" d="M782,-1216C782,-1216 932,-1216 932,-1216 938,-1216 944,-1222 944,-1228 944,-1228 944,-1330 944,-1330 944,-1336 938,-1342 932,-1342 932,-1342 782,-1342 782,-1342 776,-1342 770,-1336 770,-1330 770,-1330 770,-1228 770,-1228 770,-1222 776,-1216 782,-1216"/>
<text text-anchor="middle" x="857" y="-1329.2" font-family="Times,serif" font-size="11.00" fill="gray">Provider</text>
</g>
<g id="clust5" class="cluster"><title>cluster_\LinHUniX\Mcp\Model</title>
<path fill="none" stroke="gray" d="M44,-1108C44,-1108 702,-1108 702,-1108 708,-1108 714,-1114 714,-1120 714,-1120 714,-1330 714,-1330 714,-1336 708,-1342 702,-1342 702,-1342 44,-1342 44,-1342 38,-1342 32,-1336 32,-1330 32,-1330 32,-1120 32,-1120 32,-1114 38,-1108 44,-1108"/>
<text text-anchor="middle" x="373" y="-1329.2" font-family="Times,serif" font-size="11.00" fill="gray">Model</text>
</g>
<g id="clust6" class="cluster"><title>cluster_\LinHUniX\Mcp\Component</title>
<path fill="none" stroke="gray" d="M798.5,-704C798.5,-704 915.5,-704 915.5,-704 921.5,-704 927.5,-710 927.5,-716 927.5,-716 927.5,-1196 927.5,-1196 927.5,-1202 921.5,-1208 915.5,-1208 915.5,-1208 798.5,-1208 798.5,-1208 792.5,-1208 786.5,-1202 786.5,-1196 786.5,-1196 786.5,-716 786.5,-716 786.5,-710 792.5,-704 798.5,-704"/>
<text text-anchor="middle" x="857" y="-1195.2" font-family="Times,serif" font-size="11.00" fill="gray">Component</text>
</g>
<g id="clust7" class="cluster"><title>cluster_\LinHUniX\Mcp\Tools</title>
<path fill="none" stroke="gray" d="M812,-516C812,-516 902,-516 902,-516 908,-516 914,-522 914,-528 914,-528 914,-684 914,-684 914,-690 908,-696 902,-696 902,-696 812,-696 812,-696 806,-696 800,-690 800,-684 800,-684 800,-528 800,-528 800,-522 806,-516 812,-516"/>
<text text-anchor="middle" x="857" y="-683.2" font-family="Times,serif" font-size="11.00" fill="gray">Tools</text>
</g>
<g id="clust8" class="cluster"><title>cluster_\LinHUniX\Pdo</title>
<path fill="none" stroke="gray" d="M262.5,-1940C262.5,-1940 656,-1940 656,-1940 662,-1940 668,-1946 668,-1952 668,-1952 668,-2304 668,-2304 668,-2310 662,-2316 656,-2316 656,-2316 262.5,-2316 262.5,-2316 256.5,-2316 250.5,-2310 250.5,-2304 250.5,-2304 250.5,-1952 250.5,-1952 250.5,-1946 256.5,-1940 262.5,-1940"/>
<text text-anchor="middle" x="459.25" y="-2303.2" font-family="Times,serif" font-size="11.00" fill="gray">Pdo</text>
</g>
<g id="clust9" class="cluster"><title>cluster_\LinHUniX\Pdo\Service</title>
<path fill="none" stroke="gray" d="M565,-1948C565,-1948 641,-1948 641,-1948 647,-1948 653,-1954 653,-1960 653,-1960 653,-2008 653,-2008 653,-2014 647,-2020 641,-2020 641,-2020 565,-2020 565,-2020 559,-2020 553,-2014 553,-2008 553,-2008 553,-1960 553,-1960 553,-1954 559,-1948 565,-1948"/>
<text text-anchor="middle" x="603" y="-2007.2" font-family="Times,serif" font-size="11.00" fill="gray">Service</text>
</g>
<g id="clust10" class="cluster"><title>cluster_\LinHUniX\Pdo\Driver</title>
<path fill="none" stroke="gray" d="M301,-2162C301,-2162 648,-2162 648,-2162 654,-2162 660,-2168 660,-2174 660,-2174 660,-2276 660,-2276 660,-2282 654,-2288 648,-2288 648,-2288 301,-2288 301,-2288 295,-2288 289,-2282 289,-2276 289,-2276 289,-2174 289,-2174 289,-2168 295,-2162 301,-2162"/>
<text text-anchor="middle" x="474.5" y="-2275.2" font-family="Times,serif" font-size="11.00" fill="gray">Driver</text>
</g>
<g id="clust11" class="cluster"><title>cluster_\LinHUniX\Pdo\Model</title>
<path fill="none" stroke="gray" d="M270.5,-2028C270.5,-2028 400.5,-2028 400.5,-2028 406.5,-2028 412.5,-2034 412.5,-2040 412.5,-2040 412.5,-2088 412.5,-2088 412.5,-2094 406.5,-2100 400.5,-2100 400.5,-2100 270.5,-2100 270.5,-2100 264.5,-2100 258.5,-2094 258.5,-2088 258.5,-2088 258.5,-2040 258.5,-2040 258.5,-2034 264.5,-2028 270.5,-2028"/>
<text text-anchor="middle" x="335.5" y="-2087.2" font-family="Times,serif" font-size="11.00" fill="gray">Model</text>
</g>
<g id="clust12" class="cluster"><title>cluster_\LinHUniX\Pdo\Query</title>
<path fill="none" stroke="gray" d="M565,-2028C565,-2028 641,-2028 641,-2028 647,-2028 653,-2034 653,-2040 653,-2040 653,-2142 653,-2142 653,-2148 647,-2154 641,-2154 641,-2154 565,-2154 565,-2154 559,-2154 553,-2148 553,-2142 553,-2142 553,-2040 553,-2040 553,-2034 559,-2028 565,-2028"/>
<text text-anchor="middle" x="603" y="-2141.2" font-family="Times,serif" font-size="11.00" fill="gray">Query</text>
</g>
<g id="clust13" class="cluster"><title>cluster_\LinHUniX\Gfx</title>
<path fill="none" stroke="gray" d="M536.5,-1610C536.5,-1610 669.5,-1610 669.5,-1610 675.5,-1610 681.5,-1616 681.5,-1622 681.5,-1622 681.5,-1920 681.5,-1920 681.5,-1926 675.5,-1932 669.5,-1932 669.5,-1932 536.5,-1932 536.5,-1932 530.5,-1932 524.5,-1926 524.5,-1920 524.5,-1920 524.5,-1622 524.5,-1622 524.5,-1616 530.5,-1610 536.5,-1610"/>
<text text-anchor="middle" x="603" y="-1919.2" font-family="Times,serif" font-size="11.00" fill="gray">Gfx</text>
</g>
<g id="clust14" class="cluster"><title>cluster_\LinHUniX\Gfx\Service</title>
<path fill="none" stroke="gray" d="M565,-1832C565,-1832 641,-1832 641,-1832 647,-1832 653,-1838 653,-1844 653,-1844 653,-1892 653,-1892 653,-1898 647,-1904 641,-1904 641,-1904 565,-1904 565,-1904 559,-1904 553,-1898 553,-1892 553,-1892 553,-1844 553,-1844 553,-1838 559,-1832 565,-1832"/>
<text text-anchor="middle" x="603" y="-1891.2" font-family="Times,serif" font-size="11.00" fill="gray">Service</text>
</g>
<g id="clust15" class="cluster"><title>cluster_\LinHUniX\Gfx\Component</title>
<path fill="none" stroke="gray" d="M561.5,-1698C561.5,-1698 644.5,-1698 644.5,-1698 650.5,-1698 656.5,-1704 656.5,-1710 656.5,-1710 656.5,-1812 656.5,-1812 656.5,-1818 650.5,-1824 644.5,-1824 644.5,-1824 561.5,-1824 561.5,-1824 555.5,-1824 549.5,-1818 549.5,-1812 549.5,-1812 549.5,-1710 549.5,-1710 549.5,-1704 555.5,-1698 561.5,-1698"/>
<text text-anchor="middle" x="603" y="-1811.2" font-family="Times,serif" font-size="11.00" fill="gray">Component</text>
</g>
<g id="clust16" class="cluster"><title>cluster_\LinHUniX\Gfx\Controller</title>
<path fill="none" stroke="gray" d="M544.5,-1618C544.5,-1618 661.5,-1618 661.5,-1618 667.5,-1618 673.5,-1624 673.5,-1630 673.5,-1630 673.5,-1678 673.5,-1678 673.5,-1684 667.5,-1690 661.5,-1690 661.5,-1690 544.5,-1690 544.5,-1690 538.5,-1690 532.5,-1684 532.5,-1678 532.5,-1678 532.5,-1630 532.5,-1630 532.5,-1624 538.5,-1618 544.5,-1618"/>
<text text-anchor="middle" x="603" y="-1677.2" font-family="Times,serif" font-size="11.00" fill="gray">Controller</text>
</g>
<g id="clust17" class="cluster"><title>cluster_\LinHUniX\Mail</title>
<path fill="none" stroke="gray" d="M262.5,-104C262.5,-104 408.5,-104 408.5,-104 414.5,-104 420.5,-110 420.5,-116 420.5,-116 420.5,-442 420.5,-442 420.5,-448 414.5,-454 408.5,-454 408.5,-454 262.5,-454 262.5,-454 256.5,-454 250.5,-448 250.5,-442 250.5,-442 250.5,-116 250.5,-116 250.5,-110 256.5,-104 262.5,-104"/>
<text text-anchor="middle" x="335.5" y="-441.2" font-family="Times,serif" font-size="11.00" fill="gray">Mail</text>
</g>
<g id="clust18" class="cluster"><title>cluster_\LinHUniX\Mail\Component</title>
<path fill="none" stroke="gray" d="M270.5,-112C270.5,-112 400.5,-112 400.5,-112 406.5,-112 412.5,-118 412.5,-124 412.5,-124 412.5,-334 412.5,-334 412.5,-340 406.5,-346 400.5,-346 400.5,-346 270.5,-346 270.5,-346 264.5,-346 258.5,-340 258.5,-334 258.5,-334 258.5,-124 258.5,-124 258.5,-118 264.5,-112 270.5,-112"/>
<text text-anchor="middle" x="335.5" y="-333.2" font-family="Times,serif" font-size="11.00" fill="gray">Component</text>
</g>
<g id="clust19" class="cluster"><title>cluster_\LinHUniX\Mail\Service</title>
<path fill="none" stroke="gray" d="M294,-354C294,-354 377,-354 377,-354 383,-354 389,-360 389,-366 389,-366 389,-414 389,-414 389,-420 383,-426 377,-426 377,-426 294,-426 294,-426 288,-426 282,-420 282,-414 282,-414 282,-366 282,-366 282,-360 288,-354 294,-354"/>
<text text-anchor="middle" x="335.5" y="-413.2" font-family="Times,serif" font-size="11.00" fill="gray">Service</text>
</g>
<g id="clust20" class="cluster"><title>cluster_\LinHUniX\ln4</title>
<path fill="none" stroke="gray" d="M547,-1494C547,-1494 659,-1494 659,-1494 665,-1494 671,-1500 671,-1506 671,-1506 671,-1590 671,-1590 671,-1596 665,-1602 659,-1602 659,-1602 547,-1602 547,-1602 541,-1602 535,-1596 535,-1590 535,-1590 535,-1506 535,-1506 535,-1500 541,-1494 547,-1494"/>
<text text-anchor="middle" x="603" y="-1589.2" font-family="Times,serif" font-size="11.00" fill="gray">ln4</text>
</g>
<g id="clust21" class="cluster"><title>cluster_\LinHUniX\ln4\Controller</title>
<path fill="none" stroke="gray" d="M555,-1502C555,-1502 651,-1502 651,-1502 657,-1502 663,-1508 663,-1514 663,-1514 663,-1562 663,-1562 663,-1568 657,-1574 651,-1574 651,-1574 555,-1574 555,-1574 549,-1574 543,-1568 543,-1562 543,-1562 543,-1514 543,-1514 543,-1508 549,-1502 555,-1502"/>
<text text-anchor="middle" x="603" y="-1561.2" font-family="Times,serif" font-size="11.00" fill="gray">Controller</text>
</g>
<g id="clust22" class="cluster"><title>cluster_\LinHUniX\Auth</title>
<path fill="none" stroke="gray" d="M553.5,-1378C553.5,-1378 652.5,-1378 652.5,-1378 658.5,-1378 664.5,-1384 664.5,-1390 664.5,-1390 664.5,-1474 664.5,-1474 664.5,-1480 658.5,-1486 652.5,-1486 652.5,-1486 553.5,-1486 553.5,-1486 547.5,-1486 541.5,-1480 541.5,-1474 541.5,-1474 541.5,-1390 541.5,-1390 541.5,-1384 547.5,-1378 553.5,-1378"/>
<text text-anchor="middle" x="603" y="-1473.2" font-family="Times,serif" font-size="11.00" fill="gray">Auth</text>
</g>
<g id="clust23" class="cluster"><title>cluster_\LinHUniX\Auth\Service</title>
<path fill="none" stroke="gray" d="M561.5,-1386C561.5,-1386 644.5,-1386 644.5,-1386 650.5,-1386 656.5,-1392 656.5,-1398 656.5,-1398 656.5,-1446 656.5,-1446 656.5,-1452 650.5,-1458 644.5,-1458 644.5,-1458 561.5,-1458 561.5,-1458 555.5,-1458 549.5,-1452 549.5,-1446 549.5,-1446 549.5,-1398 549.5,-1398 549.5,-1392 555.5,-1386 561.5,-1386"/>
<text text-anchor="middle" x="603" y="-1445.2" font-family="Times,serif" font-size="11.00" fill="gray">Service</text>
</g>
<!-- \\LinHUniX\\Mcp\\Provider\\loggerProviderModel -->
<g id="node1" class="node"><title>\\LinHUniX\\Mcp\\Provider\\loggerProviderModel</title>
<polygon fill="none" stroke="black" points="929.5,-1314 784.5,-1314 784.5,-1278 929.5,-1278 929.5,-1314"/>
<text text-anchor="middle" x="857" y="-1293.2" font-family="Courier,monospace" font-size="11.00">loggerProviderModel</text>
</g>
<!-- \\LinHUniX\\Mcp\\Model\\mcpServiceProviderModelClass -->
<g id="node11" class="node"><title>\\LinHUniX\\Mcp\\Model\\mcpServiceProviderModelClass</title>
<polygon fill="none" stroke="black" points="706,-1152 500,-1152 500,-1116 706,-1116 706,-1152"/>
<text text-anchor="middle" x="603" y="-1131.2" font-family="Courier,monospace" font-size="11.00">mcpServiceProviderModelClass</text>
</g>
<!-- \\LinHUniX\\Mcp\\Provider\\loggerProviderModel&#45;&gt;\\LinHUniX\\Mcp\\Model\\mcpServiceProviderModelClass -->
<g id="edge1" class="edge"><title>\\LinHUniX\\Mcp\\Provider\\loggerProviderModel&#45;&gt;\\LinHUniX\\Mcp\\Model\\mcpServiceProviderModelClass</title>
<path fill="none" stroke="black" stroke-dasharray="1,5" d="M784.184,-1278.48C779.117,-1275.76 774.315,-1272.62 770,-1269 728.588,-1234.24 756.495,-1194.43 714,-1161 712.377,-1159.72 710.703,-1158.51 708.983,-1157.35"/>
<polygon fill="none" stroke="black" points="710.422,-1154.13 700.042,-1152 706.83,-1160.14 710.422,-1154.13"/>
</g>
<!-- \\LinHUniX\\Mcp\\Provider\\settingsProviderModel -->
<g id="node2" class="node"><title>\\LinHUniX\\Mcp\\Provider\\settingsProviderModel</title>
<polygon fill="none" stroke="black" points="936,-1260 778,-1260 778,-1224 936,-1224 936,-1260"/>
<text text-anchor="middle" x="857" y="-1239.2" font-family="Courier,monospace" font-size="11.00">settingsProviderModel</text>
</g>
<!-- \\LinHUniX\\Mcp\\Provider\\settingsProviderModel&#45;&gt;\\LinHUniX\\Mcp\\Model\\mcpServiceProviderModelClass -->
<g id="edge17" class="edge"><title>\\LinHUniX\\Mcp\\Provider\\settingsProviderModel&#45;&gt;\\LinHUniX\\Mcp\\Model\\mcpServiceProviderModelClass</title>
<path fill="none" stroke="black" stroke-dasharray="1,5" d="M794.476,-1223.98C786.003,-1220.52 777.608,-1216.53 770,-1212 741.078,-1194.77 743.707,-1176.83 714,-1161 710.536,-1159.15 706.944,-1157.43 703.264,-1155.82"/>
<polygon fill="none" stroke="black" points="704.543,-1152.57 693.96,-1152.06 701.92,-1159.06 704.543,-1152.57"/>
</g>
<!-- \\LinHUniX\\Mcp\\Model\\mcpRemoteObjectModelClass -->
<g id="node3" class="node"><title>\\LinHUniX\\Mcp\\Model\\mcpRemoteObjectModelClass</title>
<polygon fill="none" stroke="black" points="428,-1314 243,-1314 243,-1278 428,-1278 428,-1314"/>
<text text-anchor="middle" x="335.5" y="-1293.2" font-family="Courier,monospace" font-size="11.00">mcpRemoteObjectModelClass</text>
</g>
<!-- \\LinHUniX\\Mcp\\Model\\mcpBaseModelClass -->
<g id="node4" class="node"><title>\\LinHUniX\\Mcp\\Model\\mcpBaseModelClass</title>
<polygon fill="none" stroke="black" points="171,-1287 40,-1287 40,-1251 171,-1251 171,-1287"/>
<text text-anchor="middle" x="105.5" y="-1266.2" font-family="Courier,monospace" font-size="11.00">mcpBaseModelClass</text>
</g>
<!-- \\LinHUniX\\Mcp\\Model\\mcpRemoteObjectModelClass&#45;&gt;\\LinHUniX\\Mcp\\Model\\mcpBaseModelClass -->
<g id="edge2" class="edge"><title>\\LinHUniX\\Mcp\\Model\\mcpRemoteObjectModelClass&#45;&gt;\\LinHUniX\\Mcp\\Model\\mcpBaseModelClass</title>
<path fill="none" stroke="black" d="M242.749,-1285.13C222.307,-1282.71 200.871,-1280.18 181.212,-1277.85"/>
<polygon fill="none" stroke="black" points="181.45,-1274.35 171.108,-1276.65 180.627,-1281.3 181.45,-1274.35"/>
</g>
<!-- \\LinHUniX\\Mcp\\Model\\mcpConfigArrayModelClass -->
<g id="node5" class="node"><title>\\LinHUniX\\Mcp\\Model\\mcpConfigArrayModelClass</title>
<polygon fill="none" stroke="black" points="692.5,-1260 513.5,-1260 513.5,-1224 692.5,-1224 692.5,-1260"/>
<text text-anchor="middle" x="603" y="-1239.2" font-family="Courier,monospace" font-size="11.00">mcpConfigArrayModelClass</text>
</g>
<!-- \\ArrayAccess -->
<g id="node44" class="node"><title>\\ArrayAccess</title>
<ellipse fill="none" stroke="black" cx="335.5" cy="-18" rx="61.99" ry="18"/>
<text text-anchor="middle" x="335.5" y="-14.3" font-family="Times,serif" font-size="14.00" fill="gray">\ArrayAccess</text>
</g>
<!-- \\LinHUniX\\Mcp\\Model\\mcpConfigArrayModelClass&#45;&gt;\\ArrayAccess -->
<g id="edge4" class="edge"><title>\\LinHUniX\\Mcp\\Model\\mcpConfigArrayModelClass&#45;&gt;\\ArrayAccess</title>
<path fill="none" stroke="black" stroke-dasharray="1,5" d="M513.391,-1226.86C508.386,-1223.58 503.841,-1219.67 500,-1215 343.369,-1024.64 530.611,-332.149 428,-108 415.447,-80.5778 390.59,-56.994 369.948,-40.8554"/>
<polygon fill="none" stroke="black" points="371.787,-37.858 361.7,-34.6182 367.565,-43.4414 371.787,-37.858"/>
</g>
<!-- \\LinHUniX\\Mcp\\Model\\mcpControllerModelClass -->
<g id="node6" class="node"><title>\\LinHUniX\\Mcp\\Model\\mcpControllerModelClass</title>
<polygon fill="none" stroke="black" points="421.5,-1152 249.5,-1152 249.5,-1116 421.5,-1116 421.5,-1152"/>
<text text-anchor="middle" x="335.5" y="-1131.2" font-family="Courier,monospace" font-size="11.00">mcpControllerModelClass</text>
</g>
<!-- \\LinHUniX\\Mcp\\Model\\mcpControllerModelClass&#45;&gt;\\LinHUniX\\Mcp\\Model\\mcpBaseModelClass -->
<g id="edge7" class="edge"><title>\\LinHUniX\\Mcp\\Model\\mcpControllerModelClass&#45;&gt;\\LinHUniX\\Mcp\\Model\\mcpBaseModelClass</title>
<path fill="none" stroke="black" d="M263.01,-1152.16C256.104,-1154.79 249.323,-1157.72 243,-1161 200.45,-1183.05 158.233,-1219.23 132.267,-1243.57"/>
<polygon fill="none" stroke="black" points="129.586,-1241.29 124.747,-1250.71 134.408,-1246.36 129.586,-1241.29"/>
</g>
<!-- \\LinHUniX\\Mcp\\Model\\mcpPageApiModelClass -->
<g id="node7" class="node"><title>\\LinHUniX\\Mcp\\Model\\mcpPageApiModelClass</title>
<polygon fill="none" stroke="black" points="679,-1314 527,-1314 527,-1278 679,-1278 679,-1314"/>
<text text-anchor="middle" x="603" y="-1293.2" font-family="Courier,monospace" font-size="11.00">mcpPageApiModelClass</text>
</g>
<!-- \\LinHUniX\\Mcp\\Model\\mcpPageApiModelClass&#45;&gt;\\LinHUniX\\Mcp\\Model\\mcpControllerModelClass -->
<g id="edge11" class="edge"><title>\\LinHUniX\\Mcp\\Model\\mcpPageApiModelClass&#45;&gt;\\LinHUniX\\Mcp\\Model\\mcpControllerModelClass</title>
<path fill="none" stroke="black" d="M526.994,-1282.94C517.407,-1279.37 508.121,-1274.81 500,-1269 453.075,-1235.44 474.448,-1195.21 428,-1161 426.158,-1159.64 424.248,-1158.35 422.284,-1157.13"/>
<polygon fill="none" stroke="black" points="423.798,-1153.97 413.358,-1152.16 420.394,-1160.08 423.798,-1153.97"/>
</g>
<!-- \\LinHUniX\\Mcp\\Model\\mcpRemoteApiModelClass -->
<g id="node8" class="node"><title>\\LinHUniX\\Mcp\\Model\\mcpRemoteApiModelClass</title>
<polygon fill="none" stroke="black" points="418,-1260 253,-1260 253,-1224 418,-1224 418,-1260"/>
<text text-anchor="middle" x="335.5" y="-1239.2" font-family="Courier,monospace" font-size="11.00">mcpRemoteApiModelClass</text>
</g>
<!-- \\LinHUniX\\Mcp\\Model\\mcpRemoteApiModelClass&#45;&gt;\\LinHUniX\\Mcp\\Model\\mcpBaseModelClass -->
<g id="edge15" class="edge"><title>\\LinHUniX\\Mcp\\Model\\mcpRemoteApiModelClass&#45;&gt;\\LinHUniX\\Mcp\\Model\\mcpBaseModelClass</title>
<path fill="none" stroke="black" d="M252.831,-1251.67C229.456,-1254.44 204.105,-1257.44 181.174,-1260.16"/>
<polygon fill="none" stroke="black" points="180.685,-1256.69 171.166,-1261.34 181.509,-1263.64 180.685,-1256.69"/>
</g>
<!-- \\LinHUniX\\Mcp\\Model\\mcpServiceModelClass -->
<g id="node9" class="node"><title>\\LinHUniX\\Mcp\\Model\\mcpServiceModelClass</title>
<polygon fill="none" stroke="black" points="411.5,-1206 259.5,-1206 259.5,-1170 411.5,-1170 411.5,-1206"/>
<text text-anchor="middle" x="335.5" y="-1185.2" font-family="Courier,monospace" font-size="11.00">mcpServiceModelClass</text>
</g>
<!-- \\LinHUniX\\Mcp\\Model\\mcpServiceModelClass&#45;&gt;\\LinHUniX\\Mcp\\Model\\mcpBaseModelClass -->
<g id="edge16" class="edge"><title>\\LinHUniX\\Mcp\\Model\\mcpServiceModelClass&#45;&gt;\\LinHUniX\\Mcp\\Model\\mcpBaseModelClass</title>
<path fill="none" stroke="black" d="M270.769,-1206.01C261.413,-1208.88 251.926,-1211.92 243,-1215 214.798,-1224.72 183.85,-1236.84 158.563,-1247.13"/>
<polygon fill="none" stroke="black" points="157.094,-1243.95 149.166,-1250.98 159.746,-1250.43 157.094,-1243.95"/>
</g>
<!-- \\LinHUniX\\Mcp\\Model\\mcpDebugModelClass -->
<g id="node10" class="node"><title>\\LinHUniX\\Mcp\\Model\\mcpDebugModelClass</title>
<polygon fill="none" stroke="black" points="672,-1206 534,-1206 534,-1170 672,-1170 672,-1206"/>
<text text-anchor="middle" x="603" y="-1185.2" font-family="Courier,monospace" font-size="11.00">mcpDebugModelClass</text>
</g>
<!-- \\LinHUniX\\Mcp\\Component\\mcpDebugClass -->
<g id="node12" class="node"><title>\\LinHUniX\\Mcp\\Component\\mcpDebugClass</title>
<polygon fill="none" stroke="black" points="909,-1180 805,-1180 805,-1144 909,-1144 909,-1180"/>
<text text-anchor="middle" x="857" y="-1159.2" font-family="Courier,monospace" font-size="11.00">mcpDebugClass</text>
</g>
<!-- \\LinHUniX\\Mcp\\Component\\mcpMenuClass -->
<g id="node13" class="node"><title>\\LinHUniX\\Mcp\\Component\\mcpMenuClass</title>
<polygon fill="none" stroke="black" points="906,-1126 808,-1126 808,-1090 906,-1090 906,-1126"/>
<text text-anchor="middle" x="857" y="-1105.2" font-family="Courier,monospace" font-size="11.00">mcpMenuClass</text>
</g>
<!-- \\LinHUniX\\Mcp\\Component\\mcpMailClass -->
<g id="node14" class="node"><title>\\LinHUniX\\Mcp\\Component\\mcpMailClass</title>
<polygon fill="none" stroke="black" points="906,-1072 808,-1072 808,-1036 906,-1036 906,-1072"/>
<text text-anchor="middle" x="857" y="-1051.2" font-family="Courier,monospace" font-size="11.00">mcpMailClass</text>
</g>
<!-- \\LinHUniX\\Mcp\\Component\\mcpToolsClass -->
<g id="node15" class="node"><title>\\LinHUniX\\Mcp\\Component\\mcpToolsClass</title>
<polygon fill="none" stroke="black" points="909,-1018 805,-1018 805,-982 909,-982 909,-1018"/>
<text text-anchor="middle" x="857" y="-997.2" font-family="Courier,monospace" font-size="11.00">mcpToolsClass</text>
</g>
<!-- \\LinHUniX\\Mcp\\Component\\mcpTemplateClass -->
<g id="node16" class="node"><title>\\LinHUniX\\Mcp\\Component\\mcpTemplateClass</title>
<polygon fill="none" stroke="black" points="919.5,-964 794.5,-964 794.5,-928 919.5,-928 919.5,-964"/>
<text text-anchor="middle" x="857" y="-943.2" font-family="Courier,monospace" font-size="11.00">mcpTemplateClass</text>
</g>
<!-- \\LinHUniX\\Mcp\\Component\\mcpCoreClass -->
<g id="node17" class="node"><title>\\LinHUniX\\Mcp\\Component\\mcpCoreClass</title>
<polygon fill="none" stroke="black" points="906,-910 808,-910 808,-874 906,-874 906,-910"/>
<text text-anchor="middle" x="857" y="-889.2" font-family="Courier,monospace" font-size="11.00">mcpCoreClass</text>
</g>
<!-- \\LinHUniX\\Mcp\\Component\\mcpLanguageClass -->
<g id="node18" class="node"><title>\\LinHUniX\\Mcp\\Component\\mcpLanguageClass</title>
<polygon fill="none" stroke="black" points="919.5,-856 794.5,-856 794.5,-820 919.5,-820 919.5,-856"/>
<text text-anchor="middle" x="857" y="-835.2" font-family="Courier,monospace" font-size="11.00">mcpLanguageClass</text>
</g>
<!-- \\LinHUniX\\Mcp\\Component\\mcpProxyClass -->
<g id="node19" class="node"><title>\\LinHUniX\\Mcp\\Component\\mcpProxyClass</title>
<polygon fill="none" stroke="black" points="909,-802 805,-802 805,-766 909,-766 909,-802"/>
<text text-anchor="middle" x="857" y="-781.2" font-family="Courier,monospace" font-size="11.00">mcpProxyClass</text>
</g>
<!-- \\LinHUniX\\Mcp\\Component\\mcpApiClass -->
<g id="node20" class="node"><title>\\LinHUniX\\Mcp\\Component\\mcpApiClass</title>
<polygon fill="none" stroke="black" points="902.5,-748 811.5,-748 811.5,-712 902.5,-712 902.5,-748"/>
<text text-anchor="middle" x="857" y="-727.2" font-family="Courier,monospace" font-size="11.00">mcpApiClass</text>
</g>
<!-- \\LinHUniX\\Mcp\\Tools\\pharizeShell -->
<g id="node21" class="node"><title>\\LinHUniX\\Mcp\\Tools\\pharizeShell</title>
<polygon fill="none" stroke="black" points="906,-668 808,-668 808,-632 906,-632 906,-668"/>
<text text-anchor="middle" x="857" y="-647.2" font-family="Courier,monospace" font-size="11.00">pharizeShell</text>
</g>
<!-- \\LinHUniX\\Mcp\\Tools\\browserData -->
<g id="node22" class="node"><title>\\LinHUniX\\Mcp\\Tools\\browserData</title>
<polygon fill="none" stroke="black" points="902.5,-614 811.5,-614 811.5,-578 902.5,-578 902.5,-614"/>
<text text-anchor="middle" x="857" y="-593.2" font-family="Courier,monospace" font-size="11.00">browserData</text>
</g>
<!-- \\LinHUniX\\Mcp\\Tools\\pharizeBase -->
<g id="node23" class="node"><title>\\LinHUniX\\Mcp\\Tools\\pharizeBase</title>
<polygon fill="none" stroke="black" points="902.5,-560 811.5,-560 811.5,-524 902.5,-524 902.5,-560"/>
<text text-anchor="middle" x="857" y="-539.2" font-family="Courier,monospace" font-size="11.00">pharizeBase</text>
</g>
<!-- \\LinHUniX\\Mcp\\masterControlProgram -->
<g id="node24" class="node"><title>\\LinHUniX\\Mcp\\masterControlProgram</title>
<polygon fill="none" stroke="black" points="933,-506 781,-506 781,-470 933,-470 933,-506"/>
<text text-anchor="middle" x="857" y="-485.2" font-family="Courier,monospace" font-size="11.00">masterControlProgram</text>
</g>
<!-- \\LinHUniX\\Pdo\\Service\\pdoService -->
<g id="node25" class="node"><title>\\LinHUniX\\Pdo\\Service\\pdoService</title>
<polygon fill="none" stroke="black" points="645,-1992 561,-1992 561,-1956 645,-1956 645,-1992"/>
<text text-anchor="middle" x="603" y="-1971.2" font-family="Courier,monospace" font-size="11.00">pdoService</text>
</g>
<!-- \\LinHUniX\\Pdo\\Service\\pdoService&#45;&gt;\\LinHUniX\\Mcp\\Model\\mcpBaseModelClass -->
<g id="edge3" class="edge"><title>\\LinHUniX\\Pdo\\Service\\pdoService&#45;&gt;\\LinHUniX\\Mcp\\Model\\mcpBaseModelClass</title>
<path fill="none" stroke="black" d="M560.657,-1970.53C504.713,-1963.97 404.136,-1945.43 336.5,-1894"/>
</g>
<!-- \\LinHUniX\\Pdo\\Driver\\pdoDriver -->
<g id="node26" class="node"><title>\\LinHUniX\\Pdo\\Driver\\pdoDriver</title>
<polygon fill="none" stroke="black" points="374,-2206 297,-2206 297,-2170 374,-2170 374,-2206"/>
<text text-anchor="middle" x="335.5" y="-2185.2" font-family="Courier,monospace" font-size="11.00">pdoDriver</text>
</g>
<!-- \\LinHUniX\\Pdo\\Driver\\pdoDriver&#45;&gt;\\LinHUniX\\Mcp\\Model\\mcpBaseModelClass -->
<g id="edge6" class="edge"><title>\\LinHUniX\\Pdo\\Driver\\pdoDriver&#45;&gt;\\LinHUniX\\Mcp\\Model\\mcpBaseModelClass</title>
<path fill="none" stroke="black" d="M306.189,-2169.84C285.237,-2154.81 257.855,-2131.51 243,-2104 164.679,-1958.94 118.764,-1426.34 108.639,-1297.3"/>
<polygon fill="none" stroke="black" points="112.108,-1296.76 107.845,-1287.06 105.129,-1297.3 112.108,-1296.76"/>
</g>
<!-- \\LinHUniX\\Pdo\\Driver\\sqliteDriver -->
<g id="node27" class="node"><title>\\LinHUniX\\Pdo\\Driver\\sqliteDriver</title>
<polygon fill="none" stroke="black" points="652,-2260 554,-2260 554,-2224 652,-2224 652,-2260"/>
<text text-anchor="middle" x="603" y="-2239.2" font-family="Courier,monospace" font-size="11.00">sqliteDriver</text>
</g>
<!-- \\LinHUniX\\Pdo\\Driver\\sqliteDriver&#45;&gt;\\LinHUniX\\Pdo\\Driver\\pdoDriver -->
<g id="edge9" class="edge"><title>\\LinHUniX\\Pdo\\Driver\\sqliteDriver&#45;&gt;\\LinHUniX\\Pdo\\Driver\\pdoDriver</title>
<path fill="none" stroke="black" d="M553.92,-2232.22C505.789,-2222.43 432.172,-2207.46 384.182,-2197.7"/>
<polygon fill="none" stroke="black" points="384.846,-2194.26 374.349,-2195.7 383.451,-2201.12 384.846,-2194.26"/>
</g>
<!-- \\LinHUniX\\Pdo\\Driver\\mysqlDriver -->
<g id="node28" class="node"><title>\\LinHUniX\\Pdo\\Driver\\mysqlDriver</title>
<polygon fill="none" stroke="black" points="648.5,-2206 557.5,-2206 557.5,-2170 648.5,-2170 648.5,-2206"/>
<text text-anchor="middle" x="603" y="-2185.2" font-family="Courier,monospace" font-size="11.00">mysqlDriver</text>
</g>
<!-- \\LinHUniX\\Pdo\\Driver\\mysqlDriver&#45;&gt;\\LinHUniX\\Pdo\\Driver\\pdoDriver -->
<g id="edge10" class="edge"><title>\\LinHUniX\\Pdo\\Driver\\mysqlDriver&#45;&gt;\\LinHUniX\\Pdo\\Driver\\pdoDriver</title>
<path fill="none" stroke="black" d="M557.262,-2188C509.248,-2188 433.278,-2188 384.164,-2188"/>
<polygon fill="none" stroke="black" points="384.11,-2184.5 374.11,-2188 384.11,-2191.5 384.11,-2184.5"/>
</g>
<!-- \\LinHUniX\\Pdo\\Model\\mcpQueryModelClass -->
<g id="node29" class="node"><title>\\LinHUniX\\Pdo\\Model\\mcpQueryModelClass</title>
<polygon fill="none" stroke="black" points="404.5,-2072 266.5,-2072 266.5,-2036 404.5,-2036 404.5,-2072"/>
<text text-anchor="middle" x="335.5" y="-2051.2" font-family="Courier,monospace" font-size="11.00">mcpQueryModelClass</text>
</g>
<!-- \\LinHUniX\\Pdo\\Model\\mcpQueryModelClass&#45;&gt;\\LinHUniX\\Mcp\\Model\\mcpBaseModelClass -->
<g id="edge8" class="edge"><title>\\LinHUniX\\Pdo\\Model\\mcpQueryModelClass&#45;&gt;\\LinHUniX\\Mcp\\Model\\mcpBaseModelClass</title>
<path fill="none" stroke="black" d="M321.183,-2035.91C301.238,-2007.96 263.742,-1951.96 243,-1899 155.929,-1676.7 119.186,-1387.41 109.356,-1297.15"/>
<polygon fill="none" stroke="black" points="112.83,-1296.72 108.289,-1287.14 105.869,-1297.46 112.83,-1296.72"/>
</g>
<!-- \\LinHUniX\\Pdo\\Query\\JsonQuery -->
<g id="node30" class="node"><title>\\LinHUniX\\Pdo\\Query\\JsonQuery</title>
<polygon fill="none" stroke="black" points="641.5,-2126 564.5,-2126 564.5,-2090 641.5,-2090 641.5,-2126"/>
<text text-anchor="middle" x="603" y="-2105.2" font-family="Courier,monospace" font-size="11.00">JsonQuery</text>
</g>
<!-- \\LinHUniX\\Pdo\\Query\\JsonQuery&#45;&gt;\\LinHUniX\\Pdo\\Model\\mcpQueryModelClass -->
<g id="edge13" class="edge"><title>\\LinHUniX\\Pdo\\Query\\JsonQuery&#45;&gt;\\LinHUniX\\Pdo\\Model\\mcpQueryModelClass</title>
<path fill="none" stroke="black" d="M564.242,-2100.32C525.468,-2092.43 463.987,-2079.93 414.673,-2069.9"/>
<polygon fill="none" stroke="black" points="415.163,-2066.43 404.666,-2067.86 413.767,-2073.29 415.163,-2066.43"/>
</g>
<!-- \\LinHUniX\\Pdo\\Query\\ArrayQuery -->
<g id="node31" class="node"><title>\\LinHUniX\\Pdo\\Query\\ArrayQuery</title>
<polygon fill="none" stroke="black" points="645,-2072 561,-2072 561,-2036 645,-2036 645,-2072"/>
<text text-anchor="middle" x="603" y="-2051.2" font-family="Courier,monospace" font-size="11.00">ArrayQuery</text>
</g>
<!-- \\LinHUniX\\Pdo\\Query\\ArrayQuery&#45;&gt;\\LinHUniX\\Pdo\\Model\\mcpQueryModelClass -->
<g id="edge14" class="edge"><title>\\LinHUniX\\Pdo\\Query\\ArrayQuery&#45;&gt;\\LinHUniX\\Pdo\\Model\\mcpQueryModelClass</title>
<path fill="none" stroke="black" d="M560.807,-2054C521.917,-2054 462.586,-2054 414.711,-2054"/>
<polygon fill="none" stroke="black" points="414.68,-2050.5 404.68,-2054 414.68,-2057.5 414.68,-2050.5"/>
</g>
<!-- \\LinHUniX\\Gfx\\Service\\gfxService -->
<g id="node32" class="node"><title>\\LinHUniX\\Gfx\\Service\\gfxService</title>
<polygon fill="none" stroke="black" points="645,-1876 561,-1876 561,-1840 645,-1840 645,-1876"/>
<text text-anchor="middle" x="603" y="-1855.2" font-family="Courier,monospace" font-size="11.00">gfxService</text>
</g>
<!-- \\LinHUniX\\Gfx\\Service\\gfxService&#45;&gt;\\LinHUniX\\Mcp\\Model\\mcpBaseModelClass -->
<g id="edge5" class="edge"><title>\\LinHUniX\\Gfx\\Service\\gfxService&#45;&gt;\\LinHUniX\\Mcp\\Model\\mcpBaseModelClass</title>
<path fill="none" stroke="black" d="M569.189,-1876.13C514.905,-1903.4 405.555,-1946.51 336.5,-1894"/>
<path fill="none" stroke="black" d="M334.5,-1894C134.684,-1742.06 109.812,-1397.65 106.858,-1297.07"/>
<polygon fill="none" stroke="black" points="110.357,-1296.98 106.615,-1287.07 103.359,-1297.15 110.357,-1296.98"/>
</g>
<!-- \\LinHUniX\\Gfx\\Component\\zebra_image -->
<g id="node33" class="node"><title>\\LinHUniX\\Gfx\\Component\\zebra_image</title>
<polygon fill="none" stroke="black" points="648.5,-1796 557.5,-1796 557.5,-1760 648.5,-1760 648.5,-1796"/>
<text text-anchor="middle" x="603" y="-1775.2" font-family="Courier,monospace" font-size="11.00">zebra_image</text>
</g>
<!-- \\LinHUniX\\Gfx\\Component\\html2text -->
<g id="node34" class="node"><title>\\LinHUniX\\Gfx\\Component\\html2text</title>
<polygon fill="none" stroke="black" points="641.5,-1742 564.5,-1742 564.5,-1706 641.5,-1706 641.5,-1742"/>
<text text-anchor="middle" x="603" y="-1721.2" font-family="Courier,monospace" font-size="11.00">html2text</text>
</g>
<!-- \\LinHUniX\\Gfx\\Controller\\uploadController -->
<g id="node35" class="node"><title>\\LinHUniX\\Gfx\\Controller\\uploadController</title>
<polygon fill="none" stroke="black" points="665.5,-1662 540.5,-1662 540.5,-1626 665.5,-1626 665.5,-1662"/>
<text text-anchor="middle" x="603" y="-1641.2" font-family="Courier,monospace" font-size="11.00">uploadController</text>
</g>
<!-- \\LinHUniX\\Gfx\\Controller\\uploadController&#45;&gt;\\LinHUniX\\Mcp\\Model\\mcpRemoteApiModelClass -->
<g id="edge12" class="edge"><title>\\LinHUniX\\Gfx\\Controller\\uploadController&#45;&gt;\\LinHUniX\\Mcp\\Model\\mcpRemoteApiModelClass</title>
<path fill="none" stroke="black" d="M559.58,-1625.98C538.657,-1615.03 514.798,-1599.05 500,-1578 418.906,-1462.64 524.777,-1371.56 428,-1269 427.204,-1268.16 426.384,-1267.34 425.54,-1266.55"/>
<polygon fill="none" stroke="black" points="427.391,-1263.55 417.382,-1260.08 423.041,-1269.03 427.391,-1263.55"/>
</g>
<!-- \\LinHUniX\\Mail\\Component\\SMTP -->
<g id="node36" class="node"><title>\\LinHUniX\\Mail\\Component\\SMTP</title>
<polygon fill="none" stroke="black" points="362.5,-318 308.5,-318 308.5,-282 362.5,-282 362.5,-318"/>
<text text-anchor="middle" x="335.5" y="-297.2" font-family="Courier,monospace" font-size="11.00">SMTP</text>
</g>
<!-- \\LinHUniX\\Mail\\Component\\PHPMailer -->
<g id="node37" class="node"><title>\\LinHUniX\\Mail\\Component\\PHPMailer</title>
<polygon fill="none" stroke="black" points="374,-264 297,-264 297,-228 374,-228 374,-264"/>
<text text-anchor="middle" x="335.5" y="-243.2" font-family="Courier,monospace" font-size="11.00">PHPMailer</text>
</g>
<!-- \\LinHUniX\\Mail\\Component\\phpmailerException -->
<g id="node38" class="node"><title>\\LinHUniX\\Mail\\Component\\phpmailerException</title>
<polygon fill="none" stroke="black" points="404.5,-210 266.5,-210 266.5,-174 404.5,-174 404.5,-210"/>
<text text-anchor="middle" x="335.5" y="-189.2" font-family="Courier,monospace" font-size="11.00">phpmailerException</text>
</g>
<!-- \\Exception -->
<g id="node45" class="node"><title>\\Exception</title>
<ellipse fill="none" stroke="black" cx="105.5" cy="-18" rx="50.8918" ry="18"/>
<text text-anchor="middle" x="105.5" y="-14.3" font-family="Times,serif" font-size="14.00" fill="gray">\Exception</text>
</g>
<!-- \\LinHUniX\\Mail\\Component\\phpmailerException&#45;&gt;\\Exception -->
<g id="edge19" class="edge"><title>\\LinHUniX\\Mail\\Component\\phpmailerException&#45;&gt;\\Exception</title>
<path fill="none" stroke="black" d="M266.261,-176.346C258.131,-173.197 250.18,-169.449 243,-165 191.636,-133.177 147.198,-76.9705 123.89,-44.0473"/>
<polygon fill="none" stroke="black" points="126.743,-42.0204 118.157,-35.8129 120.998,-46.0198 126.743,-42.0204"/>
</g>
<!-- \\LinHUniX\\Mail\\Component\\POP3 -->
<g id="node39" class="node"><title>\\LinHUniX\\Mail\\Component\\POP3</title>
<polygon fill="none" stroke="black" points="362.5,-156 308.5,-156 308.5,-120 362.5,-120 362.5,-156"/>
<text text-anchor="middle" x="335.5" y="-135.2" font-family="Courier,monospace" font-size="11.00">POP3</text>
</g>
<!-- \\LinHUniX\\Mail\\Service\\mailService -->
<g id="node40" class="node"><title>\\LinHUniX\\Mail\\Service\\mailService</title>
<polygon fill="none" stroke="black" points="381,-398 290,-398 290,-362 381,-362 381,-398"/>
<text text-anchor="middle" x="335.5" y="-377.2" font-family="Courier,monospace" font-size="11.00">mailService</text>
</g>
<!-- \\LinHUniX\\Mail\\Service\\mailService&#45;&gt;\\LinHUniX\\Mcp\\Model\\mcpBaseModelClass -->
<g id="edge21" class="edge"><title>\\LinHUniX\\Mail\\Service\\mailService&#45;&gt;\\LinHUniX\\Mcp\\Model\\mcpBaseModelClass</title>
<path fill="none" stroke="black" d="M329.842,-398.161C301.16,-509.996 148.591,-1104.88 113.638,-1241.17"/>
<polygon fill="none" stroke="black" points="110.244,-1240.31 111.15,-1250.87 117.025,-1242.05 110.244,-1240.31"/>
</g>
<!-- \\LinHUniX\\ln4\\Controller\\ln4Controller -->
<g id="node41" class="node"><title>\\LinHUniX\\ln4\\Controller\\ln4Controller</title>
<polygon fill="none" stroke="black" points="655,-1546 551,-1546 551,-1510 655,-1510 655,-1546"/>
<text text-anchor="middle" x="603" y="-1525.2" font-family="Courier,monospace" font-size="11.00">ln4Controller</text>
</g>
<!-- \\LinHUniX\\ln4\\Controller\\ln4Controller&#45;&gt;\\LinHUniX\\Mcp\\Model\\mcpRemoteApiModelClass -->
<g id="edge18" class="edge"><title>\\LinHUniX\\ln4\\Controller\\ln4Controller&#45;&gt;\\LinHUniX\\Mcp\\Model\\mcpRemoteApiModelClass</title>
<path fill="none" stroke="black" d="M562.179,-1509.99C541.218,-1498.77 516.512,-1482.55 500,-1462 442.662,-1390.63 494.967,-1331.43 428,-1269 426.864,-1267.94 425.689,-1266.92 424.479,-1265.95"/>
<polygon fill="none" stroke="black" points="426.232,-1262.9 416.027,-1260.05 422.228,-1268.64 426.232,-1262.9"/>
</g>
<!-- \\LinHUniX\\Auth\\Service\\authService -->
<g id="node42" class="node"><title>\\LinHUniX\\Auth\\Service\\authService</title>
<polygon fill="none" stroke="black" points="648.5,-1430 557.5,-1430 557.5,-1394 648.5,-1394 648.5,-1430"/>
<text text-anchor="middle" x="603" y="-1409.2" font-family="Courier,monospace" font-size="11.00">authService</text>
</g>
<!-- \\LinHUniX\\Auth\\Service\\authService&#45;&gt;\\LinHUniX\\Mcp\\Model\\mcpServiceModelClass -->
<g id="edge20" class="edge"><title>\\LinHUniX\\Auth\\Service\\authService&#45;&gt;\\LinHUniX\\Mcp\\Model\\mcpServiceModelClass</title>
<path fill="none" stroke="black" d="M564.795,-1393.82C543.893,-1382.26 518.393,-1365.76 500,-1346 454.738,-1297.37 479.76,-1256.65 428,-1215 425.702,-1213.15 423.28,-1211.43 420.763,-1209.82"/>
<polygon fill="none" stroke="black" points="422.312,-1206.68 411.883,-1204.81 418.87,-1212.77 422.312,-1206.68"/>
</g>
<!-- \\mcpAutoload -->
<g id="node43" class="node"><title>\\mcpAutoload</title>
<polygon fill="none" stroke="black" points="902.5,-88 811.5,-88 811.5,-52 902.5,-52 902.5,-88"/>
<text text-anchor="middle" x="857" y="-67.2" font-family="Courier,monospace" font-size="11.00">mcpAutoload</text>
</g>
</g>
</svg>
