<?xml version="1.0" encoding="UTF-8" standalone="no"?>
<!DOCTYPE svg PUBLIC "-//W3C//DTD SVG 1.1//EN"
 "http://www.w3.org/Graphics/SVG/1.1/DTD/svg11.dtd">
<!-- Generated by graphviz version 2.38.0 (20140413.2041)
 -->
<!-- Title: G Pages: 1 -->
<svg width="727pt" height="1942pt"
 viewBox="0.00 0.00 727.00 1942.00" xmlns="http://www.w3.org/2000/svg" xmlns:xlink="http://www.w3.org/1999/xlink">
<g id="graph0" class="graph" transform="scale(1 1) rotate(0) translate(4 1938)">
<title>G</title>
<polygon fill="white" stroke="none" points="-4,4 -4,-1938 723,-1938 723,4 -4,4"/>
<g id="clust1" class="cluster"><title>cluster_Global</title>
<path fill="none" stroke="gray" d="M20,-98C20,-98 699,-98 699,-98 705,-98 711,-104 711,-110 711,-110 711,-1914 711,-1914 711,-1920 705,-1926 699,-1926 699,-1926 20,-1926 20,-1926 14,-1926 8,-1920 8,-1914 8,-1914 8,-110 8,-110 8,-104 14,-98 20,-98"/>
<text text-anchor="middle" x="359.5" y="-1913.2" font-family="Times,serif" font-size="11.00" fill="gray">Global</text>
</g>
<g id="clust2" class="cluster"><title>cluster_\LinHUniX</title>
<path fill="none" stroke="gray" d="M28,-204C28,-204 691,-204 691,-204 697,-204 703,-210 703,-216 703,-216 703,-1886 703,-1886 703,-1892 697,-1898 691,-1898 691,-1898 28,-1898 28,-1898 22,-1898 16,-1892 16,-1886 16,-1886 16,-216 16,-216 16,-210 22,-204 28,-204"/>
<text text-anchor="middle" x="359.5" y="-1885.2" font-family="Times,serif" font-size="11.00" fill="gray">LinHUniX</text>
</g>
<g id="clust3" class="cluster"><title>cluster_\LinHUniX\Mcp</title>
<path fill="none" stroke="gray" d="M36,-570C36,-570 683,-570 683,-570 689,-570 695,-576 695,-582 695,-582 695,-1412 695,-1412 695,-1418 689,-1424 683,-1424 683,-1424 36,-1424 36,-1424 30,-1424 24,-1418 24,-1412 24,-1412 24,-582 24,-582 24,-576 30,-570 36,-570"/>
<text text-anchor="middle" x="359.5" y="-1411.2" font-family="Times,serif" font-size="11.00" fill="gray">Mcp</text>
</g>
<g id="clust4" class="cluster"><title>cluster_\LinHUniX\Mcp\Provider</title>
<path fill="none" stroke="gray" d="M525,-1270C525,-1270 675,-1270 675,-1270 681,-1270 687,-1276 687,-1282 687,-1282 687,-1384 687,-1384 687,-1390 681,-1396 675,-1396 675,-1396 525,-1396 525,-1396 519,-1396 513,-1390 513,-1384 513,-1384 513,-1282 513,-1282 513,-1276 519,-1270 525,-1270"/>
<text text-anchor="middle" x="600" y="-1383.2" font-family="Times,serif" font-size="11.00" fill="gray">Provider</text>
</g>
<g id="clust5" class="cluster"><title>cluster_\LinHUniX\Mcp\Model</title>
<path fill="none" stroke="gray" d="M44,-1108C44,-1108 445,-1108 445,-1108 451,-1108 457,-1114 457,-1120 457,-1120 457,-1384 457,-1384 457,-1390 451,-1396 445,-1396 445,-1396 44,-1396 44,-1396 38,-1396 32,-1390 32,-1384 32,-1384 32,-1120 32,-1120 32,-1114 38,-1108 44,-1108"/>
<text text-anchor="middle" x="244.5" y="-1383.2" font-family="Times,serif" font-size="11.00" fill="gray">Model</text>
</g>
<g id="clust6" class="cluster"><title>cluster_\LinHUniX\Mcp\Component</title>
<path fill="none" stroke="gray" d="M541.5,-812C541.5,-812 658.5,-812 658.5,-812 664.5,-812 670.5,-818 670.5,-824 670.5,-824 670.5,-1250 670.5,-1250 670.5,-1256 664.5,-1262 658.5,-1262 658.5,-1262 541.5,-1262 541.5,-1262 535.5,-1262 529.5,-1256 529.5,-1250 529.5,-1250 529.5,-824 529.5,-824 529.5,-818 535.5,-812 541.5,-812"/>
<text text-anchor="middle" x="600" y="-1249.2" font-family="Times,serif" font-size="11.00" fill="gray">Component</text>
</g>
<g id="clust7" class="cluster"><title>cluster_\LinHUniX\Mcp\Tools</title>
<path fill="none" stroke="gray" d="M555,-624C555,-624 645,-624 645,-624 651,-624 657,-630 657,-636 657,-636 657,-792 657,-792 657,-798 651,-804 645,-804 645,-804 555,-804 555,-804 549,-804 543,-798 543,-792 543,-792 543,-636 543,-636 543,-630 549,-624 555,-624"/>
<text text-anchor="middle" x="600" y="-791.2" font-family="Times,serif" font-size="11.00" fill="gray">Tools</text>
</g>
<g id="clust8" class="cluster"><title>cluster_\LinHUniX\Pdo</title>
<path fill="none" stroke="gray" d="M273,-1432C273,-1432 653,-1432 653,-1432 659,-1432 665,-1438 665,-1444 665,-1444 665,-1742 665,-1742 665,-1748 659,-1754 653,-1754 653,-1754 273,-1754 273,-1754 267,-1754 261,-1748 261,-1742 261,-1742 261,-1444 261,-1444 261,-1438 267,-1432 273,-1432"/>
<text text-anchor="middle" x="463" y="-1741.2" font-family="Times,serif" font-size="11.00" fill="gray">Pdo</text>
</g>
<g id="clust9" class="cluster"><title>cluster_\LinHUniX\Pdo\Service</title>
<path fill="none" stroke="gray" d="M562,-1440C562,-1440 638,-1440 638,-1440 644,-1440 650,-1446 650,-1452 650,-1452 650,-1500 650,-1500 650,-1506 644,-1512 638,-1512 638,-1512 562,-1512 562,-1512 556,-1512 550,-1506 550,-1500 550,-1500 550,-1452 550,-1452 550,-1446 556,-1440 562,-1440"/>
<text text-anchor="middle" x="600" y="-1499.2" font-family="Times,serif" font-size="11.00" fill="gray">Service</text>
</g>
<g id="clust10" class="cluster"><title>cluster_\LinHUniX\Pdo\Driver</title>
<path fill="none" stroke="gray" d="M311.5,-1600C311.5,-1600 645,-1600 645,-1600 651,-1600 657,-1606 657,-1612 657,-1612 657,-1714 657,-1714 657,-1720 651,-1726 645,-1726 645,-1726 311.5,-1726 311.5,-1726 305.5,-1726 299.5,-1720 299.5,-1714 299.5,-1714 299.5,-1612 299.5,-1612 299.5,-1606 305.5,-1600 311.5,-1600"/>
<text text-anchor="middle" x="478.25" y="-1713.2" font-family="Times,serif" font-size="11.00" fill="gray">Driver</text>
</g>
<g id="clust11" class="cluster"><title>cluster_\LinHUniX\Pdo\Model</title>
<path fill="none" stroke="gray" d="M281,-1480C281,-1480 411,-1480 411,-1480 417,-1480 423,-1486 423,-1492 423,-1492 423,-1540 423,-1540 423,-1546 417,-1552 411,-1552 411,-1552 281,-1552 281,-1552 275,-1552 269,-1546 269,-1540 269,-1540 269,-1492 269,-1492 269,-1486 275,-1480 281,-1480"/>
<text text-anchor="middle" x="346" y="-1539.2" font-family="Times,serif" font-size="11.00" fill="gray">Model</text>
</g>
<g id="clust12" class="cluster"><title>cluster_\LinHUniX\Pdo\Query</title>
<path fill="none" stroke="gray" d="M565.5,-1520C565.5,-1520 634.5,-1520 634.5,-1520 640.5,-1520 646.5,-1526 646.5,-1532 646.5,-1532 646.5,-1580 646.5,-1580 646.5,-1586 640.5,-1592 634.5,-1592 634.5,-1592 565.5,-1592 565.5,-1592 559.5,-1592 553.5,-1586 553.5,-1580 553.5,-1580 553.5,-1532 553.5,-1532 553.5,-1526 559.5,-1520 565.5,-1520"/>
<text text-anchor="middle" x="600" y="-1579.2" font-family="Times,serif" font-size="11.00" fill="gray">Query</text>
</g>
<g id="clust13" class="cluster"><title>cluster_\LinHUniX\Gfx</title>
<path fill="none" stroke="gray" d="M300,-1762C300,-1762 392,-1762 392,-1762 398,-1762 404,-1768 404,-1774 404,-1774 404,-1858 404,-1858 404,-1864 398,-1870 392,-1870 392,-1870 300,-1870 300,-1870 294,-1870 288,-1864 288,-1858 288,-1858 288,-1774 288,-1774 288,-1768 294,-1762 300,-1762"/>
<text text-anchor="middle" x="346" y="-1857.2" font-family="Times,serif" font-size="11.00" fill="gray">Gfx</text>
</g>
<g id="clust14" class="cluster"><title>cluster_\LinHUniX\Gfx\Service</title>
<path fill="none" stroke="gray" d="M308,-1770C308,-1770 384,-1770 384,-1770 390,-1770 396,-1776 396,-1782 396,-1782 396,-1830 396,-1830 396,-1836 390,-1842 384,-1842 384,-1842 308,-1842 308,-1842 302,-1842 296,-1836 296,-1830 296,-1830 296,-1782 296,-1782 296,-1776 302,-1770 308,-1770"/>
<text text-anchor="middle" x="346" y="-1829.2" font-family="Times,serif" font-size="11.00" fill="gray">Service</text>
</g>
<g id="clust15" class="cluster"><title>cluster_\LinHUniX\Mail</title>
<path fill="none" stroke="gray" d="M273,-212C273,-212 419,-212 419,-212 425,-212 431,-218 431,-224 431,-224 431,-550 431,-550 431,-556 425,-562 419,-562 419,-562 273,-562 273,-562 267,-562 261,-556 261,-550 261,-550 261,-224 261,-224 261,-218 267,-212 273,-212"/>
<text text-anchor="middle" x="346" y="-549.2" font-family="Times,serif" font-size="11.00" fill="gray">Mail</text>
</g>
<g id="clust16" class="cluster"><title>cluster_\LinHUniX\Mail\Component</title>
<path fill="none" stroke="gray" d="M281,-220C281,-220 411,-220 411,-220 417,-220 423,-226 423,-232 423,-232 423,-442 423,-442 423,-448 417,-454 411,-454 411,-454 281,-454 281,-454 275,-454 269,-448 269,-442 269,-442 269,-232 269,-232 269,-226 275,-220 281,-220"/>
<text text-anchor="middle" x="346" y="-441.2" font-family="Times,serif" font-size="11.00" fill="gray">Component</text>
</g>
<g id="clust17" class="cluster"><title>cluster_\LinHUniX\Mail\Service</title>
<path fill="none" stroke="gray" d="M304.5,-462C304.5,-462 387.5,-462 387.5,-462 393.5,-462 399.5,-468 399.5,-474 399.5,-474 399.5,-522 399.5,-522 399.5,-528 393.5,-534 387.5,-534 387.5,-534 304.5,-534 304.5,-534 298.5,-534 292.5,-528 292.5,-522 292.5,-522 292.5,-474 292.5,-474 292.5,-468 298.5,-462 304.5,-462"/>
<text text-anchor="middle" x="346" y="-521.2" font-family="Times,serif" font-size="11.00" fill="gray">Service</text>
</g>
<g id="clust18" class="cluster"><title>cluster_\LinHUniX\ln4</title>
<path fill="none" stroke="gray" d="M544,-454C544,-454 656,-454 656,-454 662,-454 668,-460 668,-466 668,-466 668,-550 668,-550 668,-556 662,-562 656,-562 656,-562 544,-562 544,-562 538,-562 532,-556 532,-550 532,-550 532,-466 532,-466 532,-460 538,-454 544,-454"/>
<text text-anchor="middle" x="600" y="-549.2" font-family="Times,serif" font-size="11.00" fill="gray">ln4</text>
</g>
<g id="clust19" class="cluster"><title>cluster_\LinHUniX\ln4\Controller</title>
<path fill="none" stroke="gray" d="M552,-462C552,-462 648,-462 648,-462 654,-462 660,-468 660,-474 660,-474 660,-522 660,-522 660,-528 654,-534 648,-534 648,-534 552,-534 552,-534 546,-534 540,-528 540,-522 540,-522 540,-474 540,-474 540,-468 546,-462 552,-462"/>
<text text-anchor="middle" x="600" y="-521.2" font-family="Times,serif" font-size="11.00" fill="gray">Controller</text>
</g>
<!-- \\LinHUniX\\Mcp\\Provider\\loggerProviderModel -->
<g id="node1" class="node"><title>\\LinHUniX\\Mcp\\Provider\\loggerProviderModel</title>
<polygon fill="none" stroke="black" points="672.5,-1368 527.5,-1368 527.5,-1332 672.5,-1332 672.5,-1368"/>
<text text-anchor="middle" x="600" y="-1347.2" font-family="Courier,monospace" font-size="11.00">loggerProviderModel</text>
</g>
<!-- \\LinHUniX\\Mcp\\Model\\mcpServiceProviderModelClass -->
<g id="node8" class="node"><title>\\LinHUniX\\Mcp\\Model\\mcpServiceProviderModelClass</title>
<polygon fill="none" stroke="black" points="449,-1368 243,-1368 243,-1332 449,-1332 449,-1368"/>
<text text-anchor="middle" x="346" y="-1347.2" font-family="Courier,monospace" font-size="11.00">mcpServiceProviderModelClass</text>
</g>
<!-- \\LinHUniX\\Mcp\\Provider\\loggerProviderModel&#45;&gt;\\LinHUniX\\Mcp\\Model\\mcpServiceProviderModelClass -->
<g id="edge1" class="edge"><title>\\LinHUniX\\Mcp\\Provider\\loggerProviderModel&#45;&gt;\\LinHUniX\\Mcp\\Model\\mcpServiceProviderModelClass</title>
<path fill="none" stroke="black" stroke-dasharray="1,5" d="M527.461,-1350C506.293,-1350 482.585,-1350 459.49,-1350"/>
<polygon fill="none" stroke="black" points="459.288,-1346.5 449.288,-1350 459.288,-1353.5 459.288,-1346.5"/>
</g>
<!-- \\LinHUniX\\Mcp\\Provider\\settingsProviderModel -->
<g id="node2" class="node"><title>\\LinHUniX\\Mcp\\Provider\\settingsProviderModel</title>
<polygon fill="none" stroke="black" points="679,-1314 521,-1314 521,-1278 679,-1278 679,-1314"/>
<text text-anchor="middle" x="600" y="-1293.2" font-family="Courier,monospace" font-size="11.00">settingsProviderModel</text>
</g>
<!-- \\LinHUniX\\Mcp\\Provider\\settingsProviderModel&#45;&gt;\\LinHUniX\\Mcp\\Model\\mcpServiceProviderModelClass -->
<g id="edge12" class="edge"><title>\\LinHUniX\\Mcp\\Provider\\settingsProviderModel&#45;&gt;\\LinHUniX\\Mcp\\Model\\mcpServiceProviderModelClass</title>
<path fill="none" stroke="black" stroke-dasharray="1,5" d="M520.991,-1312.72C495.741,-1318.13 467.467,-1324.19 441.172,-1329.82"/>
<polygon fill="none" stroke="black" points="440.246,-1326.44 431.202,-1331.96 441.713,-1333.28 440.246,-1326.44"/>
</g>
<!-- \\LinHUniX\\Mcp\\Model\\mcpRemoteObjectModelClass -->
<g id="node3" class="node"><title>\\LinHUniX\\Mcp\\Model\\mcpRemoteObjectModelClass</title>
<polygon fill="none" stroke="black" points="438.5,-1314 253.5,-1314 253.5,-1278 438.5,-1278 438.5,-1314"/>
<text text-anchor="middle" x="346" y="-1293.2" font-family="Courier,monospace" font-size="11.00">mcpRemoteObjectModelClass</text>
</g>
<!-- \\LinHUniX\\Mcp\\Model\\mcpBaseModelClass -->
<g id="node4" class="node"><title>\\LinHUniX\\Mcp\\Model\\mcpBaseModelClass</title>
<polygon fill="none" stroke="black" points="171,-1368 40,-1368 40,-1332 171,-1332 171,-1368"/>
<text text-anchor="middle" x="105.5" y="-1347.2" font-family="Courier,monospace" font-size="11.00">mcpBaseModelClass</text>
</g>
<!-- \\LinHUniX\\Mcp\\Model\\mcpRemoteObjectModelClass&#45;&gt;\\LinHUniX\\Mcp\\Model\\mcpBaseModelClass -->
<g id="edge2" class="edge"><title>\\LinHUniX\\Mcp\\Model\\mcpRemoteObjectModelClass&#45;&gt;\\LinHUniX\\Mcp\\Model\\mcpBaseModelClass</title>
<path fill="none" stroke="black" d="M265.251,-1314.06C238.114,-1320.2 207.9,-1327.04 181.175,-1333.09"/>
<polygon fill="none" stroke="black" points="180.097,-1329.75 171.116,-1335.37 181.643,-1336.58 180.097,-1329.75"/>
</g>
<!-- \\LinHUniX\\Mcp\\Model\\mcpConfigArrayModelClass -->
<g id="node5" class="node"><title>\\LinHUniX\\Mcp\\Model\\mcpConfigArrayModelClass</title>
<polygon fill="none" stroke="black" points="435.5,-1152 256.5,-1152 256.5,-1116 435.5,-1116 435.5,-1152"/>
<text text-anchor="middle" x="346" y="-1131.2" font-family="Courier,monospace" font-size="11.00">mcpConfigArrayModelClass</text>
</g>
<!-- \\ArrayAccess -->
<g id="node36" class="node"><title>\\ArrayAccess</title>
<ellipse fill="none" stroke="black" cx="105.5" cy="-72" rx="61.99" ry="18"/>
<text text-anchor="middle" x="105.5" y="-68.3" font-family="Times,serif" font-size="14.00" fill="gray">\ArrayAccess</text>
</g>
<!-- \\LinHUniX\\Mcp\\Model\\mcpConfigArrayModelClass&#45;&gt;\\ArrayAccess -->
<g id="edge4" class="edge"><title>\\LinHUniX\\Mcp\\Model\\mcpConfigArrayModelClass&#45;&gt;\\ArrayAccess</title>
<path fill="none" stroke="black" stroke-dasharray="1,5" d="M340.86,-1115.57C312.53,-989.416 147.347,-253.884 112.824,-100.159"/>
<polygon fill="none" stroke="black" points="116.174,-99.1022 110.568,-90.1122 109.344,-100.636 116.174,-99.1022"/>
</g>
<!-- \\LinHUniX\\Mcp\\Model\\mcpRemoteApiModelClass -->
<g id="node6" class="node"><title>\\LinHUniX\\Mcp\\Model\\mcpRemoteApiModelClass</title>
<polygon fill="none" stroke="black" points="428.5,-1260 263.5,-1260 263.5,-1224 428.5,-1224 428.5,-1260"/>
<text text-anchor="middle" x="346" y="-1239.2" font-family="Courier,monospace" font-size="11.00">mcpRemoteApiModelClass</text>
</g>
<!-- \\LinHUniX\\Mcp\\Model\\mcpRemoteApiModelClass&#45;&gt;\\LinHUniX\\Mcp\\Model\\mcpBaseModelClass -->
<g id="edge11" class="edge"><title>\\LinHUniX\\Mcp\\Model\\mcpRemoteApiModelClass&#45;&gt;\\LinHUniX\\Mcp\\Model\\mcpBaseModelClass</title>
<path fill="none" stroke="black" d="M267.655,-1260.03C259.222,-1262.72 250.855,-1265.71 243,-1269 206.243,-1284.42 167.445,-1308.27 140.647,-1326.11"/>
<polygon fill="none" stroke="black" points="138.378,-1323.42 132.039,-1331.9 142.289,-1329.22 138.378,-1323.42"/>
</g>
<!-- \\LinHUniX\\Mcp\\Model\\mcpDebugModelClass -->
<g id="node7" class="node"><title>\\LinHUniX\\Mcp\\Model\\mcpDebugModelClass</title>
<polygon fill="none" stroke="black" points="415,-1206 277,-1206 277,-1170 415,-1170 415,-1206"/>
<text text-anchor="middle" x="346" y="-1185.2" font-family="Courier,monospace" font-size="11.00">mcpDebugModelClass</text>
</g>
<!-- \\LinHUniX\\Mcp\\Component\\mcpDebugClass -->
<g id="node9" class="node"><title>\\LinHUniX\\Mcp\\Component\\mcpDebugClass</title>
<polygon fill="none" stroke="black" points="652,-1234 548,-1234 548,-1198 652,-1198 652,-1234"/>
<text text-anchor="middle" x="600" y="-1213.2" font-family="Courier,monospace" font-size="11.00">mcpDebugClass</text>
</g>
<!-- \\LinHUniX\\Mcp\\Component\\mcpMenuClass -->
<g id="node10" class="node"><title>\\LinHUniX\\Mcp\\Component\\mcpMenuClass</title>
<polygon fill="none" stroke="black" points="649,-1180 551,-1180 551,-1144 649,-1144 649,-1180"/>
<text text-anchor="middle" x="600" y="-1159.2" font-family="Courier,monospace" font-size="11.00">mcpMenuClass</text>
</g>
<!-- \\LinHUniX\\Mcp\\Component\\mcpMailClass -->
<g id="node11" class="node"><title>\\LinHUniX\\Mcp\\Component\\mcpMailClass</title>
<polygon fill="none" stroke="black" points="649,-1126 551,-1126 551,-1090 649,-1090 649,-1126"/>
<text text-anchor="middle" x="600" y="-1105.2" font-family="Courier,monospace" font-size="11.00">mcpMailClass</text>
</g>
<!-- \\LinHUniX\\Mcp\\Component\\mcpToolsClass -->
<g id="node12" class="node"><title>\\LinHUniX\\Mcp\\Component\\mcpToolsClass</title>
<polygon fill="none" stroke="black" points="652,-1072 548,-1072 548,-1036 652,-1036 652,-1072"/>
<text text-anchor="middle" x="600" y="-1051.2" font-family="Courier,monospace" font-size="11.00">mcpToolsClass</text>
</g>
<!-- \\LinHUniX\\Mcp\\Component\\mcpTemplateClass -->
<g id="node13" class="node"><title>\\LinHUniX\\Mcp\\Component\\mcpTemplateClass</title>
<polygon fill="none" stroke="black" points="662.5,-1018 537.5,-1018 537.5,-982 662.5,-982 662.5,-1018"/>
<text text-anchor="middle" x="600" y="-997.2" font-family="Courier,monospace" font-size="11.00">mcpTemplateClass</text>
</g>
<!-- \\LinHUniX\\Mcp\\Component\\mcpCoreClass -->
<g id="node14" class="node"><title>\\LinHUniX\\Mcp\\Component\\mcpCoreClass</title>
<polygon fill="none" stroke="black" points="649,-964 551,-964 551,-928 649,-928 649,-964"/>
<text text-anchor="middle" x="600" y="-943.2" font-family="Courier,monospace" font-size="11.00">mcpCoreClass</text>
</g>
<!-- \\LinHUniX\\Mcp\\Component\\mcpLanguageClass -->
<g id="node15" class="node"><title>\\LinHUniX\\Mcp\\Component\\mcpLanguageClass</title>
<polygon fill="none" stroke="black" points="662.5,-910 537.5,-910 537.5,-874 662.5,-874 662.5,-910"/>
<text text-anchor="middle" x="600" y="-889.2" font-family="Courier,monospace" font-size="11.00">mcpLanguageClass</text>
</g>
<!-- \\LinHUniX\\Mcp\\Component\\mcpProxyClass -->
<g id="node16" class="node"><title>\\LinHUniX\\Mcp\\Component\\mcpProxyClass</title>
<polygon fill="none" stroke="black" points="652,-856 548,-856 548,-820 652,-820 652,-856"/>
<text text-anchor="middle" x="600" y="-835.2" font-family="Courier,monospace" font-size="11.00">mcpProxyClass</text>
</g>
<!-- \\LinHUniX\\Mcp\\Tools\\pharizeShell -->
<g id="node17" class="node"><title>\\LinHUniX\\Mcp\\Tools\\pharizeShell</title>
<polygon fill="none" stroke="black" points="649,-776 551,-776 551,-740 649,-740 649,-776"/>
<text text-anchor="middle" x="600" y="-755.2" font-family="Courier,monospace" font-size="11.00">pharizeShell</text>
</g>
<!-- \\LinHUniX\\Mcp\\Tools\\browserData -->
<g id="node18" class="node"><title>\\LinHUniX\\Mcp\\Tools\\browserData</title>
<polygon fill="none" stroke="black" points="645.5,-722 554.5,-722 554.5,-686 645.5,-686 645.5,-722"/>
<text text-anchor="middle" x="600" y="-701.2" font-family="Courier,monospace" font-size="11.00">browserData</text>
</g>
<!-- \\LinHUniX\\Mcp\\Tools\\pharizeBase -->
<g id="node19" class="node"><title>\\LinHUniX\\Mcp\\Tools\\pharizeBase</title>
<polygon fill="none" stroke="black" points="645.5,-668 554.5,-668 554.5,-632 645.5,-632 645.5,-668"/>
<text text-anchor="middle" x="600" y="-647.2" font-family="Courier,monospace" font-size="11.00">pharizeBase</text>
</g>
<!-- \\LinHUniX\\Mcp\\masterControlProgram -->
<g id="node20" class="node"><title>\\LinHUniX\\Mcp\\masterControlProgram</title>
<polygon fill="none" stroke="black" points="676,-614 524,-614 524,-578 676,-578 676,-614"/>
<text text-anchor="middle" x="600" y="-593.2" font-family="Courier,monospace" font-size="11.00">masterControlProgram</text>
</g>
<!-- \\LinHUniX\\Pdo\\Service\\pdoService -->
<g id="node21" class="node"><title>\\LinHUniX\\Pdo\\Service\\pdoService</title>
<polygon fill="none" stroke="black" points="642,-1484 558,-1484 558,-1448 642,-1448 642,-1484"/>
<text text-anchor="middle" x="600" y="-1463.2" font-family="Courier,monospace" font-size="11.00">pdoService</text>
</g>
<!-- \\LinHUniX\\Pdo\\Service\\pdoService&#45;&gt;\\LinHUniX\\Mcp\\Model\\mcpBaseModelClass -->
<g id="edge3" class="edge"><title>\\LinHUniX\\Pdo\\Service\\pdoService&#45;&gt;\\LinHUniX\\Mcp\\Model\\mcpBaseModelClass</title>
<path fill="none" stroke="black" d="M557.857,-1456.31C474.879,-1436.77 286.43,-1392.38 181.162,-1367.59"/>
<polygon fill="none" stroke="black" points="181.777,-1364.13 171.241,-1365.25 180.172,-1370.95 181.777,-1364.13"/>
</g>
<!-- \\LinHUniX\\Pdo\\Driver\\pdoDriver -->
<g id="node22" class="node"><title>\\LinHUniX\\Pdo\\Driver\\pdoDriver</title>
<polygon fill="none" stroke="black" points="384.5,-1644 307.5,-1644 307.5,-1608 384.5,-1608 384.5,-1644"/>
<text text-anchor="middle" x="346" y="-1623.2" font-family="Courier,monospace" font-size="11.00">pdoDriver</text>
</g>
<!-- \\LinHUniX\\Pdo\\Driver\\pdoDriver&#45;&gt;\\LinHUniX\\Mcp\\Model\\mcpBaseModelClass -->
<g id="edge6" class="edge"><title>\\LinHUniX\\Pdo\\Driver\\pdoDriver&#45;&gt;\\LinHUniX\\Mcp\\Model\\mcpBaseModelClass</title>
<path fill="none" stroke="black" d="M311.808,-1607.72C290.588,-1595 263.335,-1576.67 243,-1556 188.008,-1500.11 141.964,-1419.03 120.12,-1377.21"/>
<polygon fill="none" stroke="black" points="123.159,-1375.46 115.464,-1368.18 116.938,-1378.67 123.159,-1375.46"/>
</g>
<!-- \\LinHUniX\\Pdo\\Driver\\sqliteDriver -->
<g id="node23" class="node"><title>\\LinHUniX\\Pdo\\Driver\\sqliteDriver</title>
<polygon fill="none" stroke="black" points="649,-1698 551,-1698 551,-1662 649,-1662 649,-1698"/>
<text text-anchor="middle" x="600" y="-1677.2" font-family="Courier,monospace" font-size="11.00">sqliteDriver</text>
</g>
<!-- \\LinHUniX\\Pdo\\Driver\\sqliteDriver&#45;&gt;\\LinHUniX\\Pdo\\Driver\\pdoDriver -->
<g id="edge8" class="edge"><title>\\LinHUniX\\Pdo\\Driver\\sqliteDriver&#45;&gt;\\LinHUniX\\Pdo\\Driver\\pdoDriver</title>
<path fill="none" stroke="black" d="M550.71,-1669.65C505.896,-1660.05 439.564,-1645.84 394.881,-1636.26"/>
<polygon fill="none" stroke="black" points="395.365,-1632.78 384.854,-1634.11 393.898,-1639.63 395.365,-1632.78"/>
</g>
<!-- \\LinHUniX\\Pdo\\Driver\\mysqlDriver -->
<g id="node24" class="node"><title>\\LinHUniX\\Pdo\\Driver\\mysqlDriver</title>
<polygon fill="none" stroke="black" points="645.5,-1644 554.5,-1644 554.5,-1608 645.5,-1608 645.5,-1644"/>
<text text-anchor="middle" x="600" y="-1623.2" font-family="Courier,monospace" font-size="11.00">mysqlDriver</text>
</g>
<!-- \\LinHUniX\\Pdo\\Driver\\mysqlDriver&#45;&gt;\\LinHUniX\\Pdo\\Driver\\pdoDriver -->
<g id="edge9" class="edge"><title>\\LinHUniX\\Pdo\\Driver\\mysqlDriver&#45;&gt;\\LinHUniX\\Pdo\\Driver\\pdoDriver</title>
<path fill="none" stroke="black" d="M554.238,-1626C509.494,-1626 440.923,-1626 395.053,-1626"/>
<polygon fill="none" stroke="black" points="394.769,-1622.5 384.769,-1626 394.769,-1629.5 394.769,-1622.5"/>
</g>
<!-- \\LinHUniX\\Pdo\\Model\\mcpQueryModelClass -->
<g id="node25" class="node"><title>\\LinHUniX\\Pdo\\Model\\mcpQueryModelClass</title>
<polygon fill="none" stroke="black" points="415,-1524 277,-1524 277,-1488 415,-1488 415,-1524"/>
<text text-anchor="middle" x="346" y="-1503.2" font-family="Courier,monospace" font-size="11.00">mcpQueryModelClass</text>
</g>
<!-- \\LinHUniX\\Pdo\\Model\\mcpQueryModelClass&#45;&gt;\\LinHUniX\\Mcp\\Model\\mcpBaseModelClass -->
<g id="edge7" class="edge"><title>\\LinHUniX\\Pdo\\Model\\mcpQueryModelClass&#45;&gt;\\LinHUniX\\Mcp\\Model\\mcpBaseModelClass</title>
<path fill="none" stroke="black" d="M317.174,-1487.8C273.911,-1459.5 190.524,-1404.96 142.656,-1373.65"/>
<polygon fill="none" stroke="black" points="144.433,-1370.63 134.149,-1368.08 140.601,-1376.49 144.433,-1370.63"/>
</g>
<!-- \\LinHUniX\\Pdo\\Query\\JsonQuery -->
<g id="node26" class="node"><title>\\LinHUniX\\Pdo\\Query\\JsonQuery</title>
<polygon fill="none" stroke="black" points="638.5,-1564 561.5,-1564 561.5,-1528 638.5,-1528 638.5,-1564"/>
<text text-anchor="middle" x="600" y="-1543.2" font-family="Courier,monospace" font-size="11.00">JsonQuery</text>
</g>
<!-- \\LinHUniX\\Pdo\\Query\\JsonQuery&#45;&gt;\\LinHUniX\\Pdo\\Model\\mcpQueryModelClass -->
<g id="edge10" class="edge"><title>\\LinHUniX\\Pdo\\Query\\JsonQuery&#45;&gt;\\LinHUniX\\Pdo\\Model\\mcpQueryModelClass</title>
<path fill="none" stroke="black" d="M561.273,-1540.01C525.467,-1534.33 470.549,-1525.61 425.277,-1518.42"/>
<polygon fill="none" stroke="black" points="425.608,-1514.93 415.183,-1516.82 424.51,-1521.85 425.608,-1514.93"/>
</g>
<!-- \\LinHUniX\\Gfx\\Service\\gfxService -->
<g id="node27" class="node"><title>\\LinHUniX\\Gfx\\Service\\gfxService</title>
<polygon fill="none" stroke="black" points="388,-1814 304,-1814 304,-1778 388,-1778 388,-1814"/>
<text text-anchor="middle" x="346" y="-1793.2" font-family="Courier,monospace" font-size="11.00">gfxService</text>
</g>
<!-- \\LinHUniX\\Gfx\\Service\\gfxService&#45;&gt;\\LinHUniX\\Mcp\\Model\\mcpBaseModelClass -->
<g id="edge5" class="edge"><title>\\LinHUniX\\Gfx\\Service\\gfxService&#45;&gt;\\LinHUniX\\Mcp\\Model\\mcpBaseModelClass</title>
<path fill="none" stroke="black" d="M304.828,-1777.93C283.892,-1766.74 259.321,-1750.57 243,-1730 154.888,-1618.94 120.803,-1446.19 110.373,-1378.54"/>
<polygon fill="none" stroke="black" points="113.776,-1377.63 108.846,-1368.25 106.852,-1378.65 113.776,-1377.63"/>
</g>
<!-- \\LinHUniX\\Mail\\Component\\SMTP -->
<g id="node28" class="node"><title>\\LinHUniX\\Mail\\Component\\SMTP</title>
<polygon fill="none" stroke="black" points="373,-426 319,-426 319,-390 373,-390 373,-426"/>
<text text-anchor="middle" x="346" y="-405.2" font-family="Courier,monospace" font-size="11.00">SMTP</text>
</g>
<!-- \\LinHUniX\\Mail\\Component\\PHPMailer -->
<g id="node29" class="node"><title>\\LinHUniX\\Mail\\Component\\PHPMailer</title>
<polygon fill="none" stroke="black" points="384.5,-372 307.5,-372 307.5,-336 384.5,-336 384.5,-372"/>
<text text-anchor="middle" x="346" y="-351.2" font-family="Courier,monospace" font-size="11.00">PHPMailer</text>
</g>
<!-- \\LinHUniX\\Mail\\Component\\phpmailerException -->
<g id="node30" class="node"><title>\\LinHUniX\\Mail\\Component\\phpmailerException</title>
<polygon fill="none" stroke="black" points="415,-318 277,-318 277,-282 415,-282 415,-318"/>
<text text-anchor="middle" x="346" y="-297.2" font-family="Courier,monospace" font-size="11.00">phpmailerException</text>
</g>
<!-- \\Exception -->
<g id="node37" class="node"><title>\\Exception</title>
<ellipse fill="none" stroke="black" cx="105.5" cy="-18" rx="50.8918" ry="18"/>
<text text-anchor="middle" x="105.5" y="-14.3" font-family="Times,serif" font-size="14.00" fill="gray">\Exception</text>
</g>
<!-- \\LinHUniX\\Mail\\Component\\phpmailerException&#45;&gt;\\Exception -->
<g id="edge13" class="edge"><title>\\LinHUniX\\Mail\\Component\\phpmailerException&#45;&gt;\\Exception</title>
<path fill="none" stroke="black" d="M276.929,-292.143C264.447,-288.052 252.411,-281.977 243,-273 166.11,-199.649 242.663,-123.466 171,-45 166.702,-40.2941 161.454,-36.3828 155.827,-33.1381"/>
<polygon fill="none" stroke="black" points="157.259,-29.9408 146.754,-28.5697 154.111,-36.193 157.259,-29.9408"/>
</g>
<!-- \\LinHUniX\\Mail\\Component\\POP3 -->
<g id="node31" class="node"><title>\\LinHUniX\\Mail\\Component\\POP3</title>
<polygon fill="none" stroke="black" points="373,-264 319,-264 319,-228 373,-228 373,-264"/>
<text text-anchor="middle" x="346" y="-243.2" font-family="Courier,monospace" font-size="11.00">POP3</text>
</g>
<!-- \\LinHUniX\\Mail\\Service\\mailService -->
<g id="node32" class="node"><title>\\LinHUniX\\Mail\\Service\\mailService</title>
<polygon fill="none" stroke="black" points="391.5,-506 300.5,-506 300.5,-470 391.5,-470 391.5,-506"/>
<text text-anchor="middle" x="346" y="-485.2" font-family="Courier,monospace" font-size="11.00">mailService</text>
</g>
<!-- \\LinHUniX\\Mail\\Service\\mailService&#45;&gt;\\LinHUniX\\Mcp\\Model\\mcpBaseModelClass -->
<g id="edge14" class="edge"><title>\\LinHUniX\\Mail\\Service\\mailService&#45;&gt;\\LinHUniX\\Mcp\\Model\\mcpBaseModelClass</title>
<path fill="none" stroke="black" d="M340.019,-506.004C309.831,-615.11 151.444,-1187.56 114.301,-1321.81"/>
<polygon fill="none" stroke="black" points="110.848,-1321.16 111.555,-1331.73 117.595,-1323.03 110.848,-1321.16"/>
</g>
<!-- \\LinHUniX\\ln4\\Controller\\ln4Controller -->
<g id="node33" class="node"><title>\\LinHUniX\\ln4\\Controller\\ln4Controller</title>
<polygon fill="none" stroke="black" points="652,-506 548,-506 548,-470 652,-470 652,-506"/>
<text text-anchor="middle" x="600" y="-485.2" font-family="Courier,monospace" font-size="11.00">ln4Controller</text>
</g>
<!-- \\LinHUniX\\ln4\\Controller\\ln4Controller&#45;&gt;\\LinHUniX\\Mcp\\Model\\mcpRemoteApiModelClass -->
<g id="edge15" class="edge"><title>\\LinHUniX\\ln4\\Controller\\ln4Controller&#45;&gt;\\LinHUniX\\Mcp\\Model\\mcpRemoteApiModelClass</title>
<path fill="none" stroke="black" d="M569.325,-506.254C549.726,-520.058 525.441,-540.896 513,-566 448.721,-695.704 551.148,-1105.04 457,-1215 451.694,-1221.2 445.22,-1226.09 438.094,-1229.95"/>
<polygon fill="none" stroke="black" points="436.347,-1226.9 428.76,-1234.3 439.303,-1233.25 436.347,-1226.9"/>
</g>
<!-- \\html2text -->
<g id="node34" class="node"><title>\\html2text</title>
<polygon fill="none" stroke="black" points="638.5,-196 561.5,-196 561.5,-160 638.5,-160 638.5,-196"/>
<text text-anchor="middle" x="600" y="-175.2" font-family="Courier,monospace" font-size="11.00">html2text</text>
</g>
<!-- \\mcpAutoload -->
<g id="node35" class="node"><title>\\mcpAutoload</title>
<polygon fill="none" stroke="black" points="645.5,-142 554.5,-142 554.5,-106 645.5,-106 645.5,-142"/>
<text text-anchor="middle" x="600" y="-121.2" font-family="Courier,monospace" font-size="11.00">mcpAutoload</text>
</g>
</g>
</svg>
