<?xml version="1.0" encoding="UTF-8" standalone="no"?>
<!DOCTYPE svg PUBLIC "-//W3C//DTD SVG 1.1//EN"
 "http://www.w3.org/Graphics/SVG/1.1/DTD/svg11.dtd">
<!-- Generated by graphviz version 2.38.0 (20140413.2041)
 -->
<!-- Title: G Pages: 1 -->
<svg width="727pt" height="1996pt"
 viewBox="0.00 0.00 727.00 1996.00" xmlns="http://www.w3.org/2000/svg" xmlns:xlink="http://www.w3.org/1999/xlink">
<g id="graph0" class="graph" transform="scale(1 1) rotate(0) translate(4 1992)">
<title>G</title>
<polygon fill="white" stroke="none" points="-4,4 -4,-1992 723,-1992 723,4 -4,4"/>
<g id="clust1" class="cluster"><title>cluster_Global</title>
<path fill="none" stroke="gray" d="M20,-98C20,-98 699,-98 699,-98 705,-98 711,-104 711,-110 711,-110 711,-1968 711,-1968 711,-1974 705,-1980 699,-1980 699,-1980 20,-1980 20,-1980 14,-1980 8,-1974 8,-1968 8,-1968 8,-110 8,-110 8,-104 14,-98 20,-98"/>
<text text-anchor="middle" x="359.5" y="-1967.2" font-family="Times,serif" font-size="11.00" fill="gray">Global</text>
</g>
<g id="clust2" class="cluster"><title>cluster_\LinHUniX</title>
<path fill="none" stroke="gray" d="M28,-258C28,-258 691,-258 691,-258 697,-258 703,-264 703,-270 703,-270 703,-1940 703,-1940 703,-1946 697,-1952 691,-1952 691,-1952 28,-1952 28,-1952 22,-1952 16,-1946 16,-1940 16,-1940 16,-270 16,-270 16,-264 22,-258 28,-258"/>
<text text-anchor="middle" x="359.5" y="-1939.2" font-family="Times,serif" font-size="11.00" fill="gray">LinHUniX</text>
</g>
<g id="clust3" class="cluster"><title>cluster_\LinHUniX\Mcp</title>
<path fill="none" stroke="gray" d="M36,-624C36,-624 683,-624 683,-624 689,-624 695,-630 695,-636 695,-636 695,-1466 695,-1466 695,-1472 689,-1478 683,-1478 683,-1478 36,-1478 36,-1478 30,-1478 24,-1472 24,-1466 24,-1466 24,-636 24,-636 24,-630 30,-624 36,-624"/>
<text text-anchor="middle" x="359.5" y="-1465.2" font-family="Times,serif" font-size="11.00" fill="gray">Mcp</text>
</g>
<g id="clust4" class="cluster"><title>cluster_\LinHUniX\Mcp\Provider</title>
<path fill="none" stroke="gray" d="M525,-1324C525,-1324 675,-1324 675,-1324 681,-1324 687,-1330 687,-1336 687,-1336 687,-1438 687,-1438 687,-1444 681,-1450 675,-1450 675,-1450 525,-1450 525,-1450 519,-1450 513,-1444 513,-1438 513,-1438 513,-1336 513,-1336 513,-1330 519,-1324 525,-1324"/>
<text text-anchor="middle" x="600" y="-1437.2" font-family="Times,serif" font-size="11.00" fill="gray">Provider</text>
</g>
<g id="clust5" class="cluster"><title>cluster_\LinHUniX\Mcp\Model</title>
<path fill="none" stroke="gray" d="M44,-1162C44,-1162 445,-1162 445,-1162 451,-1162 457,-1168 457,-1174 457,-1174 457,-1438 457,-1438 457,-1444 451,-1450 445,-1450 445,-1450 44,-1450 44,-1450 38,-1450 32,-1444 32,-1438 32,-1438 32,-1174 32,-1174 32,-1168 38,-1162 44,-1162"/>
<text text-anchor="middle" x="244.5" y="-1437.2" font-family="Times,serif" font-size="11.00" fill="gray">Model</text>
</g>
<g id="clust6" class="cluster"><title>cluster_\LinHUniX\Mcp\Component</title>
<path fill="none" stroke="gray" d="M541.5,-866C541.5,-866 658.5,-866 658.5,-866 664.5,-866 670.5,-872 670.5,-878 670.5,-878 670.5,-1304 670.5,-1304 670.5,-1310 664.5,-1316 658.5,-1316 658.5,-1316 541.5,-1316 541.5,-1316 535.5,-1316 529.5,-1310 529.5,-1304 529.5,-1304 529.5,-878 529.5,-878 529.5,-872 535.5,-866 541.5,-866"/>
<text text-anchor="middle" x="600" y="-1303.2" font-family="Times,serif" font-size="11.00" fill="gray">Component</text>
</g>
<g id="clust7" class="cluster"><title>cluster_\LinHUniX\Mcp\Tools</title>
<path fill="none" stroke="gray" d="M555,-678C555,-678 645,-678 645,-678 651,-678 657,-684 657,-690 657,-690 657,-846 657,-846 657,-852 651,-858 645,-858 645,-858 555,-858 555,-858 549,-858 543,-852 543,-846 543,-846 543,-690 543,-690 543,-684 549,-678 555,-678"/>
<text text-anchor="middle" x="600" y="-845.2" font-family="Times,serif" font-size="11.00" fill="gray">Tools</text>
</g>
<g id="clust8" class="cluster"><title>cluster_\LinHUniX\Pdo</title>
<path fill="none" stroke="gray" d="M273,-1486C273,-1486 653,-1486 653,-1486 659,-1486 665,-1492 665,-1498 665,-1498 665,-1796 665,-1796 665,-1802 659,-1808 653,-1808 653,-1808 273,-1808 273,-1808 267,-1808 261,-1802 261,-1796 261,-1796 261,-1498 261,-1498 261,-1492 267,-1486 273,-1486"/>
<text text-anchor="middle" x="463" y="-1795.2" font-family="Times,serif" font-size="11.00" fill="gray">Pdo</text>
</g>
<g id="clust9" class="cluster"><title>cluster_\LinHUniX\Pdo\Service</title>
<path fill="none" stroke="gray" d="M562,-1494C562,-1494 638,-1494 638,-1494 644,-1494 650,-1500 650,-1506 650,-1506 650,-1554 650,-1554 650,-1560 644,-1566 638,-1566 638,-1566 562,-1566 562,-1566 556,-1566 550,-1560 550,-1554 550,-1554 550,-1506 550,-1506 550,-1500 556,-1494 562,-1494"/>
<text text-anchor="middle" x="600" y="-1553.2" font-family="Times,serif" font-size="11.00" fill="gray">Service</text>
</g>
<g id="clust10" class="cluster"><title>cluster_\LinHUniX\Pdo\Driver</title>
<path fill="none" stroke="gray" d="M311.5,-1654C311.5,-1654 645,-1654 645,-1654 651,-1654 657,-1660 657,-1666 657,-1666 657,-1768 657,-1768 657,-1774 651,-1780 645,-1780 645,-1780 311.5,-1780 311.5,-1780 305.5,-1780 299.5,-1774 299.5,-1768 299.5,-1768 299.5,-1666 299.5,-1666 299.5,-1660 305.5,-1654 311.5,-1654"/>
<text text-anchor="middle" x="478.25" y="-1767.2" font-family="Times,serif" font-size="11.00" fill="gray">Driver</text>
</g>
<g id="clust11" class="cluster"><title>cluster_\LinHUniX\Pdo\Model</title>
<path fill="none" stroke="gray" d="M281,-1534C281,-1534 411,-1534 411,-1534 417,-1534 423,-1540 423,-1546 423,-1546 423,-1594 423,-1594 423,-1600 417,-1606 411,-1606 411,-1606 281,-1606 281,-1606 275,-1606 269,-1600 269,-1594 269,-1594 269,-1546 269,-1546 269,-1540 275,-1534 281,-1534"/>
<text text-anchor="middle" x="346" y="-1593.2" font-family="Times,serif" font-size="11.00" fill="gray">Model</text>
</g>
<g id="clust12" class="cluster"><title>cluster_\LinHUniX\Pdo\Query</title>
<path fill="none" stroke="gray" d="M565.5,-1574C565.5,-1574 634.5,-1574 634.5,-1574 640.5,-1574 646.5,-1580 646.5,-1586 646.5,-1586 646.5,-1634 646.5,-1634 646.5,-1640 640.5,-1646 634.5,-1646 634.5,-1646 565.5,-1646 565.5,-1646 559.5,-1646 553.5,-1640 553.5,-1634 553.5,-1634 553.5,-1586 553.5,-1586 553.5,-1580 559.5,-1574 565.5,-1574"/>
<text text-anchor="middle" x="600" y="-1633.2" font-family="Times,serif" font-size="11.00" fill="gray">Query</text>
</g>
<g id="clust13" class="cluster"><title>cluster_\LinHUniX\Gfx</title>
<path fill="none" stroke="gray" d="M300,-1816C300,-1816 392,-1816 392,-1816 398,-1816 404,-1822 404,-1828 404,-1828 404,-1912 404,-1912 404,-1918 398,-1924 392,-1924 392,-1924 300,-1924 300,-1924 294,-1924 288,-1918 288,-1912 288,-1912 288,-1828 288,-1828 288,-1822 294,-1816 300,-1816"/>
<text text-anchor="middle" x="346" y="-1911.2" font-family="Times,serif" font-size="11.00" fill="gray">Gfx</text>
</g>
<g id="clust14" class="cluster"><title>cluster_\LinHUniX\Gfx\Service</title>
<path fill="none" stroke="gray" d="M308,-1824C308,-1824 384,-1824 384,-1824 390,-1824 396,-1830 396,-1836 396,-1836 396,-1884 396,-1884 396,-1890 390,-1896 384,-1896 384,-1896 308,-1896 308,-1896 302,-1896 296,-1890 296,-1884 296,-1884 296,-1836 296,-1836 296,-1830 302,-1824 308,-1824"/>
<text text-anchor="middle" x="346" y="-1883.2" font-family="Times,serif" font-size="11.00" fill="gray">Service</text>
</g>
<g id="clust15" class="cluster"><title>cluster_\LinHUniX\Mail</title>
<path fill="none" stroke="gray" d="M273,-266C273,-266 419,-266 419,-266 425,-266 431,-272 431,-278 431,-278 431,-604 431,-604 431,-610 425,-616 419,-616 419,-616 273,-616 273,-616 267,-616 261,-610 261,-604 261,-604 261,-278 261,-278 261,-272 267,-266 273,-266"/>
<text text-anchor="middle" x="346" y="-603.2" font-family="Times,serif" font-size="11.00" fill="gray">Mail</text>
</g>
<g id="clust16" class="cluster"><title>cluster_\LinHUniX\Mail\Component</title>
<path fill="none" stroke="gray" d="M281,-274C281,-274 411,-274 411,-274 417,-274 423,-280 423,-286 423,-286 423,-496 423,-496 423,-502 417,-508 411,-508 411,-508 281,-508 281,-508 275,-508 269,-502 269,-496 269,-496 269,-286 269,-286 269,-280 275,-274 281,-274"/>
<text text-anchor="middle" x="346" y="-495.2" font-family="Times,serif" font-size="11.00" fill="gray">Component</text>
</g>
<g id="clust17" class="cluster"><title>cluster_\LinHUniX\Mail\Service</title>
<path fill="none" stroke="gray" d="M304.5,-516C304.5,-516 387.5,-516 387.5,-516 393.5,-516 399.5,-522 399.5,-528 399.5,-528 399.5,-576 399.5,-576 399.5,-582 393.5,-588 387.5,-588 387.5,-588 304.5,-588 304.5,-588 298.5,-588 292.5,-582 292.5,-576 292.5,-576 292.5,-528 292.5,-528 292.5,-522 298.5,-516 304.5,-516"/>
<text text-anchor="middle" x="346" y="-575.2" font-family="Times,serif" font-size="11.00" fill="gray">Service</text>
</g>
<g id="clust18" class="cluster"><title>cluster_\LinHUniX\ln4</title>
<path fill="none" stroke="gray" d="M544,-508C544,-508 656,-508 656,-508 662,-508 668,-514 668,-520 668,-520 668,-604 668,-604 668,-610 662,-616 656,-616 656,-616 544,-616 544,-616 538,-616 532,-610 532,-604 532,-604 532,-520 532,-520 532,-514 538,-508 544,-508"/>
<text text-anchor="middle" x="600" y="-603.2" font-family="Times,serif" font-size="11.00" fill="gray">ln4</text>
</g>
<g id="clust19" class="cluster"><title>cluster_\LinHUniX\ln4\Controller</title>
<path fill="none" stroke="gray" d="M552,-516C552,-516 648,-516 648,-516 654,-516 660,-522 660,-528 660,-528 660,-576 660,-576 660,-582 654,-588 648,-588 648,-588 552,-588 552,-588 546,-588 540,-582 540,-576 540,-576 540,-528 540,-528 540,-522 546,-516 552,-516"/>
<text text-anchor="middle" x="600" y="-575.2" font-family="Times,serif" font-size="11.00" fill="gray">Controller</text>
</g>
<!-- \\LinHUniX\\Mcp\\Provider\\loggerProviderModel -->
<g id="node1" class="node"><title>\\LinHUniX\\Mcp\\Provider\\loggerProviderModel</title>
<polygon fill="none" stroke="black" points="672.5,-1422 527.5,-1422 527.5,-1386 672.5,-1386 672.5,-1422"/>
<text text-anchor="middle" x="600" y="-1401.2" font-family="Courier,monospace" font-size="11.00">loggerProviderModel</text>
</g>
<!-- \\LinHUniX\\Mcp\\Model\\mcpServiceProviderModelClass -->
<g id="node8" class="node"><title>\\LinHUniX\\Mcp\\Model\\mcpServiceProviderModelClass</title>
<polygon fill="none" stroke="black" points="449,-1422 243,-1422 243,-1386 449,-1386 449,-1422"/>
<text text-anchor="middle" x="346" y="-1401.2" font-family="Courier,monospace" font-size="11.00">mcpServiceProviderModelClass</text>
</g>
<!-- \\LinHUniX\\Mcp\\Provider\\loggerProviderModel&#45;&gt;\\LinHUniX\\Mcp\\Model\\mcpServiceProviderModelClass -->
<g id="edge1" class="edge"><title>\\LinHUniX\\Mcp\\Provider\\loggerProviderModel&#45;&gt;\\LinHUniX\\Mcp\\Model\\mcpServiceProviderModelClass</title>
<path fill="none" stroke="black" stroke-dasharray="1,5" d="M527.461,-1404C506.293,-1404 482.585,-1404 459.49,-1404"/>
<polygon fill="none" stroke="black" points="459.288,-1400.5 449.288,-1404 459.288,-1407.5 459.288,-1400.5"/>
</g>
<!-- \\LinHUniX\\Mcp\\Provider\\settingsProviderModel -->
<g id="node2" class="node"><title>\\LinHUniX\\Mcp\\Provider\\settingsProviderModel</title>
<polygon fill="none" stroke="black" points="679,-1368 521,-1368 521,-1332 679,-1332 679,-1368"/>
<text text-anchor="middle" x="600" y="-1347.2" font-family="Courier,monospace" font-size="11.00">settingsProviderModel</text>
</g>
<!-- \\LinHUniX\\Mcp\\Provider\\settingsProviderModel&#45;&gt;\\LinHUniX\\Mcp\\Model\\mcpServiceProviderModelClass -->
<g id="edge12" class="edge"><title>\\LinHUniX\\Mcp\\Provider\\settingsProviderModel&#45;&gt;\\LinHUniX\\Mcp\\Model\\mcpServiceProviderModelClass</title>
<path fill="none" stroke="black" stroke-dasharray="1,5" d="M520.991,-1366.72C495.741,-1372.13 467.467,-1378.19 441.172,-1383.82"/>
<polygon fill="none" stroke="black" points="440.246,-1380.44 431.202,-1385.96 441.713,-1387.28 440.246,-1380.44"/>
</g>
<!-- \\LinHUniX\\Mcp\\Model\\mcpRemoteObjectModelClass -->
<g id="node3" class="node"><title>\\LinHUniX\\Mcp\\Model\\mcpRemoteObjectModelClass</title>
<polygon fill="none" stroke="black" points="438.5,-1368 253.5,-1368 253.5,-1332 438.5,-1332 438.5,-1368"/>
<text text-anchor="middle" x="346" y="-1347.2" font-family="Courier,monospace" font-size="11.00">mcpRemoteObjectModelClass</text>
</g>
<!-- \\LinHUniX\\Mcp\\Model\\mcpBaseModelClass -->
<g id="node4" class="node"><title>\\LinHUniX\\Mcp\\Model\\mcpBaseModelClass</title>
<polygon fill="none" stroke="black" points="171,-1422 40,-1422 40,-1386 171,-1386 171,-1422"/>
<text text-anchor="middle" x="105.5" y="-1401.2" font-family="Courier,monospace" font-size="11.00">mcpBaseModelClass</text>
</g>
<!-- \\LinHUniX\\Mcp\\Model\\mcpRemoteObjectModelClass&#45;&gt;\\LinHUniX\\Mcp\\Model\\mcpBaseModelClass -->
<g id="edge2" class="edge"><title>\\LinHUniX\\Mcp\\Model\\mcpRemoteObjectModelClass&#45;&gt;\\LinHUniX\\Mcp\\Model\\mcpBaseModelClass</title>
<path fill="none" stroke="black" d="M265.251,-1368.06C238.114,-1374.2 207.9,-1381.04 181.175,-1387.09"/>
<polygon fill="none" stroke="black" points="180.097,-1383.75 171.116,-1389.37 181.643,-1390.58 180.097,-1383.75"/>
</g>
<!-- \\LinHUniX\\Mcp\\Model\\mcpConfigArrayModelClass -->
<g id="node5" class="node"><title>\\LinHUniX\\Mcp\\Model\\mcpConfigArrayModelClass</title>
<polygon fill="none" stroke="black" points="435.5,-1206 256.5,-1206 256.5,-1170 435.5,-1170 435.5,-1206"/>
<text text-anchor="middle" x="346" y="-1185.2" font-family="Courier,monospace" font-size="11.00">mcpConfigArrayModelClass</text>
</g>
<!-- \\ArrayAccess -->
<g id="node37" class="node"><title>\\ArrayAccess</title>
<ellipse fill="none" stroke="black" cx="105.5" cy="-72" rx="61.99" ry="18"/>
<text text-anchor="middle" x="105.5" y="-68.3" font-family="Times,serif" font-size="14.00" fill="gray">\ArrayAccess</text>
</g>
<!-- \\LinHUniX\\Mcp\\Model\\mcpConfigArrayModelClass&#45;&gt;\\ArrayAccess -->
<g id="edge4" class="edge"><title>\\LinHUniX\\Mcp\\Model\\mcpConfigArrayModelClass&#45;&gt;\\ArrayAccess</title>
<path fill="none" stroke="black" stroke-dasharray="1,5" d="M341.059,-1169.56C313.233,-1039.35 146.471,-259.032 112.528,-100.205"/>
<polygon fill="none" stroke="black" points="115.914,-99.3039 110.402,-90.2562 109.069,-100.767 115.914,-99.3039"/>
</g>
<!-- \\LinHUniX\\Mcp\\Model\\mcpRemoteApiModelClass -->
<g id="node6" class="node"><title>\\LinHUniX\\Mcp\\Model\\mcpRemoteApiModelClass</title>
<polygon fill="none" stroke="black" points="428.5,-1314 263.5,-1314 263.5,-1278 428.5,-1278 428.5,-1314"/>
<text text-anchor="middle" x="346" y="-1293.2" font-family="Courier,monospace" font-size="11.00">mcpRemoteApiModelClass</text>
</g>
<!-- \\LinHUniX\\Mcp\\Model\\mcpRemoteApiModelClass&#45;&gt;\\LinHUniX\\Mcp\\Model\\mcpBaseModelClass -->
<g id="edge11" class="edge"><title>\\LinHUniX\\Mcp\\Model\\mcpRemoteApiModelClass&#45;&gt;\\LinHUniX\\Mcp\\Model\\mcpBaseModelClass</title>
<path fill="none" stroke="black" d="M267.655,-1314.03C259.222,-1316.72 250.855,-1319.71 243,-1323 206.243,-1338.42 167.445,-1362.27 140.647,-1380.11"/>
<polygon fill="none" stroke="black" points="138.378,-1377.42 132.039,-1385.9 142.289,-1383.22 138.378,-1377.42"/>
</g>
<!-- \\LinHUniX\\Mcp\\Model\\mcpDebugModelClass -->
<g id="node7" class="node"><title>\\LinHUniX\\Mcp\\Model\\mcpDebugModelClass</title>
<polygon fill="none" stroke="black" points="415,-1260 277,-1260 277,-1224 415,-1224 415,-1260"/>
<text text-anchor="middle" x="346" y="-1239.2" font-family="Courier,monospace" font-size="11.00">mcpDebugModelClass</text>
</g>
<!-- \\LinHUniX\\Mcp\\Component\\mcpDebugClass -->
<g id="node9" class="node"><title>\\LinHUniX\\Mcp\\Component\\mcpDebugClass</title>
<polygon fill="none" stroke="black" points="652,-1288 548,-1288 548,-1252 652,-1252 652,-1288"/>
<text text-anchor="middle" x="600" y="-1267.2" font-family="Courier,monospace" font-size="11.00">mcpDebugClass</text>
</g>
<!-- \\LinHUniX\\Mcp\\Component\\mcpMenuClass -->
<g id="node10" class="node"><title>\\LinHUniX\\Mcp\\Component\\mcpMenuClass</title>
<polygon fill="none" stroke="black" points="649,-1234 551,-1234 551,-1198 649,-1198 649,-1234"/>
<text text-anchor="middle" x="600" y="-1213.2" font-family="Courier,monospace" font-size="11.00">mcpMenuClass</text>
</g>
<!-- \\LinHUniX\\Mcp\\Component\\mcpMailClass -->
<g id="node11" class="node"><title>\\LinHUniX\\Mcp\\Component\\mcpMailClass</title>
<polygon fill="none" stroke="black" points="649,-1180 551,-1180 551,-1144 649,-1144 649,-1180"/>
<text text-anchor="middle" x="600" y="-1159.2" font-family="Courier,monospace" font-size="11.00">mcpMailClass</text>
</g>
<!-- \\LinHUniX\\Mcp\\Component\\mcpToolsClass -->
<g id="node12" class="node"><title>\\LinHUniX\\Mcp\\Component\\mcpToolsClass</title>
<polygon fill="none" stroke="black" points="652,-1126 548,-1126 548,-1090 652,-1090 652,-1126"/>
<text text-anchor="middle" x="600" y="-1105.2" font-family="Courier,monospace" font-size="11.00">mcpToolsClass</text>
</g>
<!-- \\LinHUniX\\Mcp\\Component\\mcpTemplateClass -->
<g id="node13" class="node"><title>\\LinHUniX\\Mcp\\Component\\mcpTemplateClass</title>
<polygon fill="none" stroke="black" points="662.5,-1072 537.5,-1072 537.5,-1036 662.5,-1036 662.5,-1072"/>
<text text-anchor="middle" x="600" y="-1051.2" font-family="Courier,monospace" font-size="11.00">mcpTemplateClass</text>
</g>
<!-- \\LinHUniX\\Mcp\\Component\\mcpCoreClass -->
<g id="node14" class="node"><title>\\LinHUniX\\Mcp\\Component\\mcpCoreClass</title>
<polygon fill="none" stroke="black" points="649,-1018 551,-1018 551,-982 649,-982 649,-1018"/>
<text text-anchor="middle" x="600" y="-997.2" font-family="Courier,monospace" font-size="11.00">mcpCoreClass</text>
</g>
<!-- \\LinHUniX\\Mcp\\Component\\mcpLanguageClass -->
<g id="node15" class="node"><title>\\LinHUniX\\Mcp\\Component\\mcpLanguageClass</title>
<polygon fill="none" stroke="black" points="662.5,-964 537.5,-964 537.5,-928 662.5,-928 662.5,-964"/>
<text text-anchor="middle" x="600" y="-943.2" font-family="Courier,monospace" font-size="11.00">mcpLanguageClass</text>
</g>
<!-- \\LinHUniX\\Mcp\\Component\\mcpProxyClass -->
<g id="node16" class="node"><title>\\LinHUniX\\Mcp\\Component\\mcpProxyClass</title>
<polygon fill="none" stroke="black" points="652,-910 548,-910 548,-874 652,-874 652,-910"/>
<text text-anchor="middle" x="600" y="-889.2" font-family="Courier,monospace" font-size="11.00">mcpProxyClass</text>
</g>
<!-- \\LinHUniX\\Mcp\\Tools\\pharizeShell -->
<g id="node17" class="node"><title>\\LinHUniX\\Mcp\\Tools\\pharizeShell</title>
<polygon fill="none" stroke="black" points="649,-830 551,-830 551,-794 649,-794 649,-830"/>
<text text-anchor="middle" x="600" y="-809.2" font-family="Courier,monospace" font-size="11.00">pharizeShell</text>
</g>
<!-- \\LinHUniX\\Mcp\\Tools\\browserData -->
<g id="node18" class="node"><title>\\LinHUniX\\Mcp\\Tools\\browserData</title>
<polygon fill="none" stroke="black" points="645.5,-776 554.5,-776 554.5,-740 645.5,-740 645.5,-776"/>
<text text-anchor="middle" x="600" y="-755.2" font-family="Courier,monospace" font-size="11.00">browserData</text>
</g>
<!-- \\LinHUniX\\Mcp\\Tools\\pharizeBase -->
<g id="node19" class="node"><title>\\LinHUniX\\Mcp\\Tools\\pharizeBase</title>
<polygon fill="none" stroke="black" points="645.5,-722 554.5,-722 554.5,-686 645.5,-686 645.5,-722"/>
<text text-anchor="middle" x="600" y="-701.2" font-family="Courier,monospace" font-size="11.00">pharizeBase</text>
</g>
<!-- \\LinHUniX\\Mcp\\masterControlProgram -->
<g id="node20" class="node"><title>\\LinHUniX\\Mcp\\masterControlProgram</title>
<polygon fill="none" stroke="black" points="676,-668 524,-668 524,-632 676,-632 676,-668"/>
<text text-anchor="middle" x="600" y="-647.2" font-family="Courier,monospace" font-size="11.00">masterControlProgram</text>
</g>
<!-- \\LinHUniX\\Pdo\\Service\\pdoService -->
<g id="node21" class="node"><title>\\LinHUniX\\Pdo\\Service\\pdoService</title>
<polygon fill="none" stroke="black" points="642,-1538 558,-1538 558,-1502 642,-1502 642,-1538"/>
<text text-anchor="middle" x="600" y="-1517.2" font-family="Courier,monospace" font-size="11.00">pdoService</text>
</g>
<!-- \\LinHUniX\\Pdo\\Service\\pdoService&#45;&gt;\\LinHUniX\\Mcp\\Model\\mcpBaseModelClass -->
<g id="edge3" class="edge"><title>\\LinHUniX\\Pdo\\Service\\pdoService&#45;&gt;\\LinHUniX\\Mcp\\Model\\mcpBaseModelClass</title>
<path fill="none" stroke="black" d="M557.857,-1510.31C474.879,-1490.77 286.43,-1446.38 181.162,-1421.59"/>
<polygon fill="none" stroke="black" points="181.777,-1418.13 171.241,-1419.25 180.172,-1424.95 181.777,-1418.13"/>
</g>
<!-- \\LinHUniX\\Pdo\\Driver\\pdoDriver -->
<g id="node22" class="node"><title>\\LinHUniX\\Pdo\\Driver\\pdoDriver</title>
<polygon fill="none" stroke="black" points="384.5,-1698 307.5,-1698 307.5,-1662 384.5,-1662 384.5,-1698"/>
<text text-anchor="middle" x="346" y="-1677.2" font-family="Courier,monospace" font-size="11.00">pdoDriver</text>
</g>
<!-- \\LinHUniX\\Pdo\\Driver\\pdoDriver&#45;&gt;\\LinHUniX\\Mcp\\Model\\mcpBaseModelClass -->
<g id="edge6" class="edge"><title>\\LinHUniX\\Pdo\\Driver\\pdoDriver&#45;&gt;\\LinHUniX\\Mcp\\Model\\mcpBaseModelClass</title>
<path fill="none" stroke="black" d="M311.808,-1661.72C290.588,-1649 263.335,-1630.67 243,-1610 188.008,-1554.11 141.964,-1473.03 120.12,-1431.21"/>
<polygon fill="none" stroke="black" points="123.159,-1429.46 115.464,-1422.18 116.938,-1432.67 123.159,-1429.46"/>
</g>
<!-- \\LinHUniX\\Pdo\\Driver\\sqliteDriver -->
<g id="node23" class="node"><title>\\LinHUniX\\Pdo\\Driver\\sqliteDriver</title>
<polygon fill="none" stroke="black" points="649,-1752 551,-1752 551,-1716 649,-1716 649,-1752"/>
<text text-anchor="middle" x="600" y="-1731.2" font-family="Courier,monospace" font-size="11.00">sqliteDriver</text>
</g>
<!-- \\LinHUniX\\Pdo\\Driver\\sqliteDriver&#45;&gt;\\LinHUniX\\Pdo\\Driver\\pdoDriver -->
<g id="edge8" class="edge"><title>\\LinHUniX\\Pdo\\Driver\\sqliteDriver&#45;&gt;\\LinHUniX\\Pdo\\Driver\\pdoDriver</title>
<path fill="none" stroke="black" d="M550.71,-1723.65C505.896,-1714.05 439.564,-1699.84 394.881,-1690.26"/>
<polygon fill="none" stroke="black" points="395.365,-1686.78 384.854,-1688.11 393.898,-1693.63 395.365,-1686.78"/>
</g>
<!-- \\LinHUniX\\Pdo\\Driver\\mysqlDriver -->
<g id="node24" class="node"><title>\\LinHUniX\\Pdo\\Driver\\mysqlDriver</title>
<polygon fill="none" stroke="black" points="645.5,-1698 554.5,-1698 554.5,-1662 645.5,-1662 645.5,-1698"/>
<text text-anchor="middle" x="600" y="-1677.2" font-family="Courier,monospace" font-size="11.00">mysqlDriver</text>
</g>
<!-- \\LinHUniX\\Pdo\\Driver\\mysqlDriver&#45;&gt;\\LinHUniX\\Pdo\\Driver\\pdoDriver -->
<g id="edge9" class="edge"><title>\\LinHUniX\\Pdo\\Driver\\mysqlDriver&#45;&gt;\\LinHUniX\\Pdo\\Driver\\pdoDriver</title>
<path fill="none" stroke="black" d="M554.238,-1680C509.494,-1680 440.923,-1680 395.053,-1680"/>
<polygon fill="none" stroke="black" points="394.769,-1676.5 384.769,-1680 394.769,-1683.5 394.769,-1676.5"/>
</g>
<!-- \\LinHUniX\\Pdo\\Model\\mcpQueryModelClass -->
<g id="node25" class="node"><title>\\LinHUniX\\Pdo\\Model\\mcpQueryModelClass</title>
<polygon fill="none" stroke="black" points="415,-1578 277,-1578 277,-1542 415,-1542 415,-1578"/>
<text text-anchor="middle" x="346" y="-1557.2" font-family="Courier,monospace" font-size="11.00">mcpQueryModelClass</text>
</g>
<!-- \\LinHUniX\\Pdo\\Model\\mcpQueryModelClass&#45;&gt;\\LinHUniX\\Mcp\\Model\\mcpBaseModelClass -->
<g id="edge7" class="edge"><title>\\LinHUniX\\Pdo\\Model\\mcpQueryModelClass&#45;&gt;\\LinHUniX\\Mcp\\Model\\mcpBaseModelClass</title>
<path fill="none" stroke="black" d="M317.174,-1541.8C273.911,-1513.5 190.524,-1458.96 142.656,-1427.65"/>
<polygon fill="none" stroke="black" points="144.433,-1424.63 134.149,-1422.08 140.601,-1430.49 144.433,-1424.63"/>
</g>
<!-- \\LinHUniX\\Pdo\\Query\\JsonQuery -->
<g id="node26" class="node"><title>\\LinHUniX\\Pdo\\Query\\JsonQuery</title>
<polygon fill="none" stroke="black" points="638.5,-1618 561.5,-1618 561.5,-1582 638.5,-1582 638.5,-1618"/>
<text text-anchor="middle" x="600" y="-1597.2" font-family="Courier,monospace" font-size="11.00">JsonQuery</text>
</g>
<!-- \\LinHUniX\\Pdo\\Query\\JsonQuery&#45;&gt;\\LinHUniX\\Pdo\\Model\\mcpQueryModelClass -->
<g id="edge10" class="edge"><title>\\LinHUniX\\Pdo\\Query\\JsonQuery&#45;&gt;\\LinHUniX\\Pdo\\Model\\mcpQueryModelClass</title>
<path fill="none" stroke="black" d="M561.273,-1594.01C525.467,-1588.33 470.549,-1579.61 425.277,-1572.42"/>
<polygon fill="none" stroke="black" points="425.608,-1568.93 415.183,-1570.82 424.51,-1575.85 425.608,-1568.93"/>
</g>
<!-- \\LinHUniX\\Gfx\\Service\\gfxService -->
<g id="node27" class="node"><title>\\LinHUniX\\Gfx\\Service\\gfxService</title>
<polygon fill="none" stroke="black" points="388,-1868 304,-1868 304,-1832 388,-1832 388,-1868"/>
<text text-anchor="middle" x="346" y="-1847.2" font-family="Courier,monospace" font-size="11.00">gfxService</text>
</g>
<!-- \\LinHUniX\\Gfx\\Service\\gfxService&#45;&gt;\\LinHUniX\\Mcp\\Model\\mcpBaseModelClass -->
<g id="edge5" class="edge"><title>\\LinHUniX\\Gfx\\Service\\gfxService&#45;&gt;\\LinHUniX\\Mcp\\Model\\mcpBaseModelClass</title>
<path fill="none" stroke="black" d="M304.828,-1831.93C283.892,-1820.74 259.321,-1804.57 243,-1784 154.888,-1672.94 120.803,-1500.19 110.373,-1432.54"/>
<polygon fill="none" stroke="black" points="113.776,-1431.63 108.846,-1422.25 106.852,-1432.65 113.776,-1431.63"/>
</g>
<!-- \\LinHUniX\\Mail\\Component\\SMTP -->
<g id="node28" class="node"><title>\\LinHUniX\\Mail\\Component\\SMTP</title>
<polygon fill="none" stroke="black" points="373,-480 319,-480 319,-444 373,-444 373,-480"/>
<text text-anchor="middle" x="346" y="-459.2" font-family="Courier,monospace" font-size="11.00">SMTP</text>
</g>
<!-- \\LinHUniX\\Mail\\Component\\PHPMailer -->
<g id="node29" class="node"><title>\\LinHUniX\\Mail\\Component\\PHPMailer</title>
<polygon fill="none" stroke="black" points="384.5,-426 307.5,-426 307.5,-390 384.5,-390 384.5,-426"/>
<text text-anchor="middle" x="346" y="-405.2" font-family="Courier,monospace" font-size="11.00">PHPMailer</text>
</g>
<!-- \\LinHUniX\\Mail\\Component\\phpmailerException -->
<g id="node30" class="node"><title>\\LinHUniX\\Mail\\Component\\phpmailerException</title>
<polygon fill="none" stroke="black" points="415,-372 277,-372 277,-336 415,-336 415,-372"/>
<text text-anchor="middle" x="346" y="-351.2" font-family="Courier,monospace" font-size="11.00">phpmailerException</text>
</g>
<!-- \\Exception -->
<g id="node38" class="node"><title>\\Exception</title>
<ellipse fill="none" stroke="black" cx="105.5" cy="-18" rx="50.8918" ry="18"/>
<text text-anchor="middle" x="105.5" y="-14.3" font-family="Times,serif" font-size="14.00" fill="gray">\Exception</text>
</g>
<!-- \\LinHUniX\\Mail\\Component\\phpmailerException&#45;&gt;\\Exception -->
<g id="edge14" class="edge"><title>\\LinHUniX\\Mail\\Component\\phpmailerException&#45;&gt;\\Exception</title>
<path fill="none" stroke="black" d="M276.793,-346.637C264.247,-342.514 252.221,-336.302 243,-327 151.936,-235.132 255.53,-142.914 171,-45 166.887,-40.2361 161.795,-36.2944 156.289,-33.0373"/>
<polygon fill="none" stroke="black" points="157.871,-29.9154 147.376,-28.4626 154.675,-36.1429 157.871,-29.9154"/>
</g>
<!-- \\LinHUniX\\Mail\\Component\\POP3 -->
<g id="node31" class="node"><title>\\LinHUniX\\Mail\\Component\\POP3</title>
<polygon fill="none" stroke="black" points="373,-318 319,-318 319,-282 373,-282 373,-318"/>
<text text-anchor="middle" x="346" y="-297.2" font-family="Courier,monospace" font-size="11.00">POP3</text>
</g>
<!-- \\LinHUniX\\Mail\\Service\\mailService -->
<g id="node32" class="node"><title>\\LinHUniX\\Mail\\Service\\mailService</title>
<polygon fill="none" stroke="black" points="391.5,-560 300.5,-560 300.5,-524 391.5,-524 391.5,-560"/>
<text text-anchor="middle" x="346" y="-539.2" font-family="Courier,monospace" font-size="11.00">mailService</text>
</g>
<!-- \\LinHUniX\\Mail\\Service\\mailService&#45;&gt;\\LinHUniX\\Mcp\\Model\\mcpBaseModelClass -->
<g id="edge15" class="edge"><title>\\LinHUniX\\Mail\\Service\\mailService&#45;&gt;\\LinHUniX\\Mcp\\Model\\mcpBaseModelClass</title>
<path fill="none" stroke="black" d="M340.019,-560.004C309.831,-669.11 151.444,-1241.56 114.301,-1375.81"/>
<polygon fill="none" stroke="black" points="110.848,-1375.16 111.555,-1385.73 117.595,-1377.03 110.848,-1375.16"/>
</g>
<!-- \\LinHUniX\\ln4\\Controller\\ln4Controller -->
<g id="node33" class="node"><title>\\LinHUniX\\ln4\\Controller\\ln4Controller</title>
<polygon fill="none" stroke="black" points="652,-560 548,-560 548,-524 652,-524 652,-560"/>
<text text-anchor="middle" x="600" y="-539.2" font-family="Courier,monospace" font-size="11.00">ln4Controller</text>
</g>
<!-- \\LinHUniX\\ln4\\Controller\\ln4Controller&#45;&gt;\\LinHUniX\\Mcp\\Model\\mcpRemoteApiModelClass -->
<g id="edge13" class="edge"><title>\\LinHUniX\\ln4\\Controller\\ln4Controller&#45;&gt;\\LinHUniX\\Mcp\\Model\\mcpRemoteApiModelClass</title>
<path fill="none" stroke="black" d="M569.325,-560.254C549.726,-574.058 525.441,-594.896 513,-620 448.721,-749.704 551.148,-1159.04 457,-1269 451.694,-1275.2 445.22,-1280.09 438.094,-1283.95"/>
<polygon fill="none" stroke="black" points="436.347,-1280.9 428.76,-1288.3 439.303,-1287.25 436.347,-1280.9"/>
</g>
<!-- \\html2text -->
<g id="node34" class="node"><title>\\html2text</title>
<polygon fill="none" stroke="black" points="638.5,-250 561.5,-250 561.5,-214 638.5,-214 638.5,-250"/>
<text text-anchor="middle" x="600" y="-229.2" font-family="Courier,monospace" font-size="11.00">html2text</text>
</g>
<!-- \\mcpAutoload -->
<g id="node35" class="node"><title>\\mcpAutoload</title>
<polygon fill="none" stroke="black" points="645.5,-196 554.5,-196 554.5,-160 645.5,-160 645.5,-196"/>
<text text-anchor="middle" x="600" y="-175.2" font-family="Courier,monospace" font-size="11.00">mcpAutoload</text>
</g>
<!-- \\zebra_image -->
<g id="node36" class="node"><title>\\zebra_image</title>
<polygon fill="none" stroke="black" points="645.5,-142 554.5,-142 554.5,-106 645.5,-106 645.5,-142"/>
<text text-anchor="middle" x="600" y="-121.2" font-family="Courier,monospace" font-size="11.00">zebra_image</text>
</g>
</g>
</svg>
