<?xml version="1.0" encoding="UTF-8" standalone="no"?>
<!DOCTYPE svg PUBLIC "-//W3C//DTD SVG 1.1//EN"
 "http://www.w3.org/Graphics/SVG/1.1/DTD/svg11.dtd">
<!-- Generated by graphviz version 2.40.1 (20161225.0304)
 -->
<!-- Title: G Pages: 1 -->
<svg width="727pt" height="1672pt"
 viewBox="0.00 0.00 727.00 1672.00" xmlns="http://www.w3.org/2000/svg" xmlns:xlink="http://www.w3.org/1999/xlink">
<g id="graph0" class="graph" transform="scale(1 1) rotate(0) translate(4 1668)">
<title>G</title>
<polygon fill="#ffffff" stroke="transparent" points="-4,4 -4,-1668 723,-1668 723,4 -4,4"/>
<g id="clust1" class="cluster">
<title>cluster_Global</title>
<path fill="none" stroke="#c0c0c0" d="M20,-98C20,-98 699,-98 699,-98 705,-98 711,-104 711,-110 711,-110 711,-1644 711,-1644 711,-1650 705,-1656 699,-1656 699,-1656 20,-1656 20,-1656 14,-1656 8,-1650 8,-1644 8,-1644 8,-110 8,-110 8,-104 14,-98 20,-98"/>
<text text-anchor="middle" x="359.5" y="-1643.2" font-family="Times,serif" font-size="11.00" fill="#c0c0c0">Global</text>
</g>
<g id="clust2" class="cluster">
<title>cluster_\LinHUniX</title>
<path fill="none" stroke="#c0c0c0" d="M28,-204C28,-204 691,-204 691,-204 697,-204 703,-210 703,-216 703,-216 703,-1616 703,-1616 703,-1622 697,-1628 691,-1628 691,-1628 28,-1628 28,-1628 22,-1628 16,-1622 16,-1616 16,-1616 16,-216 16,-216 16,-210 22,-204 28,-204"/>
<text text-anchor="middle" x="359.5" y="-1615.2" font-family="Times,serif" font-size="11.00" fill="#c0c0c0">LinHUniX</text>
</g>
<g id="clust3" class="cluster">
<title>cluster_\LinHUniX\Gfx</title>
<path fill="none" stroke="#c0c0c0" d="M300,-1216C300,-1216 392,-1216 392,-1216 398,-1216 404,-1222 404,-1228 404,-1228 404,-1312 404,-1312 404,-1318 398,-1324 392,-1324 392,-1324 300,-1324 300,-1324 294,-1324 288,-1318 288,-1312 288,-1312 288,-1228 288,-1228 288,-1222 294,-1216 300,-1216"/>
<text text-anchor="middle" x="346" y="-1311.2" font-family="Times,serif" font-size="11.00" fill="#c0c0c0">Gfx</text>
</g>
<g id="clust4" class="cluster">
<title>cluster_\LinHUniX\Gfx\Service</title>
<path fill="none" stroke="#c0c0c0" d="M308,-1224C308,-1224 384,-1224 384,-1224 390,-1224 396,-1230 396,-1236 396,-1236 396,-1284 396,-1284 396,-1290 390,-1296 384,-1296 384,-1296 308,-1296 308,-1296 302,-1296 296,-1290 296,-1284 296,-1284 296,-1236 296,-1236 296,-1230 302,-1224 308,-1224"/>
<text text-anchor="middle" x="346" y="-1283.2" font-family="Times,serif" font-size="11.00" fill="#c0c0c0">Service</text>
</g>
<g id="clust5" class="cluster">
<title>cluster_\LinHUniX\Mail</title>
<path fill="none" stroke="#c0c0c0" d="M273,-212C273,-212 419,-212 419,-212 425,-212 431,-218 431,-224 431,-224 431,-550 431,-550 431,-556 425,-562 419,-562 419,-562 273,-562 273,-562 267,-562 261,-556 261,-550 261,-550 261,-224 261,-224 261,-218 267,-212 273,-212"/>
<text text-anchor="middle" x="346" y="-549.2" font-family="Times,serif" font-size="11.00" fill="#c0c0c0">Mail</text>
</g>
<g id="clust6" class="cluster">
<title>cluster_\LinHUniX\Mail\Component</title>
<path fill="none" stroke="#c0c0c0" d="M281,-220C281,-220 411,-220 411,-220 417,-220 423,-226 423,-232 423,-232 423,-442 423,-442 423,-448 417,-454 411,-454 411,-454 281,-454 281,-454 275,-454 269,-448 269,-442 269,-442 269,-232 269,-232 269,-226 275,-220 281,-220"/>
<text text-anchor="middle" x="346" y="-441.2" font-family="Times,serif" font-size="11.00" fill="#c0c0c0">Component</text>
</g>
<g id="clust7" class="cluster">
<title>cluster_\LinHUniX\Mail\Service</title>
<path fill="none" stroke="#c0c0c0" d="M304.5,-462C304.5,-462 387.5,-462 387.5,-462 393.5,-462 399.5,-468 399.5,-474 399.5,-474 399.5,-522 399.5,-522 399.5,-528 393.5,-534 387.5,-534 387.5,-534 304.5,-534 304.5,-534 298.5,-534 292.5,-528 292.5,-522 292.5,-522 292.5,-474 292.5,-474 292.5,-468 298.5,-462 304.5,-462"/>
<text text-anchor="middle" x="346" y="-521.2" font-family="Times,serif" font-size="11.00" fill="#c0c0c0">Service</text>
</g>
<g id="clust8" class="cluster">
<title>cluster_\LinHUniX\Mcp</title>
<path fill="none" stroke="#c0c0c0" d="M36,-570C36,-570 683,-570 683,-570 689,-570 695,-576 695,-582 695,-582 695,-1196 695,-1196 695,-1202 689,-1208 683,-1208 683,-1208 36,-1208 36,-1208 30,-1208 24,-1202 24,-1196 24,-1196 24,-582 24,-582 24,-576 30,-570 36,-570"/>
<text text-anchor="middle" x="359.5" y="-1195.2" font-family="Times,serif" font-size="11.00" fill="#c0c0c0">Mcp</text>
</g>
<g id="clust9" class="cluster">
<title>cluster_\LinHUniX\Mcp\Component</title>
<path fill="none" stroke="#c0c0c0" d="M552,-892C552,-892 648,-892 648,-892 654,-892 660,-898 660,-904 660,-904 660,-1168 660,-1168 660,-1174 654,-1180 648,-1180 648,-1180 552,-1180 552,-1180 546,-1180 540,-1174 540,-1168 540,-1168 540,-904 540,-904 540,-898 546,-892 552,-892"/>
<text text-anchor="middle" x="600" y="-1167.2" font-family="Times,serif" font-size="11.00" fill="#c0c0c0">Component</text>
</g>
<g id="clust10" class="cluster">
<title>cluster_\LinHUniX\Mcp\Model</title>
<path fill="none" stroke="#c0c0c0" d="M44,-841C44,-841 445,-841 445,-841 451,-841 457,-847 457,-853 457,-853 457,-1117 457,-1117 457,-1123 451,-1129 445,-1129 445,-1129 44,-1129 44,-1129 38,-1129 32,-1123 32,-1117 32,-1117 32,-853 32,-853 32,-847 38,-841 44,-841"/>
<text text-anchor="middle" x="244.5" y="-1116.2" font-family="Times,serif" font-size="11.00" fill="#c0c0c0">Model</text>
</g>
<g id="clust11" class="cluster">
<title>cluster_\LinHUniX\Mcp\Provider</title>
<path fill="none" stroke="#c0c0c0" d="M525,-758C525,-758 675,-758 675,-758 681,-758 687,-764 687,-770 687,-770 687,-872 687,-872 687,-878 681,-884 675,-884 675,-884 525,-884 525,-884 519,-884 513,-878 513,-872 513,-872 513,-770 513,-770 513,-764 519,-758 525,-758"/>
<text text-anchor="middle" x="600" y="-871.2" font-family="Times,serif" font-size="11.00" fill="#c0c0c0">Provider</text>
</g>
<g id="clust12" class="cluster">
<title>cluster_\LinHUniX\Mcp\Tools</title>
<path fill="none" stroke="#c0c0c0" d="M555,-624C555,-624 645,-624 645,-624 651,-624 657,-630 657,-636 657,-636 657,-738 657,-738 657,-744 651,-750 645,-750 645,-750 555,-750 555,-750 549,-750 543,-744 543,-738 543,-738 543,-636 543,-636 543,-630 549,-624 555,-624"/>
<text text-anchor="middle" x="600" y="-737.2" font-family="Times,serif" font-size="11.00" fill="#c0c0c0">Tools</text>
</g>
<g id="clust13" class="cluster">
<title>cluster_\LinHUniX\Pdo</title>
<path fill="none" stroke="#c0c0c0" d="M273,-1332C273,-1332 649.5,-1332 649.5,-1332 655.5,-1332 661.5,-1338 661.5,-1344 661.5,-1344 661.5,-1588 661.5,-1588 661.5,-1594 655.5,-1600 649.5,-1600 649.5,-1600 273,-1600 273,-1600 267,-1600 261,-1594 261,-1588 261,-1588 261,-1344 261,-1344 261,-1338 267,-1332 273,-1332"/>
<text text-anchor="middle" x="461.25" y="-1587.2" font-family="Times,serif" font-size="11.00" fill="#c0c0c0">Pdo</text>
</g>
<g id="clust14" class="cluster">
<title>cluster_\LinHUniX\Pdo\Driver</title>
<path fill="none" stroke="#c0c0c0" d="M558.5,-1500C558.5,-1500 641.5,-1500 641.5,-1500 647.5,-1500 653.5,-1506 653.5,-1512 653.5,-1512 653.5,-1560 653.5,-1560 653.5,-1566 647.5,-1572 641.5,-1572 641.5,-1572 558.5,-1572 558.5,-1572 552.5,-1572 546.5,-1566 546.5,-1560 546.5,-1560 546.5,-1512 546.5,-1512 546.5,-1506 552.5,-1500 558.5,-1500"/>
<text text-anchor="middle" x="600" y="-1559.2" font-family="Times,serif" font-size="11.00" fill="#c0c0c0">Driver</text>
</g>
<g id="clust15" class="cluster">
<title>cluster_\LinHUniX\Pdo\Model</title>
<path fill="none" stroke="#c0c0c0" d="M281,-1380C281,-1380 411,-1380 411,-1380 417,-1380 423,-1386 423,-1392 423,-1392 423,-1440 423,-1440 423,-1446 417,-1452 411,-1452 411,-1452 281,-1452 281,-1452 275,-1452 269,-1446 269,-1440 269,-1440 269,-1392 269,-1392 269,-1386 275,-1380 281,-1380"/>
<text text-anchor="middle" x="346" y="-1439.2" font-family="Times,serif" font-size="11.00" fill="#c0c0c0">Model</text>
</g>
<g id="clust16" class="cluster">
<title>cluster_\LinHUniX\Pdo\Query</title>
<path fill="none" stroke="#c0c0c0" d="M565.5,-1420C565.5,-1420 634.5,-1420 634.5,-1420 640.5,-1420 646.5,-1426 646.5,-1432 646.5,-1432 646.5,-1480 646.5,-1480 646.5,-1486 640.5,-1492 634.5,-1492 634.5,-1492 565.5,-1492 565.5,-1492 559.5,-1492 553.5,-1486 553.5,-1480 553.5,-1480 553.5,-1432 553.5,-1432 553.5,-1426 559.5,-1420 565.5,-1420"/>
<text text-anchor="middle" x="600" y="-1479.2" font-family="Times,serif" font-size="11.00" fill="#c0c0c0">Query</text>
</g>
<g id="clust17" class="cluster">
<title>cluster_\LinHUniX\Pdo\Service</title>
<path fill="none" stroke="#c0c0c0" d="M562,-1340C562,-1340 638,-1340 638,-1340 644,-1340 650,-1346 650,-1352 650,-1352 650,-1400 650,-1400 650,-1406 644,-1412 638,-1412 638,-1412 562,-1412 562,-1412 556,-1412 550,-1406 550,-1400 550,-1400 550,-1352 550,-1352 550,-1346 556,-1340 562,-1340"/>
<text text-anchor="middle" x="600" y="-1399.2" font-family="Times,serif" font-size="11.00" fill="#c0c0c0">Service</text>
</g>
<!-- \\LinHUniX\\Gfx\\Service\\gfxService -->
<g id="node1" class="node">
<title>\\LinHUniX\\Gfx\\Service\\gfxService</title>
<polygon fill="none" stroke="#000000" points="388,-1268 304,-1268 304,-1232 388,-1232 388,-1268"/>
<text text-anchor="middle" x="346" y="-1247.2" font-family="Courier,monospace" font-size="11.00" fill="#000000">gfxService</text>
</g>
<!-- \\LinHUniX\\Mcp\\Model\\mcpBaseModelClass -->
<g id="node12" class="node">
<title>\\LinHUniX\\Mcp\\Model\\mcpBaseModelClass</title>
<polygon fill="none" stroke="#000000" points="171,-1101 40,-1101 40,-1065 171,-1065 171,-1101"/>
<text text-anchor="middle" x="105.5" y="-1080.2" font-family="Courier,monospace" font-size="11.00" fill="#000000">mcpBaseModelClass</text>
</g>
<!-- \\LinHUniX\\Gfx\\Service\\gfxService&#45;&gt;\\LinHUniX\\Mcp\\Model\\mcpBaseModelClass -->
<g id="edge1" class="edge">
<title>\\LinHUniX\\Gfx\\Service\\gfxService&#45;&gt;\\LinHUniX\\Mcp\\Model\\mcpBaseModelClass</title>
<path fill="none" stroke="#000000" d="M317.3191,-1231.9091C296.5075,-1218.6452 267.778,-1200.052 243,-1183 206.4204,-1157.8263 165.3499,-1127.7062 137.6986,-1107.1464"/>
<polygon fill="none" stroke="#000000" points="139.678,-1104.2565 129.5678,-1101.0888 135.4959,-1109.8699 139.678,-1104.2565"/>
</g>
<!-- \\LinHUniX\\Mail\\Component\\PHPMailer -->
<g id="node2" class="node">
<title>\\LinHUniX\\Mail\\Component\\PHPMailer</title>
<polygon fill="none" stroke="#000000" points="384.5,-426 307.5,-426 307.5,-390 384.5,-390 384.5,-426"/>
<text text-anchor="middle" x="346" y="-405.2" font-family="Courier,monospace" font-size="11.00" fill="#000000">PHPMailer</text>
</g>
<!-- \\LinHUniX\\Mail\\Component\\phpmailerException -->
<g id="node3" class="node">
<title>\\LinHUniX\\Mail\\Component\\phpmailerException</title>
<polygon fill="none" stroke="#000000" points="415,-372 277,-372 277,-336 415,-336 415,-372"/>
<text text-anchor="middle" x="346" y="-351.2" font-family="Courier,monospace" font-size="11.00" fill="#000000">phpmailerException</text>
</g>
<!-- \\Exception -->
<g id="node29" class="node">
<title>\\Exception</title>
<ellipse fill="none" stroke="#000000" cx="105.5" cy="-18" rx="51.1914" ry="18"/>
<text text-anchor="middle" x="105.5" y="-14.3" font-family="Times,serif" font-size="14.00" fill="#c0c0c0">\Exception</text>
</g>
<!-- \\LinHUniX\\Mail\\Component\\phpmailerException&#45;&gt;\\Exception -->
<g id="edge2" class="edge">
<title>\\LinHUniX\\Mail\\Component\\phpmailerException&#45;&gt;\\Exception</title>
<path fill="none" stroke="#000000" d="M276.8673,-346.6652C264.2936,-342.5334 252.2512,-336.3105 243,-327 151.8256,-235.2412 255.7962,-142.6835 171,-45 166.8728,-40.2455 161.7773,-36.3129 156.2658,-33.0636"/>
<polygon fill="none" stroke="#000000" points="157.8388,-29.9369 147.3419,-28.5 154.6516,-36.1693 157.8388,-29.9369"/>
</g>
<!-- \\LinHUniX\\Mail\\Component\\POP3 -->
<g id="node4" class="node">
<title>\\LinHUniX\\Mail\\Component\\POP3</title>
<polygon fill="none" stroke="#000000" points="373,-318 319,-318 319,-282 373,-282 373,-318"/>
<text text-anchor="middle" x="346" y="-297.2" font-family="Courier,monospace" font-size="11.00" fill="#000000">POP3</text>
</g>
<!-- \\LinHUniX\\Mail\\Component\\SMTP -->
<g id="node5" class="node">
<title>\\LinHUniX\\Mail\\Component\\SMTP</title>
<polygon fill="none" stroke="#000000" points="373,-264 319,-264 319,-228 373,-228 373,-264"/>
<text text-anchor="middle" x="346" y="-243.2" font-family="Courier,monospace" font-size="11.00" fill="#000000">SMTP</text>
</g>
<!-- \\LinHUniX\\Mail\\Service\\mailService -->
<g id="node6" class="node">
<title>\\LinHUniX\\Mail\\Service\\mailService</title>
<polygon fill="none" stroke="#000000" points="391.5,-506 300.5,-506 300.5,-470 391.5,-470 391.5,-506"/>
<text text-anchor="middle" x="346" y="-485.2" font-family="Courier,monospace" font-size="11.00" fill="#000000">mailService</text>
</g>
<!-- \\LinHUniX\\Mail\\Service\\mailService&#45;&gt;\\LinHUniX\\Mcp\\Model\\mcpBaseModelClass -->
<g id="edge3" class="edge">
<title>\\LinHUniX\\Mail\\Service\\mailService&#45;&gt;\\LinHUniX\\Mcp\\Model\\mcpBaseModelClass</title>
<path fill="none" stroke="#000000" d="M338.671,-506.132C304.2352,-591.3266 158.441,-952.0233 116.7052,-1055.2783"/>
<polygon fill="none" stroke="#000000" points="113.3925,-1054.1344 112.8899,-1064.7173 119.8824,-1056.7576 113.3925,-1054.1344"/>
</g>
<!-- \\LinHUniX\\Mcp\\Component\\mcpCoreClass -->
<g id="node7" class="node">
<title>\\LinHUniX\\Mcp\\Component\\mcpCoreClass</title>
<polygon fill="none" stroke="#000000" points="649,-1152 551,-1152 551,-1116 649,-1116 649,-1152"/>
<text text-anchor="middle" x="600" y="-1131.2" font-family="Courier,monospace" font-size="11.00" fill="#000000">mcpCoreClass</text>
</g>
<!-- \\LinHUniX\\Mcp\\Component\\mcpDebugClass -->
<g id="node8" class="node">
<title>\\LinHUniX\\Mcp\\Component\\mcpDebugClass</title>
<polygon fill="none" stroke="#000000" points="652,-1098 548,-1098 548,-1062 652,-1062 652,-1098"/>
<text text-anchor="middle" x="600" y="-1077.2" font-family="Courier,monospace" font-size="11.00" fill="#000000">mcpDebugClass</text>
</g>
<!-- \\LinHUniX\\Mcp\\Component\\mcpMenuClass -->
<g id="node9" class="node">
<title>\\LinHUniX\\Mcp\\Component\\mcpMenuClass</title>
<polygon fill="none" stroke="#000000" points="649,-1044 551,-1044 551,-1008 649,-1008 649,-1044"/>
<text text-anchor="middle" x="600" y="-1023.2" font-family="Courier,monospace" font-size="11.00" fill="#000000">mcpMenuClass</text>
</g>
<!-- \\LinHUniX\\Mcp\\Component\\mcpProxyClass -->
<g id="node10" class="node">
<title>\\LinHUniX\\Mcp\\Component\\mcpProxyClass</title>
<polygon fill="none" stroke="#000000" points="652,-990 548,-990 548,-954 652,-954 652,-990"/>
<text text-anchor="middle" x="600" y="-969.2" font-family="Courier,monospace" font-size="11.00" fill="#000000">mcpProxyClass</text>
</g>
<!-- \\LinHUniX\\Mcp\\Component\\mcpToolsClass -->
<g id="node11" class="node">
<title>\\LinHUniX\\Mcp\\Component\\mcpToolsClass</title>
<polygon fill="none" stroke="#000000" points="652,-936 548,-936 548,-900 652,-900 652,-936"/>
<text text-anchor="middle" x="600" y="-915.2" font-family="Courier,monospace" font-size="11.00" fill="#000000">mcpToolsClass</text>
</g>
<!-- \\LinHUniX\\Mcp\\Model\\mcpConfigArrayModelClass -->
<g id="node13" class="node">
<title>\\LinHUniX\\Mcp\\Model\\mcpConfigArrayModelClass</title>
<polygon fill="none" stroke="#000000" points="435.5,-939 256.5,-939 256.5,-903 435.5,-903 435.5,-939"/>
<text text-anchor="middle" x="346" y="-918.2" font-family="Courier,monospace" font-size="11.00" fill="#000000">mcpConfigArrayModelClass</text>
</g>
<!-- \\ArrayAccess -->
<g id="node30" class="node">
<title>\\ArrayAccess</title>
<ellipse fill="none" stroke="#000000" cx="105.5" cy="-72" rx="59.5901" ry="18"/>
<text text-anchor="middle" x="105.5" y="-68.3" font-family="Times,serif" font-size="14.00" fill="#c0c0c0">\ArrayAccess</text>
</g>
<!-- \\LinHUniX\\Mcp\\Model\\mcpConfigArrayModelClass&#45;&gt;\\ArrayAccess -->
<g id="edge4" class="edge">
<title>\\LinHUniX\\Mcp\\Model\\mcpConfigArrayModelClass&#45;&gt;\\ArrayAccess</title>
<path fill="none" stroke="#000000" stroke-dasharray="1,5" d="M256.121,-904.8983C251.3034,-901.8343 246.8645,-898.2316 243,-894 133.3768,-773.963 110.2612,-231.3595 106.2475,-100.4743"/>
<polygon fill="none" stroke="#000000" points="109.735,-99.9931 105.9436,-90.0999 102.738,-100.1982 109.735,-99.9931"/>
</g>
<!-- \\LinHUniX\\Mcp\\Model\\mcpDebugModelClass -->
<g id="node14" class="node">
<title>\\LinHUniX\\Mcp\\Model\\mcpDebugModelClass</title>
<polygon fill="none" stroke="#000000" points="415,-1047 277,-1047 277,-1011 415,-1011 415,-1047"/>
<text text-anchor="middle" x="346" y="-1026.2" font-family="Courier,monospace" font-size="11.00" fill="#000000">mcpDebugModelClass</text>
</g>
<!-- \\LinHUniX\\Mcp\\Model\\mcpRemoteApiModelClass -->
<g id="node15" class="node">
<title>\\LinHUniX\\Mcp\\Model\\mcpRemoteApiModelClass</title>
<polygon fill="none" stroke="#000000" points="428.5,-993 263.5,-993 263.5,-957 428.5,-957 428.5,-993"/>
<text text-anchor="middle" x="346" y="-972.2" font-family="Courier,monospace" font-size="11.00" fill="#000000">mcpRemoteApiModelClass</text>
</g>
<!-- \\LinHUniX\\Mcp\\Model\\mcpRemoteApiModelClass&#45;&gt;\\LinHUniX\\Mcp\\Model\\mcpBaseModelClass -->
<g id="edge5" class="edge">
<title>\\LinHUniX\\Mcp\\Model\\mcpRemoteApiModelClass&#45;&gt;\\LinHUniX\\Mcp\\Model\\mcpBaseModelClass</title>
<path fill="none" stroke="#000000" d="M267.9053,-993.0154C259.3877,-995.7035 250.9362,-998.6972 243,-1002 205.8395,-1017.4649 166.5743,-1041.4631 139.5605,-1059.329"/>
<polygon fill="none" stroke="#000000" points="137.6045,-1056.4265 131.2385,-1064.8956 141.4964,-1062.2449 137.6045,-1056.4265"/>
</g>
<!-- \\LinHUniX\\Mcp\\Model\\mcpRemoteObjectModelClass -->
<g id="node16" class="node">
<title>\\LinHUniX\\Mcp\\Model\\mcpRemoteObjectModelClass</title>
<polygon fill="none" stroke="#000000" points="438.5,-1101 253.5,-1101 253.5,-1065 438.5,-1065 438.5,-1101"/>
<text text-anchor="middle" x="346" y="-1080.2" font-family="Courier,monospace" font-size="11.00" fill="#000000">mcpRemoteObjectModelClass</text>
</g>
<!-- \\LinHUniX\\Mcp\\Model\\mcpRemoteObjectModelClass&#45;&gt;\\LinHUniX\\Mcp\\Model\\mcpBaseModelClass -->
<g id="edge6" class="edge">
<title>\\LinHUniX\\Mcp\\Model\\mcpRemoteObjectModelClass&#45;&gt;\\LinHUniX\\Mcp\\Model\\mcpBaseModelClass</title>
<path fill="none" stroke="#000000" d="M253.3604,-1083C229.6073,-1083 204.3347,-1083 181.5279,-1083"/>
<polygon fill="none" stroke="#000000" points="181.237,-1079.5001 171.2369,-1083 181.2369,-1086.5001 181.237,-1079.5001"/>
</g>
<!-- \\LinHUniX\\Mcp\\Model\\mcpServiceProviderModelClass -->
<g id="node17" class="node">
<title>\\LinHUniX\\Mcp\\Model\\mcpServiceProviderModelClass</title>
<polygon fill="none" stroke="#000000" points="449,-885 243,-885 243,-849 449,-849 449,-885"/>
<text text-anchor="middle" x="346" y="-864.2" font-family="Courier,monospace" font-size="11.00" fill="#000000">mcpServiceProviderModelClass</text>
</g>
<!-- \\LinHUniX\\Mcp\\Provider\\loggerProviderModel -->
<g id="node18" class="node">
<title>\\LinHUniX\\Mcp\\Provider\\loggerProviderModel</title>
<polygon fill="none" stroke="#000000" points="672.5,-856 527.5,-856 527.5,-820 672.5,-820 672.5,-856"/>
<text text-anchor="middle" x="600" y="-835.2" font-family="Courier,monospace" font-size="11.00" fill="#000000">loggerProviderModel</text>
</g>
<!-- \\LinHUniX\\Mcp\\Provider\\loggerProviderModel&#45;&gt;\\LinHUniX\\Mcp\\Model\\mcpServiceProviderModelClass -->
<g id="edge7" class="edge">
<title>\\LinHUniX\\Mcp\\Provider\\loggerProviderModel&#45;&gt;\\LinHUniX\\Mcp\\Model\\mcpServiceProviderModelClass</title>
<path fill="none" stroke="#000000" stroke-dasharray="1,5" d="M527.2138,-846.3102C506.016,-848.7305 482.3374,-851.4339 459.2702,-854.0676"/>
<polygon fill="none" stroke="#000000" points="458.6182,-850.6192 449.0798,-855.231 459.4123,-857.574 458.6182,-850.6192"/>
</g>
<!-- \\LinHUniX\\Mcp\\Provider\\settingsProviderModel -->
<g id="node19" class="node">
<title>\\LinHUniX\\Mcp\\Provider\\settingsProviderModel</title>
<polygon fill="none" stroke="#000000" points="679,-802 521,-802 521,-766 679,-766 679,-802"/>
<text text-anchor="middle" x="600" y="-781.2" font-family="Courier,monospace" font-size="11.00" fill="#000000">settingsProviderModel</text>
</g>
<!-- \\LinHUniX\\Mcp\\Provider\\settingsProviderModel&#45;&gt;\\LinHUniX\\Mcp\\Model\\mcpServiceProviderModelClass -->
<g id="edge8" class="edge">
<title>\\LinHUniX\\Mcp\\Provider\\settingsProviderModel&#45;&gt;\\LinHUniX\\Mcp\\Model\\mcpServiceProviderModelClass</title>
<path fill="none" stroke="#000000" stroke-dasharray="1,5" d="M540.9768,-802.1199C531.6064,-805.0535 522.0301,-808.0852 513,-811 478.3196,-822.1945 439.738,-835.1021 408.4029,-845.7018"/>
<polygon fill="none" stroke="#000000" points="407.2716,-842.3896 398.9231,-848.9129 409.5174,-849.0196 407.2716,-842.3896"/>
</g>
<!-- \\LinHUniX\\Mcp\\Tools\\pharizeBase -->
<g id="node20" class="node">
<title>\\LinHUniX\\Mcp\\Tools\\pharizeBase</title>
<polygon fill="none" stroke="#000000" points="645.5,-722 554.5,-722 554.5,-686 645.5,-686 645.5,-722"/>
<text text-anchor="middle" x="600" y="-701.2" font-family="Courier,monospace" font-size="11.00" fill="#000000">pharizeBase</text>
</g>
<!-- \\LinHUniX\\Mcp\\Tools\\pharizeShell -->
<g id="node21" class="node">
<title>\\LinHUniX\\Mcp\\Tools\\pharizeShell</title>
<polygon fill="none" stroke="#000000" points="649,-668 551,-668 551,-632 649,-632 649,-668"/>
<text text-anchor="middle" x="600" y="-647.2" font-family="Courier,monospace" font-size="11.00" fill="#000000">pharizeShell</text>
</g>
<!-- \\LinHUniX\\Mcp\\masterControlProgram -->
<g id="node22" class="node">
<title>\\LinHUniX\\Mcp\\masterControlProgram</title>
<polygon fill="none" stroke="#000000" points="676,-614 524,-614 524,-578 676,-578 676,-614"/>
<text text-anchor="middle" x="600" y="-593.2" font-family="Courier,monospace" font-size="11.00" fill="#000000">masterControlProgram</text>
</g>
<!-- \\LinHUniX\\Pdo\\Driver\\mysqlDriver -->
<g id="node23" class="node">
<title>\\LinHUniX\\Pdo\\Driver\\mysqlDriver</title>
<polygon fill="none" stroke="#000000" points="645.5,-1544 554.5,-1544 554.5,-1508 645.5,-1508 645.5,-1544"/>
<text text-anchor="middle" x="600" y="-1523.2" font-family="Courier,monospace" font-size="11.00" fill="#000000">mysqlDriver</text>
</g>
<!-- \\LinHUniX\\Pdo\\Driver\\mysqlDriver&#45;&gt;\\LinHUniX\\Mcp\\Model\\mcpBaseModelClass -->
<g id="edge9" class="edge">
<title>\\LinHUniX\\Pdo\\Driver\\mysqlDriver&#45;&gt;\\LinHUniX\\Mcp\\Model\\mcpBaseModelClass</title>
<path fill="none" stroke="#000000" d="M554.2792,-1530.2669C479.9641,-1534.6091 332.3039,-1532.0818 243,-1456 135.7831,-1364.6574 112.1278,-1181.9014 106.9427,-1111.5308"/>
<polygon fill="none" stroke="#000000" points="110.4139,-1110.9792 106.2592,-1101.2329 103.4293,-1111.4428 110.4139,-1110.9792"/>
</g>
<!-- \\LinHUniX\\Pdo\\Model\\mcpQueryModelClass -->
<g id="node24" class="node">
<title>\\LinHUniX\\Pdo\\Model\\mcpQueryModelClass</title>
<polygon fill="none" stroke="#000000" points="415,-1424 277,-1424 277,-1388 415,-1388 415,-1424"/>
<text text-anchor="middle" x="346" y="-1403.2" font-family="Courier,monospace" font-size="11.00" fill="#000000">mcpQueryModelClass</text>
</g>
<!-- \\LinHUniX\\Pdo\\Model\\mcpQueryModelClass&#45;&gt;\\LinHUniX\\Mcp\\Model\\mcpBaseModelClass -->
<g id="edge10" class="edge">
<title>\\LinHUniX\\Pdo\\Model\\mcpQueryModelClass&#45;&gt;\\LinHUniX\\Mcp\\Model\\mcpBaseModelClass</title>
<path fill="none" stroke="#000000" d="M326.1484,-1387.9411C304.4309,-1367.6666 269.2225,-1333.2407 243,-1300 192.4089,-1235.8688 143.8292,-1152.4322 120.2769,-1110.1377"/>
<polygon fill="none" stroke="#000000" points="123.2764,-1108.3291 115.3726,-1101.2736 117.1514,-1111.718 123.2764,-1108.3291"/>
</g>
<!-- \\LinHUniX\\Pdo\\Query\\JsonQuery -->
<g id="node25" class="node">
<title>\\LinHUniX\\Pdo\\Query\\JsonQuery</title>
<polygon fill="none" stroke="#000000" points="638.5,-1464 561.5,-1464 561.5,-1428 638.5,-1428 638.5,-1464"/>
<text text-anchor="middle" x="600" y="-1443.2" font-family="Courier,monospace" font-size="11.00" fill="#000000">JsonQuery</text>
</g>
<!-- \\LinHUniX\\Pdo\\Query\\JsonQuery&#45;&gt;\\LinHUniX\\Pdo\\Model\\mcpQueryModelClass -->
<g id="edge11" class="edge">
<title>\\LinHUniX\\Pdo\\Query\\JsonQuery&#45;&gt;\\LinHUniX\\Pdo\\Model\\mcpQueryModelClass</title>
<path fill="none" stroke="#000000" d="M561.4229,-1439.9249C525.4255,-1434.256 470.6128,-1425.6241 425.2874,-1418.4862"/>
<polygon fill="none" stroke="#000000" points="425.6013,-1414.9926 415.1785,-1416.8943 424.5123,-1421.9074 425.6013,-1414.9926"/>
</g>
<!-- \\LinHUniX\\Pdo\\Service\\pdoService -->
<g id="node26" class="node">
<title>\\LinHUniX\\Pdo\\Service\\pdoService</title>
<polygon fill="none" stroke="#000000" points="642,-1384 558,-1384 558,-1348 642,-1348 642,-1384"/>
<text text-anchor="middle" x="600" y="-1363.2" font-family="Courier,monospace" font-size="11.00" fill="#000000">pdoService</text>
</g>
<!-- \\LinHUniX\\Pdo\\Service\\pdoService&#45;&gt;\\LinHUniX\\Mcp\\Model\\mcpBaseModelClass -->
<g id="edge12" class="edge">
<title>\\LinHUniX\\Pdo\\Service\\pdoService&#45;&gt;\\LinHUniX\\Mcp\\Model\\mcpBaseModelClass</title>
<path fill="none" stroke="#000000" d="M586.5001,-1347.8673C563.1461,-1317.6146 512.3619,-1256.5659 457,-1220 370.0467,-1162.5684 255.4026,-1123.6059 181.0758,-1102.3393"/>
<polygon fill="none" stroke="#000000" points="181.8893,-1098.9322 171.3144,-1099.5817 179.9863,-1105.6685 181.8893,-1098.9322"/>
</g>
<!-- \\html2text -->
<g id="node27" class="node">
<title>\\html2text</title>
<polygon fill="none" stroke="#000000" points="638.5,-196 561.5,-196 561.5,-160 638.5,-160 638.5,-196"/>
<text text-anchor="middle" x="600" y="-175.2" font-family="Courier,monospace" font-size="11.00" fill="#000000">html2text</text>
</g>
<!-- \\mcpAutoload -->
<g id="node28" class="node">
<title>\\mcpAutoload</title>
<polygon fill="none" stroke="#000000" points="645.5,-142 554.5,-142 554.5,-106 645.5,-106 645.5,-142"/>
<text text-anchor="middle" x="600" y="-121.2" font-family="Courier,monospace" font-size="11.00" fill="#000000">mcpAutoload</text>
</g>
</g>
</svg>
