<?xml version="1.0" encoding="UTF-8" standalone="no"?>
<!DOCTYPE svg PUBLIC "-//W3C//DTD SVG 1.1//EN"
 "http://www.w3.org/Graphics/SVG/1.1/DTD/svg11.dtd">
<!-- Generated by graphviz version 2.40.1 (20161225.0304)
 -->
<!-- Title: G Pages: 1 -->
<svg width="636pt" height="498pt"
 viewBox="0.00 0.00 636.07 498.00" xmlns="http://www.w3.org/2000/svg" xmlns:xlink="http://www.w3.org/1999/xlink">
<g id="graph0" class="graph" transform="scale(1 1) rotate(0) translate(4 494)">
<title>G</title>
<polygon fill="#ffffff" stroke="transparent" points="-4,4 -4,-494 632.0675,-494 632.0675,4 -4,4"/>
<g id="clust1" class="cluster">
<title>cluster_Global</title>
<path fill="none" stroke="#c0c0c0" d="M421.0675,-8C421.0675,-8 608.0675,-8 608.0675,-8 614.0675,-8 620.0675,-14 620.0675,-20 620.0675,-20 620.0675,-470 620.0675,-470 620.0675,-476 614.0675,-482 608.0675,-482 608.0675,-482 421.0675,-482 421.0675,-482 415.0675,-482 409.0675,-476 409.0675,-470 409.0675,-470 409.0675,-20 409.0675,-20 409.0675,-14 415.0675,-8 421.0675,-8"/>
<text text-anchor="middle" x="514.5675" y="-469.2" font-family="Times,serif" font-size="11.00" fill="#c0c0c0">Global</text>
</g>
<g id="clust2" class="cluster">
<title>cluster_\LinHUniX</title>
<path fill="none" stroke="#c0c0c0" d="M429.0675,-114C429.0675,-114 600.0675,-114 600.0675,-114 606.0675,-114 612.0675,-120 612.0675,-126 612.0675,-126 612.0675,-442 612.0675,-442 612.0675,-448 606.0675,-454 600.0675,-454 600.0675,-454 429.0675,-454 429.0675,-454 423.0675,-454 417.0675,-448 417.0675,-442 417.0675,-442 417.0675,-126 417.0675,-126 417.0675,-120 423.0675,-114 429.0675,-114"/>
<text text-anchor="middle" x="514.5675" y="-441.2" font-family="Times,serif" font-size="11.00" fill="#c0c0c0">LinHUniX</text>
</g>
<g id="clust3" class="cluster">
<title>cluster_\LinHUniX\McpModules</title>
<path fill="none" stroke="#c0c0c0" d="M437.0675,-122C437.0675,-122 592.0675,-122 592.0675,-122 598.0675,-122 604.0675,-128 604.0675,-134 604.0675,-134 604.0675,-414 604.0675,-414 604.0675,-420 598.0675,-426 592.0675,-426 592.0675,-426 437.0675,-426 437.0675,-426 431.0675,-426 425.0675,-420 425.0675,-414 425.0675,-414 425.0675,-134 425.0675,-134 425.0675,-128 431.0675,-122 437.0675,-122"/>
<text text-anchor="middle" x="514.5675" y="-413.2" font-family="Times,serif" font-size="11.00" fill="#c0c0c0">McpModules</text>
</g>
<g id="clust4" class="cluster">
<title>cluster_\LinHUniX\McpModules\Chk</title>
<path fill="none" stroke="#c0c0c0" d="M466.5675,-326C466.5675,-326 562.5675,-326 562.5675,-326 568.5675,-326 574.5675,-332 574.5675,-338 574.5675,-338 574.5675,-386 574.5675,-386 574.5675,-392 568.5675,-398 562.5675,-398 562.5675,-398 466.5675,-398 466.5675,-398 460.5675,-398 454.5675,-392 454.5675,-386 454.5675,-386 454.5675,-338 454.5675,-338 454.5675,-332 460.5675,-326 466.5675,-326"/>
<text text-anchor="middle" x="514.5675" y="-385.2" font-family="Times,serif" font-size="11.00" fill="#c0c0c0">Chk</text>
</g>
<g id="clust5" class="cluster">
<title>cluster_\LinHUniX\McpModules\DbLegacy</title>
<path fill="none" stroke="#c0c0c0" d="M445.0675,-210C445.0675,-210 584.0675,-210 584.0675,-210 590.0675,-210 596.0675,-216 596.0675,-222 596.0675,-222 596.0675,-306 596.0675,-306 596.0675,-312 590.0675,-318 584.0675,-318 584.0675,-318 445.0675,-318 445.0675,-318 439.0675,-318 433.0675,-312 433.0675,-306 433.0675,-306 433.0675,-222 433.0675,-222 433.0675,-216 439.0675,-210 445.0675,-210"/>
<text text-anchor="middle" x="514.5675" y="-305.2" font-family="Times,serif" font-size="11.00" fill="#c0c0c0">DbLegacy</text>
</g>
<g id="clust6" class="cluster">
<title>cluster_\LinHUniX\McpModules\DbLegacy\Loader</title>
<path fill="none" stroke="#c0c0c0" d="M453.0675,-218C453.0675,-218 576.0675,-218 576.0675,-218 582.0675,-218 588.0675,-224 588.0675,-230 588.0675,-230 588.0675,-278 588.0675,-278 588.0675,-284 582.0675,-290 576.0675,-290 576.0675,-290 453.0675,-290 453.0675,-290 447.0675,-290 441.0675,-284 441.0675,-278 441.0675,-278 441.0675,-230 441.0675,-230 441.0675,-224 447.0675,-218 453.0675,-218"/>
<text text-anchor="middle" x="514.5675" y="-277.2" font-family="Times,serif" font-size="11.00" fill="#c0c0c0">Loader</text>
</g>
<g id="clust7" class="cluster">
<title>cluster_\LinHUniX\McpModules\Monologger</title>
<path fill="none" stroke="#c0c0c0" d="M459.5675,-130C459.5675,-130 569.5675,-130 569.5675,-130 575.5675,-130 581.5675,-136 581.5675,-142 581.5675,-142 581.5675,-190 581.5675,-190 581.5675,-196 575.5675,-202 569.5675,-202 569.5675,-202 459.5675,-202 459.5675,-202 453.5675,-202 447.5675,-196 447.5675,-190 447.5675,-190 447.5675,-142 447.5675,-142 447.5675,-136 453.5675,-130 459.5675,-130"/>
<text text-anchor="middle" x="514.5675" y="-189.2" font-family="Times,serif" font-size="11.00" fill="#c0c0c0">Monologger</text>
</g>
<!-- \\LinHUniX\\McpModules\\Chk\\mcpCheckModel -->
<g id="node1" class="node">
<title>\\LinHUniX\\McpModules\\Chk\\mcpCheckModel</title>
<polygon fill="none" stroke="#000000" points="566.5675,-370 462.5675,-370 462.5675,-334 566.5675,-334 566.5675,-370"/>
<text text-anchor="middle" x="514.5675" y="-349.2" font-family="Courier,monospace" font-size="11.00" fill="#000000">mcpCheckModel</text>
</g>
<!-- \\LinHUniX\\McpModules\\DbLegacy\\Loader\\mysqlLegacyLoader -->
<g id="node2" class="node">
<title>\\LinHUniX\\McpModules\\DbLegacy\\Loader\\mysqlLegacyLoader</title>
<polygon fill="none" stroke="#000000" points="580.0675,-262 449.0675,-262 449.0675,-226 580.0675,-226 580.0675,-262"/>
<text text-anchor="middle" x="514.5675" y="-241.2" font-family="Courier,monospace" font-size="11.00" fill="#000000">mysqlLegacyLoader</text>
</g>
<!-- \\LinHUniX\\McpModules\\Monologger\\errorLogHandler -->
<g id="node3" class="node">
<title>\\LinHUniX\\McpModules\\Monologger\\errorLogHandler</title>
<polygon fill="none" stroke="#000000" points="573.5675,-174 455.5675,-174 455.5675,-138 573.5675,-138 573.5675,-174"/>
<text text-anchor="middle" x="514.5675" y="-153.2" font-family="Courier,monospace" font-size="11.00" fill="#000000">errorLogHandler</text>
</g>
<!-- \\Monolog\\Handler\\AbstractProcessingHandler -->
<g id="node6" class="node">
<title>\\Monolog\\Handler\\AbstractProcessingHandler</title>
<ellipse fill="none" stroke="#000000" cx="183.2837" cy="-156" rx="183.0677" ry="18"/>
<text text-anchor="middle" x="183.2837" y="-152.3" font-family="Times,serif" font-size="14.00" fill="#c0c0c0">\Monolog\Handler\AbstractProcessingHandler</text>
</g>
<!-- \\LinHUniX\\McpModules\\Monologger\\errorLogHandler&#45;&gt;\\Monolog\\Handler\\AbstractProcessingHandler -->
<g id="edge1" class="edge">
<title>\\LinHUniX\\McpModules\\Monologger\\errorLogHandler&#45;&gt;\\Monolog\\Handler\\AbstractProcessingHandler</title>
<path fill="none" stroke="#000000" d="M455.3406,-156C432.6157,-156 405.2569,-156 376.7666,-156"/>
<polygon fill="none" stroke="#000000" points="376.6479,-152.5001 366.6479,-156 376.6479,-159.5001 376.6479,-152.5001"/>
</g>
<!-- \\simple_html_dom_node -->
<g id="node4" class="node">
<title>\\simple_html_dom_node</title>
<polygon fill="none" stroke="#000000" points="590.5675,-106 438.5675,-106 438.5675,-70 590.5675,-70 590.5675,-106"/>
<text text-anchor="middle" x="514.5675" y="-85.2" font-family="Courier,monospace" font-size="11.00" fill="#000000">simple_html_dom_node</text>
</g>
<!-- \\simple_html_dom -->
<g id="node5" class="node">
<title>\\simple_html_dom</title>
<polygon fill="none" stroke="#000000" points="573.5675,-52 455.5675,-52 455.5675,-16 573.5675,-16 573.5675,-52"/>
<text text-anchor="middle" x="514.5675" y="-31.2" font-family="Courier,monospace" font-size="11.00" fill="#000000">simple_html_dom</text>
</g>
</g>
</svg>
