<?xml version="1.0" encoding="UTF-8" standalone="no"?>
<!DOCTYPE svg PUBLIC "-//W3C//DTD SVG 1.1//EN"
 "http://www.w3.org/Graphics/SVG/1.1/DTD/svg11.dtd">
<!-- Generated by graphviz version 2.38.0 (20140413.2041)
 -->
<!-- Title: G Pages: 1 -->
<svg width="636pt" height="498pt"
 viewBox="0.00 0.00 636.07 498.00" xmlns="http://www.w3.org/2000/svg" xmlns:xlink="http://www.w3.org/1999/xlink">
<g id="graph0" class="graph" transform="scale(1 1) rotate(0) translate(4 494)">
<title>G</title>
<polygon fill="white" stroke="none" points="-4,4 -4,-494 632.067,-494 632.067,4 -4,4"/>
<g id="clust1" class="cluster"><title>cluster_Global</title>
<path fill="none" stroke="gray" d="M421.067,-8C421.067,-8 608.067,-8 608.067,-8 614.067,-8 620.067,-14 620.067,-20 620.067,-20 620.067,-470 620.067,-470 620.067,-476 614.067,-482 608.067,-482 608.067,-482 421.067,-482 421.067,-482 415.067,-482 409.067,-476 409.067,-470 409.067,-470 409.067,-20 409.067,-20 409.067,-14 415.067,-8 421.067,-8"/>
<text text-anchor="middle" x="514.567" y="-469.2" font-family="Times,serif" font-size="11.00" fill="gray">Global</text>
</g>
<g id="clust2" class="cluster"><title>cluster_\LinHUniX</title>
<path fill="none" stroke="gray" d="M429.067,-114C429.067,-114 600.067,-114 600.067,-114 606.067,-114 612.067,-120 612.067,-126 612.067,-126 612.067,-442 612.067,-442 612.067,-448 606.067,-454 600.067,-454 600.067,-454 429.067,-454 429.067,-454 423.067,-454 417.067,-448 417.067,-442 417.067,-442 417.067,-126 417.067,-126 417.067,-120 423.067,-114 429.067,-114"/>
<text text-anchor="middle" x="514.567" y="-441.2" font-family="Times,serif" font-size="11.00" fill="gray">LinHUniX</text>
</g>
<g id="clust3" class="cluster"><title>cluster_\LinHUniX\McpModules</title>
<path fill="none" stroke="gray" d="M437.067,-122C437.067,-122 592.067,-122 592.067,-122 598.067,-122 604.067,-128 604.067,-134 604.067,-134 604.067,-414 604.067,-414 604.067,-420 598.067,-426 592.067,-426 592.067,-426 437.067,-426 437.067,-426 431.067,-426 425.067,-420 425.067,-414 425.067,-414 425.067,-134 425.067,-134 425.067,-128 431.067,-122 437.067,-122"/>
<text text-anchor="middle" x="514.567" y="-413.2" font-family="Times,serif" font-size="11.00" fill="gray">McpModules</text>
</g>
<g id="clust4" class="cluster"><title>cluster_\LinHUniX\McpModules\Chk</title>
<path fill="none" stroke="gray" d="M466.567,-326C466.567,-326 562.567,-326 562.567,-326 568.567,-326 574.567,-332 574.567,-338 574.567,-338 574.567,-386 574.567,-386 574.567,-392 568.567,-398 562.567,-398 562.567,-398 466.567,-398 466.567,-398 460.567,-398 454.567,-392 454.567,-386 454.567,-386 454.567,-338 454.567,-338 454.567,-332 460.567,-326 466.567,-326"/>
<text text-anchor="middle" x="514.567" y="-385.2" font-family="Times,serif" font-size="11.00" fill="gray">Chk</text>
</g>
<g id="clust5" class="cluster"><title>cluster_\LinHUniX\McpModules\DbLegacy</title>
<path fill="none" stroke="gray" d="M445.067,-210C445.067,-210 584.067,-210 584.067,-210 590.067,-210 596.067,-216 596.067,-222 596.067,-222 596.067,-306 596.067,-306 596.067,-312 590.067,-318 584.067,-318 584.067,-318 445.067,-318 445.067,-318 439.067,-318 433.067,-312 433.067,-306 433.067,-306 433.067,-222 433.067,-222 433.067,-216 439.067,-210 445.067,-210"/>
<text text-anchor="middle" x="514.567" y="-305.2" font-family="Times,serif" font-size="11.00" fill="gray">DbLegacy</text>
</g>
<g id="clust6" class="cluster"><title>cluster_\LinHUniX\McpModules\DbLegacy\Loader</title>
<path fill="none" stroke="gray" d="M453.067,-218C453.067,-218 576.067,-218 576.067,-218 582.067,-218 588.067,-224 588.067,-230 588.067,-230 588.067,-278 588.067,-278 588.067,-284 582.067,-290 576.067,-290 576.067,-290 453.067,-290 453.067,-290 447.067,-290 441.067,-284 441.067,-278 441.067,-278 441.067,-230 441.067,-230 441.067,-224 447.067,-218 453.067,-218"/>
<text text-anchor="middle" x="514.567" y="-277.2" font-family="Times,serif" font-size="11.00" fill="gray">Loader</text>
</g>
<g id="clust7" class="cluster"><title>cluster_\LinHUniX\McpModules\Monologger</title>
<path fill="none" stroke="gray" d="M459.567,-130C459.567,-130 569.567,-130 569.567,-130 575.567,-130 581.567,-136 581.567,-142 581.567,-142 581.567,-190 581.567,-190 581.567,-196 575.567,-202 569.567,-202 569.567,-202 459.567,-202 459.567,-202 453.567,-202 447.567,-196 447.567,-190 447.567,-190 447.567,-142 447.567,-142 447.567,-136 453.567,-130 459.567,-130"/>
<text text-anchor="middle" x="514.567" y="-189.2" font-family="Times,serif" font-size="11.00" fill="gray">Monologger</text>
</g>
<!-- \\LinHUniX\\McpModules\\Chk\\mcpCheckModel -->
<g id="node1" class="node"><title>\\LinHUniX\\McpModules\\Chk\\mcpCheckModel</title>
<polygon fill="none" stroke="black" points="566.567,-370 462.567,-370 462.567,-334 566.567,-334 566.567,-370"/>
<text text-anchor="middle" x="514.567" y="-349.2" font-family="Courier,monospace" font-size="11.00">mcpCheckModel</text>
</g>
<!-- \\LinHUniX\\McpModules\\DbLegacy\\Loader\\mysqlLegacyLoader -->
<g id="node2" class="node"><title>\\LinHUniX\\McpModules\\DbLegacy\\Loader\\mysqlLegacyLoader</title>
<polygon fill="none" stroke="black" points="580.067,-262 449.067,-262 449.067,-226 580.067,-226 580.067,-262"/>
<text text-anchor="middle" x="514.567" y="-241.2" font-family="Courier,monospace" font-size="11.00">mysqlLegacyLoader</text>
</g>
<!-- \\LinHUniX\\McpModules\\Monologger\\errorLogHandler -->
<g id="node3" class="node"><title>\\LinHUniX\\McpModules\\Monologger\\errorLogHandler</title>
<polygon fill="none" stroke="black" points="573.567,-174 455.567,-174 455.567,-138 573.567,-138 573.567,-174"/>
<text text-anchor="middle" x="514.567" y="-153.2" font-family="Courier,monospace" font-size="11.00">errorLogHandler</text>
</g>
<!-- \\Monolog\\Handler\\AbstractProcessingHandler -->
<g id="node6" class="node"><title>\\Monolog\\Handler\\AbstractProcessingHandler</title>
<ellipse fill="none" stroke="black" cx="183.284" cy="-156" rx="183.068" ry="18"/>
<text text-anchor="middle" x="183.284" y="-152.3" font-family="Times,serif" font-size="14.00" fill="gray">\Monolog\Handler\AbstractProcessingHandler</text>
</g>
<!-- \\LinHUniX\\McpModules\\Monologger\\errorLogHandler&#45;&gt;\\Monolog\\Handler\\AbstractProcessingHandler -->
<g id="edge1" class="edge"><title>\\LinHUniX\\McpModules\\Monologger\\errorLogHandler&#45;&gt;\\Monolog\\Handler\\AbstractProcessingHandler</title>
<path fill="none" stroke="black" d="M455.456,-156C432.83,-156 405.499,-156 377.012,-156"/>
<polygon fill="none" stroke="black" points="376.893,-152.5 366.893,-156 376.893,-159.5 376.893,-152.5"/>
</g>
<!-- \\simple_html_dom_node -->
<g id="node4" class="node"><title>\\simple_html_dom_node</title>
<polygon fill="none" stroke="black" points="590.567,-106 438.567,-106 438.567,-70 590.567,-70 590.567,-106"/>
<text text-anchor="middle" x="514.567" y="-85.2" font-family="Courier,monospace" font-size="11.00">simple_html_dom_node</text>
</g>
<!-- \\simple_html_dom -->
<g id="node5" class="node"><title>\\simple_html_dom</title>
<polygon fill="none" stroke="black" points="573.567,-52 455.567,-52 455.567,-16 573.567,-16 573.567,-52"/>
<text text-anchor="middle" x="514.567" y="-31.2" font-family="Courier,monospace" font-size="11.00">simple_html_dom</text>
</g>
</g>
</svg>
