<?xml version="1.0" encoding="UTF-8" standalone="no"?>
<!DOCTYPE svg PUBLIC "-//W3C//DTD SVG 1.1//EN"
 "http://www.w3.org/Graphics/SVG/1.1/DTD/svg11.dtd">
<!-- Generated by graphviz version 2.38.0 (20140413.2041)
 -->
<!-- Title: G Pages: 1 -->
<svg width="636pt" height="650pt"
 viewBox="0.00 0.00 636.07 650.00" xmlns="http://www.w3.org/2000/svg" xmlns:xlink="http://www.w3.org/1999/xlink">
<g id="graph0" class="graph" transform="scale(1 1) rotate(0) translate(4 646)">
<title>G</title>
<polygon fill="white" stroke="none" points="-4,4 -4,-646 632.067,-646 632.067,4 -4,4"/>
<g id="clust1" class="cluster"><title>cluster_Global</title>
<path fill="none" stroke="gray" d="M421.067,-8C421.067,-8 608.067,-8 608.067,-8 614.067,-8 620.067,-14 620.067,-20 620.067,-20 620.067,-622 620.067,-622 620.067,-628 614.067,-634 608.067,-634 608.067,-634 421.067,-634 421.067,-634 415.067,-634 409.067,-628 409.067,-622 409.067,-622 409.067,-20 409.067,-20 409.067,-14 415.067,-8 421.067,-8"/>
<text text-anchor="middle" x="514.567" y="-621.2" font-family="Times,serif" font-size="11.00" fill="gray">Global</text>
</g>
<g id="clust2" class="cluster"><title>cluster_\LinHUniX</title>
<path fill="none" stroke="gray" d="M429.067,-114C429.067,-114 600.067,-114 600.067,-114 606.067,-114 612.067,-120 612.067,-126 612.067,-126 612.067,-594 612.067,-594 612.067,-600 606.067,-606 600.067,-606 600.067,-606 429.067,-606 429.067,-606 423.067,-606 417.067,-600 417.067,-594 417.067,-594 417.067,-126 417.067,-126 417.067,-120 423.067,-114 429.067,-114"/>
<text text-anchor="middle" x="514.567" y="-593.2" font-family="Times,serif" font-size="11.00" fill="gray">LinHUniX</text>
</g>
<g id="clust3" class="cluster"><title>cluster_\LinHUniX\McpModules</title>
<path fill="none" stroke="gray" d="M437.067,-122C437.067,-122 592.067,-122 592.067,-122 598.067,-122 604.067,-128 604.067,-134 604.067,-134 604.067,-566 604.067,-566 604.067,-572 598.067,-578 592.067,-578 592.067,-578 437.067,-578 437.067,-578 431.067,-578 425.067,-572 425.067,-566 425.067,-566 425.067,-134 425.067,-134 425.067,-128 431.067,-122 437.067,-122"/>
<text text-anchor="middle" x="514.567" y="-565.2" font-family="Times,serif" font-size="11.00" fill="gray">McpModules</text>
</g>
<g id="clust4" class="cluster"><title>cluster_\LinHUniX\McpModules\Chk</title>
<path fill="none" stroke="gray" d="M458.567,-442C458.567,-442 570.567,-442 570.567,-442 576.567,-442 582.567,-448 582.567,-454 582.567,-454 582.567,-538 582.567,-538 582.567,-544 576.567,-550 570.567,-550 570.567,-550 458.567,-550 458.567,-550 452.567,-550 446.567,-544 446.567,-538 446.567,-538 446.567,-454 446.567,-454 446.567,-448 452.567,-442 458.567,-442"/>
<text text-anchor="middle" x="514.567" y="-537.2" font-family="Times,serif" font-size="11.00" fill="gray">Chk</text>
</g>
<g id="clust5" class="cluster"><title>cluster_\LinHUniX\McpModules\Chk\Shell</title>
<path fill="none" stroke="gray" d="M466.567,-450C466.567,-450 562.567,-450 562.567,-450 568.567,-450 574.567,-456 574.567,-462 574.567,-462 574.567,-510 574.567,-510 574.567,-516 568.567,-522 562.567,-522 562.567,-522 466.567,-522 466.567,-522 460.567,-522 454.567,-516 454.567,-510 454.567,-510 454.567,-462 454.567,-462 454.567,-456 460.567,-450 466.567,-450"/>
<text text-anchor="middle" x="514.567" y="-509.2" font-family="Times,serif" font-size="11.00" fill="gray">Shell</text>
</g>
<g id="clust6" class="cluster"><title>cluster_\LinHUniX\McpModules\Monologger</title>
<path fill="none" stroke="gray" d="M459.567,-362C459.567,-362 569.567,-362 569.567,-362 575.567,-362 581.567,-368 581.567,-374 581.567,-374 581.567,-422 581.567,-422 581.567,-428 575.567,-434 569.567,-434 569.567,-434 459.567,-434 459.567,-434 453.567,-434 447.567,-428 447.567,-422 447.567,-422 447.567,-374 447.567,-374 447.567,-368 453.567,-362 459.567,-362"/>
<text text-anchor="middle" x="514.567" y="-421.2" font-family="Times,serif" font-size="11.00" fill="gray">Monologger</text>
</g>
<g id="clust7" class="cluster"><title>cluster_\LinHUniX\McpModules\DbMig</title>
<path fill="none" stroke="gray" d="M461.567,-246C461.567,-246 567.567,-246 567.567,-246 573.567,-246 579.567,-252 579.567,-258 579.567,-258 579.567,-342 579.567,-342 579.567,-348 573.567,-354 567.567,-354 567.567,-354 461.567,-354 461.567,-354 455.567,-354 449.567,-348 449.567,-342 449.567,-342 449.567,-258 449.567,-258 449.567,-252 455.567,-246 461.567,-246"/>
<text text-anchor="middle" x="514.567" y="-341.2" font-family="Times,serif" font-size="11.00" fill="gray">DbMig</text>
</g>
<g id="clust8" class="cluster"><title>cluster_\LinHUniX\McpModules\DbMig\Shell</title>
<path fill="none" stroke="gray" d="M469.567,-254C469.567,-254 559.567,-254 559.567,-254 565.567,-254 571.567,-260 571.567,-266 571.567,-266 571.567,-314 571.567,-314 571.567,-320 565.567,-326 559.567,-326 559.567,-326 469.567,-326 469.567,-326 463.567,-326 457.567,-320 457.567,-314 457.567,-314 457.567,-266 457.567,-266 457.567,-260 463.567,-254 469.567,-254"/>
<text text-anchor="middle" x="514.567" y="-313.2" font-family="Times,serif" font-size="11.00" fill="gray">Shell</text>
</g>
<g id="clust9" class="cluster"><title>cluster_\LinHUniX\McpModules\DbLegacy</title>
<path fill="none" stroke="gray" d="M445.067,-130C445.067,-130 584.067,-130 584.067,-130 590.067,-130 596.067,-136 596.067,-142 596.067,-142 596.067,-226 596.067,-226 596.067,-232 590.067,-238 584.067,-238 584.067,-238 445.067,-238 445.067,-238 439.067,-238 433.067,-232 433.067,-226 433.067,-226 433.067,-142 433.067,-142 433.067,-136 439.067,-130 445.067,-130"/>
<text text-anchor="middle" x="514.567" y="-225.2" font-family="Times,serif" font-size="11.00" fill="gray">DbLegacy</text>
</g>
<g id="clust10" class="cluster"><title>cluster_\LinHUniX\McpModules\DbLegacy\Loader</title>
<path fill="none" stroke="gray" d="M453.067,-138C453.067,-138 576.067,-138 576.067,-138 582.067,-138 588.067,-144 588.067,-150 588.067,-150 588.067,-198 588.067,-198 588.067,-204 582.067,-210 576.067,-210 576.067,-210 453.067,-210 453.067,-210 447.067,-210 441.067,-204 441.067,-198 441.067,-198 441.067,-150 441.067,-150 441.067,-144 447.067,-138 453.067,-138"/>
<text text-anchor="middle" x="514.567" y="-197.2" font-family="Times,serif" font-size="11.00" fill="gray">Loader</text>
</g>
<!-- \\LinHUniX\\McpModules\\Chk\\Shell\\mcpCheckModel -->
<g id="node1" class="node"><title>\\LinHUniX\\McpModules\\Chk\\Shell\\mcpCheckModel</title>
<polygon fill="none" stroke="black" points="566.567,-494 462.567,-494 462.567,-458 566.567,-458 566.567,-494"/>
<text text-anchor="middle" x="514.567" y="-473.2" font-family="Courier,monospace" font-size="11.00">mcpCheckModel</text>
</g>
<!-- \\LinHUniX\\McpModules\\Monologger\\errorLogHandler -->
<g id="node2" class="node"><title>\\LinHUniX\\McpModules\\Monologger\\errorLogHandler</title>
<polygon fill="none" stroke="black" points="573.567,-406 455.567,-406 455.567,-370 573.567,-370 573.567,-406"/>
<text text-anchor="middle" x="514.567" y="-385.2" font-family="Courier,monospace" font-size="11.00">errorLogHandler</text>
</g>
<!-- \\Monolog\\Handler\\AbstractProcessingHandler -->
<g id="node7" class="node"><title>\\Monolog\\Handler\\AbstractProcessingHandler</title>
<ellipse fill="none" stroke="black" cx="183.284" cy="-388" rx="183.068" ry="18"/>
<text text-anchor="middle" x="183.284" y="-384.3" font-family="Times,serif" font-size="14.00" fill="gray">\Monolog\Handler\AbstractProcessingHandler</text>
</g>
<!-- \\LinHUniX\\McpModules\\Monologger\\errorLogHandler&#45;&gt;\\Monolog\\Handler\\AbstractProcessingHandler -->
<g id="edge1" class="edge"><title>\\LinHUniX\\McpModules\\Monologger\\errorLogHandler&#45;&gt;\\Monolog\\Handler\\AbstractProcessingHandler</title>
<path fill="none" stroke="black" d="M455.456,-388C432.83,-388 405.499,-388 377.012,-388"/>
<polygon fill="none" stroke="black" points="376.893,-384.5 366.893,-388 376.893,-391.5 376.893,-384.5"/>
</g>
<!-- \\LinHUniX\\McpModules\\DbMig\\Shell\\mcpDbMigrate -->
<g id="node3" class="node"><title>\\LinHUniX\\McpModules\\DbMig\\Shell\\mcpDbMigrate</title>
<polygon fill="none" stroke="black" points="563.567,-298 465.567,-298 465.567,-262 563.567,-262 563.567,-298"/>
<text text-anchor="middle" x="514.567" y="-277.2" font-family="Courier,monospace" font-size="11.00">mcpDbMigrate</text>
</g>
<!-- \\LinHUniX\\McpModules\\DbLegacy\\Loader\\mysqlLegacyLoader -->
<g id="node4" class="node"><title>\\LinHUniX\\McpModules\\DbLegacy\\Loader\\mysqlLegacyLoader</title>
<polygon fill="none" stroke="black" points="580.067,-182 449.067,-182 449.067,-146 580.067,-146 580.067,-182"/>
<text text-anchor="middle" x="514.567" y="-161.2" font-family="Courier,monospace" font-size="11.00">mysqlLegacyLoader</text>
</g>
<!-- \\simple_html_dom_node -->
<g id="node5" class="node"><title>\\simple_html_dom_node</title>
<polygon fill="none" stroke="black" points="590.567,-106 438.567,-106 438.567,-70 590.567,-70 590.567,-106"/>
<text text-anchor="middle" x="514.567" y="-85.2" font-family="Courier,monospace" font-size="11.00">simple_html_dom_node</text>
</g>
<!-- \\simple_html_dom -->
<g id="node6" class="node"><title>\\simple_html_dom</title>
<polygon fill="none" stroke="black" points="573.567,-52 455.567,-52 455.567,-16 573.567,-16 573.567,-52"/>
<text text-anchor="middle" x="514.567" y="-31.2" font-family="Courier,monospace" font-size="11.00">simple_html_dom</text>
</g>
</g>
</svg>
