<?xml version="1.0" encoding="UTF-8" standalone="no"?>
<!DOCTYPE svg PUBLIC "-//W3C//DTD SVG 1.1//EN"
 "http://www.w3.org/Graphics/SVG/1.1/DTD/svg11.dtd">
<!-- Generated by graphviz version 2.38.0 (20140413.2041)
 -->
<!-- Title: G Pages: 1 -->
<svg width="636pt" height="650pt"
 viewBox="0.00 0.00 636.07 650.00" xmlns="http://www.w3.org/2000/svg" xmlns:xlink="http://www.w3.org/1999/xlink">
<g id="graph0" class="graph" transform="scale(1 1) rotate(0) translate(4 646)">
<title>G</title>
<polygon fill="white" stroke="none" points="-4,4 -4,-646 632.067,-646 632.067,4 -4,4"/>
<g id="clust1" class="cluster"><title>cluster_Global</title>
<path fill="none" stroke="gray" d="M421.067,-8C421.067,-8 608.067,-8 608.067,-8 614.067,-8 620.067,-14 620.067,-20 620.067,-20 620.067,-622 620.067,-622 620.067,-628 614.067,-634 608.067,-634 608.067,-634 421.067,-634 421.067,-634 415.067,-634 409.067,-628 409.067,-622 409.067,-622 409.067,-20 409.067,-20 409.067,-14 415.067,-8 421.067,-8"/>
<text text-anchor="middle" x="514.567" y="-621.2" font-family="Times,serif" font-size="11.00" fill="gray">Global</text>
</g>
<g id="clust2" class="cluster"><title>cluster_\LinHUniX</title>
<path fill="none" stroke="gray" d="M429.067,-114C429.067,-114 600.067,-114 600.067,-114 606.067,-114 612.067,-120 612.067,-126 612.067,-126 612.067,-594 612.067,-594 612.067,-600 606.067,-606 600.067,-606 600.067,-606 429.067,-606 429.067,-606 423.067,-606 417.067,-600 417.067,-594 417.067,-594 417.067,-126 417.067,-126 417.067,-120 423.067,-114 429.067,-114"/>
<text text-anchor="middle" x="514.567" y="-593.2" font-family="Times,serif" font-size="11.00" fill="gray">LinHUniX</text>
</g>
<g id="clust3" class="cluster"><title>cluster_\LinHUniX\McpModules</title>
<path fill="none" stroke="gray" d="M437.067,-122C437.067,-122 592.067,-122 592.067,-122 598.067,-122 604.067,-128 604.067,-134 604.067,-134 604.067,-566 604.067,-566 604.067,-572 598.067,-578 592.067,-578 592.067,-578 437.067,-578 437.067,-578 431.067,-578 425.067,-572 425.067,-566 425.067,-566 425.067,-134 425.067,-134 425.067,-128 431.067,-122 437.067,-122"/>
<text text-anchor="middle" x="514.567" y="-565.2" font-family="Times,serif" font-size="11.00" fill="gray">McpModules</text>
</g>
<g id="clust4" class="cluster"><title>cluster_\LinHUniX\McpModules\Monologger</title>
<path fill="none" stroke="gray" d="M459.567,-478C459.567,-478 569.567,-478 569.567,-478 575.567,-478 581.567,-484 581.567,-490 581.567,-490 581.567,-538 581.567,-538 581.567,-544 575.567,-550 569.567,-550 569.567,-550 459.567,-550 459.567,-550 453.567,-550 447.567,-544 447.567,-538 447.567,-538 447.567,-490 447.567,-490 447.567,-484 453.567,-478 459.567,-478"/>
<text text-anchor="middle" x="514.567" y="-537.2" font-family="Times,serif" font-size="11.00" fill="gray">Monologger</text>
</g>
<g id="clust5" class="cluster"><title>cluster_\LinHUniX\McpModules\DbLegacy</title>
<path fill="none" stroke="gray" d="M445.067,-362C445.067,-362 584.067,-362 584.067,-362 590.067,-362 596.067,-368 596.067,-374 596.067,-374 596.067,-458 596.067,-458 596.067,-464 590.067,-470 584.067,-470 584.067,-470 445.067,-470 445.067,-470 439.067,-470 433.067,-464 433.067,-458 433.067,-458 433.067,-374 433.067,-374 433.067,-368 439.067,-362 445.067,-362"/>
<text text-anchor="middle" x="514.567" y="-457.2" font-family="Times,serif" font-size="11.00" fill="gray">DbLegacy</text>
</g>
<g id="clust6" class="cluster"><title>cluster_\LinHUniX\McpModules\DbLegacy\Loader</title>
<path fill="none" stroke="gray" d="M453.067,-370C453.067,-370 576.067,-370 576.067,-370 582.067,-370 588.067,-376 588.067,-382 588.067,-382 588.067,-430 588.067,-430 588.067,-436 582.067,-442 576.067,-442 576.067,-442 453.067,-442 453.067,-442 447.067,-442 441.067,-436 441.067,-430 441.067,-430 441.067,-382 441.067,-382 441.067,-376 447.067,-370 453.067,-370"/>
<text text-anchor="middle" x="514.567" y="-429.2" font-family="Times,serif" font-size="11.00" fill="gray">Loader</text>
</g>
<g id="clust7" class="cluster"><title>cluster_\LinHUniX\McpModules\Chk</title>
<path fill="none" stroke="gray" d="M458.567,-246C458.567,-246 570.567,-246 570.567,-246 576.567,-246 582.567,-252 582.567,-258 582.567,-258 582.567,-342 582.567,-342 582.567,-348 576.567,-354 570.567,-354 570.567,-354 458.567,-354 458.567,-354 452.567,-354 446.567,-348 446.567,-342 446.567,-342 446.567,-258 446.567,-258 446.567,-252 452.567,-246 458.567,-246"/>
<text text-anchor="middle" x="514.567" y="-341.2" font-family="Times,serif" font-size="11.00" fill="gray">Chk</text>
</g>
<g id="clust8" class="cluster"><title>cluster_\LinHUniX\McpModules\Chk\Shell</title>
<path fill="none" stroke="gray" d="M466.567,-254C466.567,-254 562.567,-254 562.567,-254 568.567,-254 574.567,-260 574.567,-266 574.567,-266 574.567,-314 574.567,-314 574.567,-320 568.567,-326 562.567,-326 562.567,-326 466.567,-326 466.567,-326 460.567,-326 454.567,-320 454.567,-314 454.567,-314 454.567,-266 454.567,-266 454.567,-260 460.567,-254 466.567,-254"/>
<text text-anchor="middle" x="514.567" y="-313.2" font-family="Times,serif" font-size="11.00" fill="gray">Shell</text>
</g>
<g id="clust9" class="cluster"><title>cluster_\LinHUniX\McpModules\DbMig</title>
<path fill="none" stroke="gray" d="M461.567,-130C461.567,-130 567.567,-130 567.567,-130 573.567,-130 579.567,-136 579.567,-142 579.567,-142 579.567,-226 579.567,-226 579.567,-232 573.567,-238 567.567,-238 567.567,-238 461.567,-238 461.567,-238 455.567,-238 449.567,-232 449.567,-226 449.567,-226 449.567,-142 449.567,-142 449.567,-136 455.567,-130 461.567,-130"/>
<text text-anchor="middle" x="514.567" y="-225.2" font-family="Times,serif" font-size="11.00" fill="gray">DbMig</text>
</g>
<g id="clust10" class="cluster"><title>cluster_\LinHUniX\McpModules\DbMig\Shell</title>
<path fill="none" stroke="gray" d="M469.567,-138C469.567,-138 559.567,-138 559.567,-138 565.567,-138 571.567,-144 571.567,-150 571.567,-150 571.567,-198 571.567,-198 571.567,-204 565.567,-210 559.567,-210 559.567,-210 469.567,-210 469.567,-210 463.567,-210 457.567,-204 457.567,-198 457.567,-198 457.567,-150 457.567,-150 457.567,-144 463.567,-138 469.567,-138"/>
<text text-anchor="middle" x="514.567" y="-197.2" font-family="Times,serif" font-size="11.00" fill="gray">Shell</text>
</g>
<!-- \\LinHUniX\\McpModules\\Monologger\\errorLogHandler -->
<g id="node1" class="node"><title>\\LinHUniX\\McpModules\\Monologger\\errorLogHandler</title>
<polygon fill="none" stroke="black" points="573.567,-522 455.567,-522 455.567,-486 573.567,-486 573.567,-522"/>
<text text-anchor="middle" x="514.567" y="-501.2" font-family="Courier,monospace" font-size="11.00">errorLogHandler</text>
</g>
<!-- \\Monolog\\Handler\\AbstractProcessingHandler -->
<g id="node7" class="node"><title>\\Monolog\\Handler\\AbstractProcessingHandler</title>
<ellipse fill="none" stroke="black" cx="183.284" cy="-504" rx="183.068" ry="18"/>
<text text-anchor="middle" x="183.284" y="-500.3" font-family="Times,serif" font-size="14.00" fill="gray">\Monolog\Handler\AbstractProcessingHandler</text>
</g>
<!-- \\LinHUniX\\McpModules\\Monologger\\errorLogHandler&#45;&gt;\\Monolog\\Handler\\AbstractProcessingHandler -->
<g id="edge1" class="edge"><title>\\LinHUniX\\McpModules\\Monologger\\errorLogHandler&#45;&gt;\\Monolog\\Handler\\AbstractProcessingHandler</title>
<path fill="none" stroke="black" d="M455.456,-504C432.83,-504 405.499,-504 377.012,-504"/>
<polygon fill="none" stroke="black" points="376.893,-500.5 366.893,-504 376.893,-507.5 376.893,-500.5"/>
</g>
<!-- \\LinHUniX\\McpModules\\DbLegacy\\Loader\\mysqlLegacyLoader -->
<g id="node2" class="node"><title>\\LinHUniX\\McpModules\\DbLegacy\\Loader\\mysqlLegacyLoader</title>
<polygon fill="none" stroke="black" points="580.067,-414 449.067,-414 449.067,-378 580.067,-378 580.067,-414"/>
<text text-anchor="middle" x="514.567" y="-393.2" font-family="Courier,monospace" font-size="11.00">mysqlLegacyLoader</text>
</g>
<!-- \\LinHUniX\\McpModules\\Chk\\Shell\\mcpCheckModel -->
<g id="node3" class="node"><title>\\LinHUniX\\McpModules\\Chk\\Shell\\mcpCheckModel</title>
<polygon fill="none" stroke="black" points="566.567,-298 462.567,-298 462.567,-262 566.567,-262 566.567,-298"/>
<text text-anchor="middle" x="514.567" y="-277.2" font-family="Courier,monospace" font-size="11.00">mcpCheckModel</text>
</g>
<!-- \\LinHUniX\\McpModules\\DbMig\\Shell\\mcpDbMigrate -->
<g id="node4" class="node"><title>\\LinHUniX\\McpModules\\DbMig\\Shell\\mcpDbMigrate</title>
<polygon fill="none" stroke="black" points="563.567,-182 465.567,-182 465.567,-146 563.567,-146 563.567,-182"/>
<text text-anchor="middle" x="514.567" y="-161.2" font-family="Courier,monospace" font-size="11.00">mcpDbMigrate</text>
</g>
<!-- \\simple_html_dom_node -->
<g id="node5" class="node"><title>\\simple_html_dom_node</title>
<polygon fill="none" stroke="black" points="590.567,-106 438.567,-106 438.567,-70 590.567,-70 590.567,-106"/>
<text text-anchor="middle" x="514.567" y="-85.2" font-family="Courier,monospace" font-size="11.00">simple_html_dom_node</text>
</g>
<!-- \\simple_html_dom -->
<g id="node6" class="node"><title>\\simple_html_dom</title>
<polygon fill="none" stroke="black" points="573.567,-52 455.567,-52 455.567,-16 573.567,-16 573.567,-52"/>
<text text-anchor="middle" x="514.567" y="-31.2" font-family="Courier,monospace" font-size="11.00">simple_html_dom</text>
</g>
</g>
</svg>
